<svg width="19" height="19" viewBox="0 0 19 19" fill="none" xmlns="http://www.w3.org/2000/svg">
<circle cx="9.5" cy="9.5" r="8.5" fill="#2DD8D8" stroke="#F3F5F7" stroke-width="2"/>
<path d="M11.9995 8.47787V8.4966C11.9995 8.71729 11.9995 8.82789 11.9463 8.91822C11.8932 9.00855 11.7965 9.06218 11.6035 9.1697L11.4 9.28261C11.5401 8.80839 11.5871 8.29875 11.6043 7.86302L11.6068 7.80631L11.6074 7.79297C11.7744 7.85096 11.8683 7.89433 11.9268 7.97542C11.9995 8.07627 11.9995 8.21022 11.9995 8.47787ZM6.86719 8.47787V8.4966C6.86719 8.71729 6.86719 8.82789 6.92031 8.91822C6.97343 9.00855 7.07017 9.06218 7.26314 9.1697L7.46689 9.28261C7.32653 8.80839 7.27957 8.29875 7.26237 7.86302L7.25981 7.80631L7.25955 7.79297C7.09224 7.85096 6.99832 7.89433 6.93981 7.97542C6.86719 8.07627 6.86719 8.21048 6.86719 8.47787Z" fill="white"/>
<path fill-rule="evenodd" clip-rule="evenodd" d="M9.4334 6.8985C9.8912 6.8985 10.2682 6.93879 10.5566 6.98754C10.8489 7.03681 10.9949 7.06145 11.117 7.21182C11.2392 7.3622 11.2325 7.52463 11.2197 7.84951C11.1756 8.96552 10.9348 10.3592 9.62586 10.4824V11.3892H9.99282C10.0521 11.3893 10.1096 11.4098 10.1554 11.4475C10.2013 11.4851 10.2327 11.5374 10.2443 11.5956L10.2931 11.8383H10.9731C11.0241 11.8383 11.0731 11.8586 11.1092 11.8947C11.1453 11.9308 11.1655 11.9797 11.1655 12.0308C11.1655 12.0818 11.1453 12.1308 11.1092 12.1669C11.0731 12.203 11.0241 12.2232 10.9731 12.2232H7.89372C7.84268 12.2232 7.79373 12.203 7.75763 12.1669C7.72154 12.1308 7.70126 12.0818 7.70126 12.0308C7.70126 11.9797 7.72154 11.9308 7.75763 11.8947C7.79373 11.8586 7.84268 11.8383 7.89372 11.8383H8.57375L8.62251 11.5956C8.63413 11.5374 8.66553 11.4851 8.71138 11.4475C8.75723 11.4098 8.81469 11.3893 8.87399 11.3892H9.24094V10.4824C7.93222 10.3592 7.69151 8.96526 7.64737 7.84951C7.63429 7.52463 7.62787 7.36194 7.75002 7.21182C7.87191 7.06145 8.01792 7.03681 8.31021 6.98754C8.68148 6.92669 9.05718 6.89691 9.4334 6.8985ZM9.6777 7.97602L9.65255 7.93085C9.55504 7.75559 9.50628 7.66834 9.4334 7.66834C9.36053 7.66834 9.31177 7.75559 9.21426 7.93085L9.18911 7.97602C9.16139 8.0258 9.14754 8.05044 9.12598 8.06686C9.10417 8.08328 9.07722 8.08944 9.02334 8.1015L8.97458 8.11279C8.7852 8.15565 8.69051 8.17695 8.66793 8.24931C8.64534 8.32193 8.71001 8.39738 8.83909 8.54827L8.87245 8.58727C8.90914 8.63013 8.92762 8.65142 8.93583 8.67811C8.94404 8.7048 8.94122 8.73328 8.93583 8.79051L8.9307 8.8426C8.9112 9.04404 8.90144 9.14489 8.96021 9.18954C9.01923 9.23419 9.10802 9.19339 9.28534 9.11179L9.33102 9.09075C9.38157 9.06765 9.40672 9.0561 9.4334 9.0561C9.46009 9.0561 9.48524 9.06765 9.53579 9.09075L9.58147 9.11179C9.75879 9.19365 9.84758 9.23419 9.9066 9.18954C9.96562 9.14489 9.95561 9.04404 9.93611 8.8426L9.93098 8.79051C9.92559 8.73328 9.92277 8.7048 9.93098 8.67811C9.93919 8.65168 9.95767 8.63013 9.99436 8.58727L10.0277 8.54827C10.1568 8.39738 10.2215 8.32193 10.1989 8.24931C10.1763 8.17695 10.0816 8.15565 9.89223 8.11279L9.84347 8.1015C9.78958 8.08944 9.76264 8.08354 9.74083 8.06686C9.71927 8.05044 9.70541 8.0258 9.6777 7.97602Z" fill="white"/>
</svg>
