<svg width="197" height="231" viewBox="0 0 197 231" fill="none" xmlns="http://www.w3.org/2000/svg">
<path d="M15.8618 53.0312L81.535 11.6094C92.7552 4.53253 107.067 4.62764 118.192 11.853L181.519 52.9812C191.174 59.2518 197 69.9825 197 81.4953V152.29C197 164.099 190.873 175.062 180.815 181.249L117.498 220.2C106.708 226.838 93.1217 226.926 82.2459 220.428L16.5624 181.187C6.29009 175.05 0 163.965 0 151.999V81.7889C0 70.1156 5.98842 59.2585 15.8618 53.0312Z" fill="#FFF8E4"/>
<path d="M99.712 67.768V79H96.976V72.264L94.464 79H92.256L89.728 72.248V79H86.992V67.768H90.224L93.376 75.544L96.496 67.768H99.712ZM101.136 74.52C101.136 73.6027 101.306 72.7973 101.648 72.104C102 71.4107 102.474 70.8773 103.072 70.504C103.669 70.1307 104.336 69.944 105.072 69.944C105.701 69.944 106.25 70.072 106.72 70.328C107.2 70.584 107.568 70.92 107.824 71.336V70.072H110.56V79H107.824V77.736C107.557 78.152 107.184 78.488 106.704 78.744C106.234 79 105.685 79.128 105.056 79.128C104.33 79.128 103.669 78.9413 103.072 78.568C102.474 78.184 102 77.6453 101.648 76.952C101.306 76.248 101.136 75.4373 101.136 74.52ZM107.824 74.536C107.824 73.8533 107.632 73.3147 107.248 72.92C106.874 72.5253 106.416 72.328 105.872 72.328C105.328 72.328 104.864 72.5253 104.48 72.92C104.106 73.304 103.92 73.8373 103.92 74.52C103.92 75.2027 104.106 75.7467 104.48 76.152C104.864 76.5467 105.328 76.744 105.872 76.744C106.416 76.744 106.874 76.5467 107.248 76.152C107.632 75.7573 107.824 75.2187 107.824 74.536ZM116.171 79.128C115.392 79.128 114.699 78.9947 114.091 78.728C113.483 78.4613 113.003 78.0987 112.651 77.64C112.299 77.1707 112.102 76.648 112.059 76.072H114.763C114.795 76.3813 114.939 76.632 115.195 76.824C115.451 77.016 115.766 77.112 116.139 77.112C116.48 77.112 116.742 77.048 116.923 76.92C117.115 76.7813 117.211 76.6053 117.211 76.392C117.211 76.136 117.078 75.9493 116.811 75.832C116.544 75.704 116.112 75.5653 115.515 75.416C114.875 75.2667 114.342 75.112 113.915 74.952C113.488 74.7813 113.12 74.52 112.811 74.168C112.502 73.8053 112.347 73.32 112.347 72.712C112.347 72.2 112.486 71.736 112.763 71.32C113.051 70.8933 113.467 70.5573 114.011 70.312C114.566 70.0667 115.222 69.944 115.979 69.944C117.099 69.944 117.979 70.2213 118.619 70.776C119.27 71.3307 119.643 72.0667 119.739 72.984H117.211C117.168 72.6747 117.03 72.4293 116.795 72.248C116.571 72.0667 116.272 71.976 115.899 71.976C115.579 71.976 115.334 72.04 115.163 72.168C114.992 72.2853 114.907 72.4507 114.907 72.664C114.907 72.92 115.04 73.112 115.307 73.24C115.584 73.368 116.011 73.496 116.587 73.624C117.248 73.7947 117.787 73.9653 118.203 74.136C118.619 74.296 118.982 74.5627 119.291 74.936C119.611 75.2987 119.776 75.7893 119.787 76.408C119.787 76.9307 119.638 77.4 119.339 77.816C119.051 78.2213 118.63 78.5413 118.075 78.776C117.531 79.0107 116.896 79.128 116.171 79.128ZM126.437 76.68V79H125.045C124.053 79 123.279 78.76 122.725 78.28C122.17 77.7893 121.893 76.9947 121.893 75.896V72.344H120.805V70.072H121.893V67.896H124.629V70.072H126.421V72.344H124.629V75.928C124.629 76.1947 124.693 76.3867 124.821 76.504C124.949 76.6213 125.162 76.68 125.461 76.68H126.437ZM136.377 74.392C136.377 74.648 136.361 74.9147 136.329 75.192H130.137C130.179 75.7467 130.355 76.1733 130.665 76.472C130.985 76.76 131.374 76.904 131.833 76.904C132.515 76.904 132.99 76.616 133.257 76.04H136.169C136.019 76.6267 135.747 77.1547 135.353 77.624C134.969 78.0933 134.483 78.4613 133.897 78.728C133.31 78.9947 132.654 79.128 131.929 79.128C131.054 79.128 130.275 78.9413 129.593 78.568C128.91 78.1947 128.377 77.6613 127.993 76.968C127.609 76.2747 127.417 75.464 127.417 74.536C127.417 73.608 127.603 72.7973 127.977 72.104C128.361 71.4107 128.894 70.8773 129.577 70.504C130.259 70.1307 131.043 69.944 131.929 69.944C132.793 69.944 133.561 70.1253 134.233 70.488C134.905 70.8507 135.427 71.368 135.801 72.04C136.185 72.712 136.377 73.496 136.377 74.392ZM133.577 73.672C133.577 73.2027 133.417 72.8293 133.097 72.552C132.777 72.2747 132.377 72.136 131.897 72.136C131.438 72.136 131.049 72.2693 130.729 72.536C130.419 72.8027 130.227 73.1813 130.153 73.672H133.577ZM140.556 71.56C140.876 71.0693 141.276 70.6853 141.756 70.408C142.236 70.12 142.769 69.976 143.356 69.976V72.872H142.604C141.921 72.872 141.409 73.0213 141.068 73.32C140.727 73.608 140.556 74.12 140.556 74.856V79H137.82V70.072H140.556V71.56ZM152.119 79.128C151.244 79.128 150.455 78.9413 149.751 78.568C149.057 78.1947 148.508 77.6613 148.103 76.968C147.708 76.2747 147.511 75.464 147.511 74.536C147.511 73.6187 147.713 72.8133 148.118 72.12C148.524 71.416 149.079 70.8773 149.783 70.504C150.487 70.1307 151.276 69.944 152.151 69.944C153.025 69.944 153.815 70.1307 154.519 70.504C155.223 70.8773 155.777 71.416 156.183 72.12C156.588 72.8133 156.791 73.6187 156.791 74.536C156.791 75.4533 156.583 76.264 156.167 76.968C155.761 77.6613 155.201 78.1947 154.487 78.568C153.783 78.9413 152.993 79.128 152.119 79.128ZM152.119 76.76C152.641 76.76 153.084 76.568 153.447 76.184C153.82 75.8 154.007 75.2507 154.007 74.536C154.007 73.8213 153.825 73.272 153.463 72.888C153.111 72.504 152.673 72.312 152.151 72.312C151.617 72.312 151.175 72.504 150.823 72.888C150.471 73.2613 150.295 73.8107 150.295 74.536C150.295 75.2507 150.465 75.8 150.807 76.184C151.159 76.568 151.596 76.76 152.119 76.76ZM162.722 72.344H161.25V79H158.514V72.344H157.522V70.072H158.514V69.816C158.514 68.7173 158.829 67.8853 159.458 67.32C160.087 66.744 161.01 66.456 162.226 66.456C162.429 66.456 162.578 66.4613 162.674 66.472V68.792C162.151 68.76 161.783 68.8347 161.57 69.016C161.357 69.1973 161.25 69.5227 161.25 69.992V70.072H162.722V72.344ZM91.968 100.68V103H90.576C89.584 103 88.8107 102.76 88.256 102.28C87.7013 101.789 87.424 100.995 87.424 99.896V96.344H86.336V94.072H87.424V91.896H90.16V94.072H91.952V96.344H90.16V99.928C90.16 100.195 90.224 100.387 90.352 100.504C90.48 100.621 90.6933 100.68 90.992 100.68H91.968ZM98.98 93.976C100.004 93.976 100.825 94.3173 101.444 95C102.063 95.672 102.372 96.6 102.372 97.784V103H99.652V98.152C99.652 97.5547 99.4973 97.0907 99.188 96.76C98.8787 96.4293 98.4627 96.264 97.94 96.264C97.4173 96.264 97.0013 96.4293 96.692 96.76C96.3827 97.0907 96.228 97.5547 96.228 98.152V103H93.492V91.16H96.228V95.272C96.5053 94.8773 96.884 94.5627 97.364 94.328C97.844 94.0933 98.3827 93.976 98.98 93.976ZM112.689 98.392C112.689 98.648 112.673 98.9147 112.641 99.192H106.449C106.492 99.7467 106.668 100.173 106.977 100.472C107.297 100.76 107.687 100.904 108.145 100.904C108.828 100.904 109.303 100.616 109.569 100.04H112.481C112.332 100.627 112.06 101.155 111.665 101.624C111.281 102.093 110.796 102.461 110.209 102.728C109.623 102.995 108.967 103.128 108.241 103.128C107.367 103.128 106.588 102.941 105.905 102.568C105.223 102.195 104.689 101.661 104.305 100.968C103.921 100.275 103.729 99.464 103.729 98.536C103.729 97.608 103.916 96.7973 104.289 96.104C104.673 95.4107 105.207 94.8773 105.889 94.504C106.572 94.1307 107.356 93.944 108.241 93.944C109.105 93.944 109.873 94.1253 110.545 94.488C111.217 94.8507 111.74 95.368 112.113 96.04C112.497 96.712 112.689 97.496 112.689 98.392ZM109.889 97.672C109.889 97.2027 109.729 96.8293 109.409 96.552C109.089 96.2747 108.689 96.136 108.209 96.136C107.751 96.136 107.361 96.2693 107.041 96.536C106.732 96.8027 106.54 97.1813 106.465 97.672H109.889ZM121.587 103.112C120.766 103.112 120.03 102.979 119.379 102.712C118.729 102.445 118.206 102.051 117.811 101.528C117.427 101.005 117.225 100.376 117.203 99.64H120.115C120.158 100.056 120.302 100.376 120.547 100.6C120.793 100.813 121.113 100.92 121.507 100.92C121.913 100.92 122.233 100.829 122.467 100.648C122.702 100.456 122.819 100.195 122.819 99.864C122.819 99.5867 122.723 99.3573 122.531 99.176C122.35 98.9947 122.121 98.8453 121.843 98.728C121.577 98.6107 121.193 98.4773 120.691 98.328C119.966 98.104 119.374 97.88 118.915 97.656C118.457 97.432 118.062 97.1013 117.731 96.664C117.401 96.2267 117.235 95.656 117.235 94.952C117.235 93.9067 117.614 93.0907 118.371 92.504C119.129 91.9067 120.115 91.608 121.331 91.608C122.569 91.608 123.566 91.9067 124.323 92.504C125.081 93.0907 125.486 93.912 125.539 94.968H122.579C122.558 94.6053 122.425 94.3227 122.179 94.12C121.934 93.9067 121.619 93.8 121.235 93.8C120.905 93.8 120.638 93.8907 120.435 94.072C120.233 94.2427 120.131 94.4933 120.131 94.824C120.131 95.1867 120.302 95.4693 120.643 95.672C120.985 95.8747 121.518 96.0933 122.243 96.328C122.969 96.5733 123.555 96.808 124.003 97.032C124.462 97.256 124.857 97.5813 125.187 98.008C125.518 98.4347 125.683 98.984 125.683 99.656C125.683 100.296 125.518 100.877 125.187 101.4C124.867 101.923 124.398 102.339 123.779 102.648C123.161 102.957 122.43 103.112 121.587 103.112ZM135.783 98.392C135.783 98.648 135.767 98.9147 135.735 99.192H129.543C129.586 99.7467 129.762 100.173 130.071 100.472C130.391 100.76 130.78 100.904 131.239 100.904C131.922 100.904 132.396 100.616 132.663 100.04H135.575C135.426 100.627 135.154 101.155 134.759 101.624C134.375 102.093 133.89 102.461 133.303 102.728C132.716 102.995 132.06 103.128 131.335 103.128C130.46 103.128 129.682 102.941 128.999 102.568C128.316 102.195 127.783 101.661 127.399 100.968C127.015 100.275 126.823 99.464 126.823 98.536C126.823 97.608 127.01 96.7973 127.383 96.104C127.767 95.4107 128.3 94.8773 128.983 94.504C129.666 94.1307 130.45 93.944 131.335 93.944C132.199 93.944 132.967 94.1253 133.639 94.488C134.311 94.8507 134.834 95.368 135.207 96.04C135.591 96.712 135.783 97.496 135.783 98.392ZM132.983 97.672C132.983 97.2027 132.823 96.8293 132.503 96.552C132.183 96.2747 131.783 96.136 131.303 96.136C130.844 96.136 130.455 96.2693 130.135 96.536C129.826 96.8027 129.634 97.1813 129.559 97.672H132.983ZM139.962 95.56C140.282 95.0693 140.682 94.6853 141.162 94.408C141.642 94.12 142.176 93.976 142.762 93.976V96.872H142.01C141.328 96.872 140.816 97.0213 140.474 97.32C140.133 97.608 139.962 98.12 139.962 98.856V103H137.226V94.072H139.962V95.56ZM148.086 100.44L150.022 94.072H152.934L149.766 103H146.39L143.222 94.072H146.15L148.086 100.44ZM162.502 98.392C162.502 98.648 162.486 98.9147 162.454 99.192H156.262C156.304 99.7467 156.48 100.173 156.79 100.472C157.11 100.76 157.499 100.904 157.958 100.904C158.64 100.904 159.115 100.616 159.382 100.04H162.294C162.144 100.627 161.872 101.155 161.478 101.624C161.094 102.093 160.608 102.461 160.022 102.728C159.435 102.995 158.779 103.128 158.054 103.128C157.179 103.128 156.4 102.941 155.718 102.568C155.035 102.195 154.502 101.661 154.118 100.968C153.734 100.275 153.542 99.464 153.542 98.536C153.542 97.608 153.728 96.7973 154.102 96.104C154.486 95.4107 155.019 94.8773 155.702 94.504C156.384 94.1307 157.168 93.944 158.054 93.944C158.918 93.944 159.686 94.1253 160.358 94.488C161.03 94.8507 161.552 95.368 161.926 96.04C162.31 96.712 162.502 97.496 162.502 98.392ZM159.702 97.672C159.702 97.2027 159.542 96.8293 159.222 96.552C158.902 96.2747 158.502 96.136 158.022 96.136C157.563 96.136 157.174 96.2693 156.854 96.536C156.544 96.8027 156.352 97.1813 156.278 97.672H159.702Z" fill="#C0920E"/>
<path d="M95.53 114.03L93.51 121H92.49L90.87 115.39L89.19 121L88.18 121.01L86.23 114.03H87.2L88.72 119.94L90.4 114.03H91.42L93.02 119.92L94.55 114.03H95.53ZM96.9959 114.63C96.8225 114.63 96.6759 114.57 96.5559 114.45C96.4359 114.33 96.3759 114.183 96.3759 114.01C96.3759 113.837 96.4359 113.69 96.5559 113.57C96.6759 113.45 96.8225 113.39 96.9959 113.39C97.1625 113.39 97.3025 113.45 97.4159 113.57C97.5359 113.69 97.5959 113.837 97.5959 114.01C97.5959 114.183 97.5359 114.33 97.4159 114.45C97.3025 114.57 97.1625 114.63 96.9959 114.63ZM97.4359 115.52V121H96.5259V115.52H97.4359ZM101.657 115.42C102.323 115.42 102.863 115.623 103.277 116.03C103.69 116.43 103.897 117.01 103.897 117.77V121H102.997V117.9C102.997 117.353 102.86 116.937 102.587 116.65C102.313 116.357 101.94 116.21 101.467 116.21C100.987 116.21 100.603 116.36 100.317 116.66C100.037 116.96 99.8968 117.397 99.8968 117.97V121H98.9868V115.52H99.8968V116.3C100.077 116.02 100.32 115.803 100.627 115.65C100.94 115.497 101.283 115.42 101.657 115.42ZM107.709 118.24C107.709 117.68 107.823 117.19 108.049 116.77C108.276 116.343 108.586 116.013 108.979 115.78C109.379 115.547 109.823 115.43 110.309 115.43C110.789 115.43 111.206 115.533 111.559 115.74C111.913 115.947 112.176 116.207 112.349 116.52V115.52H113.269V121H112.349V119.98C112.169 120.3 111.899 120.567 111.539 120.78C111.186 120.987 110.773 121.09 110.299 121.09C109.813 121.09 109.373 120.97 108.979 120.73C108.586 120.49 108.276 120.153 108.049 119.72C107.823 119.287 107.709 118.793 107.709 118.24ZM112.349 118.25C112.349 117.837 112.266 117.477 112.099 117.17C111.933 116.863 111.706 116.63 111.419 116.47C111.139 116.303 110.829 116.22 110.489 116.22C110.149 116.22 109.839 116.3 109.559 116.46C109.279 116.62 109.056 116.853 108.889 117.16C108.723 117.467 108.639 117.827 108.639 118.24C108.639 118.66 108.723 119.027 108.889 119.34C109.056 119.647 109.279 119.883 109.559 120.05C109.839 120.21 110.149 120.29 110.489 120.29C110.829 120.29 111.139 120.21 111.419 120.05C111.706 119.883 111.933 119.647 112.099 119.34C112.266 119.027 112.349 118.663 112.349 118.25ZM124.063 115.42C124.49 115.42 124.87 115.51 125.203 115.69C125.536 115.863 125.8 116.127 125.993 116.48C126.186 116.833 126.283 117.263 126.283 117.77V121H125.383V117.9C125.383 117.353 125.246 116.937 124.973 116.65C124.706 116.357 124.343 116.21 123.883 116.21C123.41 116.21 123.033 116.363 122.753 116.67C122.473 116.97 122.333 117.407 122.333 117.98V121H121.433V117.9C121.433 117.353 121.296 116.937 121.023 116.65C120.756 116.357 120.393 116.21 119.933 116.21C119.46 116.21 119.083 116.363 118.803 116.67C118.523 116.97 118.383 117.407 118.383 117.98V121H117.473V115.52H118.383V116.31C118.563 116.023 118.803 115.803 119.103 115.65C119.41 115.497 119.746 115.42 120.113 115.42C120.573 115.42 120.98 115.523 121.333 115.73C121.686 115.937 121.95 116.24 122.123 116.64C122.276 116.253 122.53 115.953 122.883 115.74C123.236 115.527 123.63 115.42 124.063 115.42ZM127.436 118.24C127.436 117.68 127.549 117.19 127.776 116.77C128.003 116.343 128.313 116.013 128.706 115.78C129.106 115.547 129.549 115.43 130.036 115.43C130.516 115.43 130.933 115.533 131.286 115.74C131.639 115.947 131.903 116.207 132.076 116.52V115.52H132.996V121H132.076V119.98C131.896 120.3 131.626 120.567 131.266 120.78C130.913 120.987 130.499 121.09 130.026 121.09C129.539 121.09 129.099 120.97 128.706 120.73C128.313 120.49 128.003 120.153 127.776 119.72C127.549 119.287 127.436 118.793 127.436 118.24ZM132.076 118.25C132.076 117.837 131.993 117.477 131.826 117.17C131.659 116.863 131.433 116.63 131.146 116.47C130.866 116.303 130.556 116.22 130.216 116.22C129.876 116.22 129.566 116.3 129.286 116.46C129.006 116.62 128.783 116.853 128.616 117.16C128.449 117.467 128.366 117.827 128.366 118.24C128.366 118.66 128.449 119.027 128.616 119.34C128.783 119.647 129.006 119.883 129.286 120.05C129.566 120.21 129.876 120.29 130.216 120.29C130.556 120.29 130.866 120.21 131.146 120.05C131.433 119.883 131.659 119.647 131.826 119.34C131.993 119.027 132.076 118.663 132.076 118.25ZM135.644 116.27V119.5C135.644 119.767 135.7 119.957 135.814 120.07C135.927 120.177 136.124 120.23 136.404 120.23H137.074V121H136.254C135.747 121 135.367 120.883 135.114 120.65C134.86 120.417 134.734 120.033 134.734 119.5V116.27H134.024V115.52H134.734V114.14H135.644V115.52H137.074V116.27H135.644ZM137.836 118.25C137.836 117.683 137.95 117.19 138.176 116.77C138.403 116.343 138.716 116.013 139.116 115.78C139.523 115.547 139.986 115.43 140.506 115.43C141.18 115.43 141.733 115.593 142.166 115.92C142.606 116.247 142.896 116.7 143.036 117.28H142.056C141.963 116.947 141.78 116.683 141.506 116.49C141.24 116.297 140.906 116.2 140.506 116.2C139.986 116.2 139.566 116.38 139.246 116.74C138.926 117.093 138.766 117.597 138.766 118.25C138.766 118.91 138.926 119.42 139.246 119.78C139.566 120.14 139.986 120.32 140.506 120.32C140.906 120.32 141.24 120.227 141.506 120.04C141.773 119.853 141.956 119.587 142.056 119.24H143.036C142.89 119.8 142.596 120.25 142.156 120.59C141.716 120.923 141.166 121.09 140.506 121.09C139.986 121.09 139.523 120.973 139.116 120.74C138.716 120.507 138.403 120.177 138.176 119.75C137.95 119.323 137.836 118.823 137.836 118.25ZM146.97 115.42C147.384 115.42 147.757 115.51 148.09 115.69C148.424 115.863 148.684 116.127 148.87 116.48C149.064 116.833 149.16 117.263 149.16 117.77V121H148.26V117.9C148.26 117.353 148.124 116.937 147.85 116.65C147.577 116.357 147.204 116.21 146.73 116.21C146.25 116.21 145.867 116.36 145.58 116.66C145.3 116.96 145.16 117.397 145.16 117.97V121H144.25V113.6H145.16V116.3C145.34 116.02 145.587 115.803 145.9 115.65C146.22 115.497 146.577 115.42 146.97 115.42ZM160.613 115.52L158.903 121H157.963L156.643 116.65L155.323 121H154.383L152.663 115.52H153.593L154.853 120.12L156.213 115.52H157.143L158.473 120.13L159.713 115.52H160.613ZM161.986 114.63C161.813 114.63 161.666 114.57 161.546 114.45C161.426 114.33 161.366 114.183 161.366 114.01C161.366 113.837 161.426 113.69 161.546 113.57C161.666 113.45 161.813 113.39 161.986 113.39C162.153 113.39 162.293 113.45 162.406 113.57C162.526 113.69 162.586 113.837 162.586 114.01C162.586 114.183 162.526 114.33 162.406 114.45C162.293 114.57 162.153 114.63 161.986 114.63ZM162.426 115.52V121H161.516V115.52H162.426ZM165.087 116.27V119.5C165.087 119.767 165.144 119.957 165.257 120.07C165.37 120.177 165.567 120.23 165.847 120.23H166.517V121H165.697C165.19 121 164.81 120.883 164.557 120.65C164.304 120.417 164.177 120.033 164.177 119.5V116.27H163.467V115.52H164.177V114.14H165.087V115.52H166.517V116.27H165.087ZM170.34 115.42C170.753 115.42 171.126 115.51 171.46 115.69C171.793 115.863 172.053 116.127 172.24 116.48C172.433 116.833 172.53 117.263 172.53 117.77V121H171.63V117.9C171.63 117.353 171.493 116.937 171.22 116.65C170.946 116.357 170.573 116.21 170.1 116.21C169.62 116.21 169.236 116.36 168.95 116.66C168.67 116.96 168.53 117.397 168.53 117.97V121H167.62V113.6H168.53V116.3C168.71 116.02 168.956 115.803 169.27 115.65C169.59 115.497 169.946 115.42 170.34 115.42ZM176.406 121.09C175.893 121.09 175.426 120.973 175.006 120.74C174.593 120.507 174.266 120.177 174.026 119.75C173.793 119.317 173.676 118.817 173.676 118.25C173.676 117.69 173.796 117.197 174.036 116.77C174.283 116.337 174.616 116.007 175.036 115.78C175.456 115.547 175.926 115.43 176.446 115.43C176.966 115.43 177.436 115.547 177.856 115.78C178.276 116.007 178.606 116.333 178.846 116.76C179.093 117.187 179.216 117.683 179.216 118.25C179.216 118.817 179.089 119.317 178.836 119.75C178.589 120.177 178.253 120.507 177.826 120.74C177.399 120.973 176.926 121.09 176.406 121.09ZM176.406 120.29C176.733 120.29 177.039 120.213 177.326 120.06C177.613 119.907 177.843 119.677 178.016 119.37C178.196 119.063 178.286 118.69 178.286 118.25C178.286 117.81 178.199 117.437 178.026 117.13C177.853 116.823 177.626 116.597 177.346 116.45C177.066 116.297 176.763 116.22 176.436 116.22C176.103 116.22 175.796 116.297 175.516 116.45C175.243 116.597 175.023 116.823 174.856 117.13C174.689 117.437 174.606 117.81 174.606 118.25C174.606 118.697 174.686 119.073 174.846 119.38C175.013 119.687 175.233 119.917 175.506 120.07C175.779 120.217 176.079 120.29 176.406 120.29ZM185.273 115.52V121H184.363V120.19C184.189 120.47 183.946 120.69 183.633 120.85C183.326 121.003 182.986 121.08 182.613 121.08C182.186 121.08 181.803 120.993 181.463 120.82C181.123 120.64 180.853 120.373 180.653 120.02C180.459 119.667 180.363 119.237 180.363 118.73V115.52H181.263V118.61C181.263 119.15 181.399 119.567 181.673 119.86C181.946 120.147 182.319 120.29 182.793 120.29C183.279 120.29 183.663 120.14 183.943 119.84C184.223 119.54 184.363 119.103 184.363 118.53V115.52H185.273ZM187.919 116.27V119.5C187.919 119.767 187.976 119.957 188.089 120.07C188.202 120.177 188.399 120.23 188.679 120.23H189.349V121H188.529C188.022 121 187.642 120.883 187.389 120.65C187.136 120.417 187.009 120.033 187.009 119.5V116.27H186.299V115.52H187.009V114.14H187.919V115.52H189.349V116.27H187.919ZM87.68 128.6V136H86.77V128.6H87.68ZM94.2309 133.05C94.2309 133.223 94.2209 133.407 94.2009 133.6H89.8209C89.8543 134.14 90.0376 134.563 90.3709 134.87C90.7109 135.17 91.1209 135.32 91.6009 135.32C91.9943 135.32 92.3209 135.23 92.5809 135.05C92.8476 134.863 93.0343 134.617 93.1409 134.31H94.1209C93.9743 134.837 93.6809 135.267 93.2409 135.6C92.8009 135.927 92.2543 136.09 91.6009 136.09C91.0809 136.09 90.6143 135.973 90.2009 135.74C89.7943 135.507 89.4743 135.177 89.2409 134.75C89.0076 134.317 88.8909 133.817 88.8909 133.25C88.8909 132.683 89.0043 132.187 89.2309 131.76C89.4576 131.333 89.7743 131.007 90.1809 130.78C90.5943 130.547 91.0676 130.43 91.6009 130.43C92.1209 130.43 92.5809 130.543 92.9809 130.77C93.3809 130.997 93.6876 131.31 93.9009 131.71C94.1209 132.103 94.2309 132.55 94.2309 133.05ZM93.2909 132.86C93.2909 132.513 93.2143 132.217 93.0609 131.97C92.9076 131.717 92.6976 131.527 92.4309 131.4C92.1709 131.267 91.8809 131.2 91.5609 131.2C91.1009 131.2 90.7076 131.347 90.3809 131.64C90.0609 131.933 89.8776 132.34 89.8309 132.86H93.2909ZM96.5421 131.27V134.5C96.5421 134.767 96.5988 134.957 96.7121 135.07C96.8254 135.177 97.0221 135.23 97.3021 135.23H97.9721V136H97.1521C96.6454 136 96.2654 135.883 96.0121 135.65C95.7588 135.417 95.6321 135.033 95.6321 134.5V131.27H94.9221V130.52H95.6321V129.14H96.5421V130.52H97.9721V131.27H96.5421ZM100.185 131.27V134.5C100.185 134.767 100.241 134.957 100.355 135.07C100.468 135.177 100.665 135.23 100.945 135.23H101.615V136H100.795C100.288 136 99.908 135.883 99.6547 135.65C99.4014 135.417 99.2747 135.033 99.2747 134.5V131.27H98.5647V130.52H99.2747V129.14H100.185V130.52H101.615V131.27H100.185ZM103.187 129.63C103.014 129.63 102.867 129.57 102.747 129.45C102.627 129.33 102.567 129.183 102.567 129.01C102.567 128.837 102.627 128.69 102.747 128.57C102.867 128.45 103.014 128.39 103.187 128.39C103.354 128.39 103.494 128.45 103.607 128.57C103.727 128.69 103.787 128.837 103.787 129.01C103.787 129.183 103.727 129.33 103.607 129.45C103.494 129.57 103.354 129.63 103.187 129.63ZM103.627 130.52V136H102.717V130.52H103.627ZM107.848 130.42C108.515 130.42 109.055 130.623 109.468 131.03C109.882 131.43 110.088 132.01 110.088 132.77V136H109.188V132.9C109.188 132.353 109.052 131.937 108.778 131.65C108.505 131.357 108.132 131.21 107.658 131.21C107.178 131.21 106.795 131.36 106.508 131.66C106.228 131.96 106.088 132.397 106.088 132.97V136H105.178V130.52H106.088V131.3C106.268 131.02 106.512 130.803 106.818 130.65C107.132 130.497 107.475 130.42 107.848 130.42ZM113.835 130.43C114.308 130.43 114.721 130.533 115.075 130.74C115.435 130.947 115.701 131.207 115.875 131.52V130.52H116.795V136.12C116.795 136.62 116.688 137.063 116.475 137.45C116.261 137.843 115.955 138.15 115.555 138.37C115.161 138.59 114.701 138.7 114.175 138.7C113.455 138.7 112.855 138.53 112.375 138.19C111.895 137.85 111.611 137.387 111.525 136.8H112.425C112.525 137.133 112.731 137.4 113.045 137.6C113.358 137.807 113.735 137.91 114.175 137.91C114.675 137.91 115.081 137.753 115.395 137.44C115.715 137.127 115.875 136.687 115.875 136.12V134.97C115.695 135.29 115.428 135.557 115.075 135.77C114.721 135.983 114.308 136.09 113.835 136.09C113.348 136.09 112.905 135.97 112.505 135.73C112.111 135.49 111.801 135.153 111.575 134.72C111.348 134.287 111.235 133.793 111.235 133.24C111.235 132.68 111.348 132.19 111.575 131.77C111.801 131.343 112.111 131.013 112.505 130.78C112.905 130.547 113.348 130.43 113.835 130.43ZM115.875 133.25C115.875 132.837 115.791 132.477 115.625 132.17C115.458 131.863 115.231 131.63 114.945 131.47C114.665 131.303 114.355 131.22 114.015 131.22C113.675 131.22 113.365 131.3 113.085 131.46C112.805 131.62 112.581 131.853 112.415 132.16C112.248 132.467 112.165 132.827 112.165 133.24C112.165 133.66 112.248 134.027 112.415 134.34C112.581 134.647 112.805 134.883 113.085 135.05C113.365 135.21 113.675 135.29 114.015 135.29C114.355 135.29 114.665 135.21 114.945 135.05C115.231 134.883 115.458 134.647 115.625 134.34C115.791 134.027 115.875 133.663 115.875 133.25ZM125.719 130.52L122.419 138.58H121.479L122.559 135.94L120.349 130.52H121.359L123.079 134.96L124.779 130.52H125.719ZM129.023 136.09C128.51 136.09 128.043 135.973 127.623 135.74C127.21 135.507 126.883 135.177 126.643 134.75C126.41 134.317 126.293 133.817 126.293 133.25C126.293 132.69 126.413 132.197 126.653 131.77C126.9 131.337 127.233 131.007 127.653 130.78C128.073 130.547 128.543 130.43 129.063 130.43C129.583 130.43 130.053 130.547 130.473 130.78C130.893 131.007 131.223 131.333 131.463 131.76C131.71 132.187 131.833 132.683 131.833 133.25C131.833 133.817 131.707 134.317 131.453 134.75C131.207 135.177 130.87 135.507 130.443 135.74C130.017 135.973 129.543 136.09 129.023 136.09ZM129.023 135.29C129.35 135.29 129.657 135.213 129.943 135.06C130.23 134.907 130.46 134.677 130.633 134.37C130.813 134.063 130.903 133.69 130.903 133.25C130.903 132.81 130.817 132.437 130.643 132.13C130.47 131.823 130.243 131.597 129.963 131.45C129.683 131.297 129.38 131.22 129.053 131.22C128.72 131.22 128.413 131.297 128.133 131.45C127.86 131.597 127.64 131.823 127.473 132.13C127.307 132.437 127.223 132.81 127.223 133.25C127.223 133.697 127.303 134.073 127.463 134.38C127.63 134.687 127.85 134.917 128.123 135.07C128.397 135.217 128.697 135.29 129.023 135.29ZM137.89 130.52V136H136.98V135.19C136.806 135.47 136.563 135.69 136.25 135.85C135.943 136.003 135.603 136.08 135.23 136.08C134.803 136.08 134.42 135.993 134.08 135.82C133.74 135.64 133.47 135.373 133.27 135.02C133.076 134.667 132.98 134.237 132.98 133.73V130.52H133.88V133.61C133.88 134.15 134.016 134.567 134.29 134.86C134.563 135.147 134.936 135.29 135.41 135.29C135.896 135.29 136.28 135.14 136.56 134.84C136.84 134.54 136.98 134.103 136.98 133.53V130.52H137.89ZM140.336 131.41C140.496 131.097 140.723 130.853 141.016 130.68C141.316 130.507 141.68 130.42 142.106 130.42V131.36H141.866C140.846 131.36 140.336 131.913 140.336 133.02V136H139.426V130.52H140.336V131.41ZM89.16 151.09C88.6467 151.09 88.18 150.973 87.76 150.74C87.3467 150.507 87.02 150.177 86.78 149.75C86.5467 149.317 86.43 148.817 86.43 148.25C86.43 147.69 86.55 147.197 86.79 146.77C87.0367 146.337 87.37 146.007 87.79 145.78C88.21 145.547 88.68 145.43 89.2 145.43C89.72 145.43 90.19 145.547 90.61 145.78C91.03 146.007 91.36 146.333 91.6 146.76C91.8467 147.187 91.97 147.683 91.97 148.25C91.97 148.817 91.8433 149.317 91.59 149.75C91.3433 150.177 91.0067 150.507 90.58 150.74C90.1533 150.973 89.68 151.09 89.16 151.09ZM89.16 150.29C89.4867 150.29 89.7933 150.213 90.08 150.06C90.3667 149.907 90.5967 149.677 90.77 149.37C90.95 149.063 91.04 148.69 91.04 148.25C91.04 147.81 90.9533 147.437 90.78 147.13C90.6067 146.823 90.38 146.597 90.1 146.45C89.82 146.297 89.5167 146.22 89.19 146.22C88.8567 146.22 88.55 146.297 88.27 146.45C87.9967 146.597 87.7767 146.823 87.61 147.13C87.4433 147.437 87.36 147.81 87.36 148.25C87.36 148.697 87.44 149.073 87.6 149.38C87.7667 149.687 87.9867 149.917 88.26 150.07C88.5333 150.217 88.8333 150.29 89.16 150.29ZM94.0765 146.53C94.2565 146.217 94.5232 145.957 94.8765 145.75C95.2365 145.537 95.6532 145.43 96.1265 145.43C96.6132 145.43 97.0532 145.547 97.4465 145.78C97.8465 146.013 98.1598 146.343 98.3865 146.77C98.6132 147.19 98.7265 147.68 98.7265 148.24C98.7265 148.793 98.6132 149.287 98.3865 149.72C98.1598 150.153 97.8465 150.49 97.4465 150.73C97.0532 150.97 96.6132 151.09 96.1265 151.09C95.6598 151.09 95.2465 150.987 94.8865 150.78C94.5332 150.567 94.2632 150.303 94.0765 149.99V153.6H93.1665V145.52H94.0765V146.53ZM97.7965 148.24C97.7965 147.827 97.7132 147.467 97.5465 147.16C97.3798 146.853 97.1532 146.62 96.8665 146.46C96.5865 146.3 96.2765 146.22 95.9365 146.22C95.6032 146.22 95.2932 146.303 95.0065 146.47C94.7265 146.63 94.4998 146.867 94.3265 147.18C94.1598 147.487 94.0765 147.843 94.0765 148.25C94.0765 148.663 94.1598 149.027 94.3265 149.34C94.4998 149.647 94.7265 149.883 95.0065 150.05C95.2932 150.21 95.6032 150.29 95.9365 150.29C96.2765 150.29 96.5865 150.21 96.8665 150.05C97.1532 149.883 97.3798 149.647 97.5465 149.34C97.7132 149.027 97.7965 148.66 97.7965 148.24ZM100.834 146.53C101.014 146.217 101.281 145.957 101.634 145.75C101.994 145.537 102.411 145.43 102.884 145.43C103.371 145.43 103.811 145.547 104.204 145.78C104.604 146.013 104.918 146.343 105.144 146.77C105.371 147.19 105.484 147.68 105.484 148.24C105.484 148.793 105.371 149.287 105.144 149.72C104.918 150.153 104.604 150.49 104.204 150.73C103.811 150.97 103.371 151.09 102.884 151.09C102.418 151.09 102.004 150.987 101.644 150.78C101.291 150.567 101.021 150.303 100.834 149.99V153.6H99.9243V145.52H100.834V146.53ZM104.554 148.24C104.554 147.827 104.471 147.467 104.304 147.16C104.138 146.853 103.911 146.62 103.624 146.46C103.344 146.3 103.034 146.22 102.694 146.22C102.361 146.22 102.051 146.303 101.764 146.47C101.484 146.63 101.258 146.867 101.084 147.18C100.918 147.487 100.834 147.843 100.834 148.25C100.834 148.663 100.918 149.027 101.084 149.34C101.258 149.647 101.484 149.883 101.764 150.05C102.051 150.21 102.361 150.29 102.694 150.29C103.034 150.29 103.344 150.21 103.624 150.05C103.911 149.883 104.138 149.647 104.304 149.34C104.471 149.027 104.554 148.66 104.554 148.24ZM109.072 151.09C108.559 151.09 108.092 150.973 107.672 150.74C107.259 150.507 106.932 150.177 106.692 149.75C106.459 149.317 106.342 148.817 106.342 148.25C106.342 147.69 106.462 147.197 106.702 146.77C106.949 146.337 107.282 146.007 107.702 145.78C108.122 145.547 108.592 145.43 109.112 145.43C109.632 145.43 110.102 145.547 110.522 145.78C110.942 146.007 111.272 146.333 111.512 146.76C111.759 147.187 111.882 147.683 111.882 148.25C111.882 148.817 111.755 149.317 111.502 149.75C111.255 150.177 110.919 150.507 110.492 150.74C110.065 150.973 109.592 151.09 109.072 151.09ZM109.072 150.29C109.399 150.29 109.705 150.213 109.992 150.06C110.279 149.907 110.509 149.677 110.682 149.37C110.862 149.063 110.952 148.69 110.952 148.25C110.952 147.81 110.865 147.437 110.692 147.13C110.519 146.823 110.292 146.597 110.012 146.45C109.732 146.297 109.429 146.22 109.102 146.22C108.769 146.22 108.462 146.297 108.182 146.45C107.909 146.597 107.689 146.823 107.522 147.13C107.355 147.437 107.272 147.81 107.272 148.25C107.272 148.697 107.352 149.073 107.512 149.38C107.679 149.687 107.899 149.917 108.172 150.07C108.445 150.217 108.745 150.29 109.072 150.29ZM115.749 145.42C116.415 145.42 116.955 145.623 117.369 146.03C117.782 146.43 117.989 147.01 117.989 147.77V151H117.089V147.9C117.089 147.353 116.952 146.937 116.679 146.65C116.405 146.357 116.032 146.21 115.559 146.21C115.079 146.21 114.695 146.36 114.409 146.66C114.129 146.96 113.989 147.397 113.989 147.97V151H113.079V145.52H113.989V146.3C114.169 146.02 114.412 145.803 114.719 145.65C115.032 145.497 115.375 145.42 115.749 145.42ZM124.475 148.05C124.475 148.223 124.465 148.407 124.445 148.6H120.065C120.098 149.14 120.282 149.563 120.615 149.87C120.955 150.17 121.365 150.32 121.845 150.32C122.238 150.32 122.565 150.23 122.825 150.05C123.092 149.863 123.278 149.617 123.385 149.31H124.365C124.218 149.837 123.925 150.267 123.485 150.6C123.045 150.927 122.498 151.09 121.845 151.09C121.325 151.09 120.858 150.973 120.445 150.74C120.038 150.507 119.718 150.177 119.485 149.75C119.252 149.317 119.135 148.817 119.135 148.25C119.135 147.683 119.248 147.187 119.475 146.76C119.702 146.333 120.018 146.007 120.425 145.78C120.838 145.547 121.312 145.43 121.845 145.43C122.365 145.43 122.825 145.543 123.225 145.77C123.625 145.997 123.932 146.31 124.145 146.71C124.365 147.103 124.475 147.55 124.475 148.05ZM123.535 147.86C123.535 147.513 123.458 147.217 123.305 146.97C123.152 146.717 122.942 146.527 122.675 146.4C122.415 146.267 122.125 146.2 121.805 146.2C121.345 146.2 120.952 146.347 120.625 146.64C120.305 146.933 120.122 147.34 120.075 147.86H123.535ZM128.346 145.42C129.013 145.42 129.553 145.623 129.966 146.03C130.38 146.43 130.586 147.01 130.586 147.77V151H129.686V147.9C129.686 147.353 129.55 146.937 129.276 146.65C129.003 146.357 128.63 146.21 128.156 146.21C127.676 146.21 127.293 146.36 127.006 146.66C126.726 146.96 126.586 147.397 126.586 147.97V151H125.676V145.52H126.586V146.3C126.766 146.02 127.01 145.803 127.316 145.65C127.63 145.497 127.973 145.42 128.346 145.42ZM133.183 146.27V149.5C133.183 149.767 133.239 149.957 133.353 150.07C133.466 150.177 133.663 150.23 133.943 150.23H134.613V151H133.793C133.286 151 132.906 150.883 132.653 150.65C132.399 150.417 132.273 150.033 132.273 149.5V146.27H131.563V145.52H132.273V144.14H133.183V145.52H134.613V146.27H133.183ZM139.291 146.41C139.451 146.097 139.678 145.853 139.971 145.68C140.271 145.507 140.635 145.42 141.061 145.42V146.36H140.821C139.801 146.36 139.291 146.913 139.291 148.02V151H138.381V145.52H139.291V146.41ZM147.112 148.05C147.112 148.223 147.102 148.407 147.082 148.6H142.702C142.735 149.14 142.918 149.563 143.252 149.87C143.592 150.17 144.002 150.32 144.482 150.32C144.875 150.32 145.202 150.23 145.462 150.05C145.728 149.863 145.915 149.617 146.022 149.31H147.002C146.855 149.837 146.562 150.267 146.122 150.6C145.682 150.927 145.135 151.09 144.482 151.09C143.962 151.09 143.495 150.973 143.082 150.74C142.675 150.507 142.355 150.177 142.122 149.75C141.888 149.317 141.772 148.817 141.772 148.25C141.772 147.683 141.885 147.187 142.112 146.76C142.338 146.333 142.655 146.007 143.062 145.78C143.475 145.547 143.948 145.43 144.482 145.43C145.002 145.43 145.462 145.543 145.862 145.77C146.262 145.997 146.568 146.31 146.782 146.71C147.002 147.103 147.112 147.55 147.112 148.05ZM146.172 147.86C146.172 147.513 146.095 147.217 145.942 146.97C145.788 146.717 145.578 146.527 145.312 146.4C145.052 146.267 144.762 146.2 144.442 146.2C143.982 146.2 143.588 146.347 143.262 146.64C142.942 146.933 142.758 147.34 142.712 147.86H146.172ZM149.423 146.27V149.5C149.423 149.767 149.48 149.957 149.593 150.07C149.706 150.177 149.903 150.23 150.183 150.23H150.853V151H150.033C149.526 151 149.146 150.883 148.893 150.65C148.64 150.417 148.513 150.033 148.513 149.5V146.27H147.803V145.52H148.513V144.14H149.423V145.52H150.853V146.27H149.423ZM156.816 145.52V151H155.906V150.19C155.732 150.47 155.489 150.69 155.176 150.85C154.869 151.003 154.529 151.08 154.156 151.08C153.729 151.08 153.346 150.993 153.006 150.82C152.666 150.64 152.396 150.373 152.196 150.02C152.002 149.667 151.906 149.237 151.906 148.73V145.52H152.806V148.61C152.806 149.15 152.942 149.567 153.216 149.86C153.489 150.147 153.862 150.29 154.336 150.29C154.822 150.29 155.206 150.14 155.486 149.84C155.766 149.54 155.906 149.103 155.906 148.53V145.52H156.816ZM159.262 146.41C159.422 146.097 159.649 145.853 159.942 145.68C160.242 145.507 160.605 145.42 161.032 145.42V146.36H160.792C159.772 146.36 159.262 146.913 159.262 148.02V151H158.352V145.52H159.262V146.41ZM164.753 145.42C165.419 145.42 165.959 145.623 166.373 146.03C166.786 146.43 166.993 147.01 166.993 147.77V151H166.093V147.9C166.093 147.353 165.956 146.937 165.683 146.65C165.409 146.357 165.036 146.21 164.563 146.21C164.083 146.21 163.699 146.36 163.413 146.66C163.133 146.96 162.993 147.397 162.993 147.97V151H162.083V145.52H162.993V146.3C163.173 146.02 163.416 145.803 163.723 145.65C164.036 145.497 164.379 145.42 164.753 145.42ZM91.49 160.52L88.19 168.58H87.25L88.33 165.94L86.12 160.52H87.13L88.85 164.96L90.55 160.52H91.49ZM94.7948 166.09C94.2814 166.09 93.8148 165.973 93.3948 165.74C92.9814 165.507 92.6548 165.177 92.4148 164.75C92.1814 164.317 92.0648 163.817 92.0648 163.25C92.0648 162.69 92.1848 162.197 92.4248 161.77C92.6714 161.337 93.0048 161.007 93.4248 160.78C93.8448 160.547 94.3148 160.43 94.8348 160.43C95.3548 160.43 95.8248 160.547 96.2448 160.78C96.6648 161.007 96.9948 161.333 97.2348 161.76C97.4814 162.187 97.6048 162.683 97.6048 163.25C97.6048 163.817 97.4781 164.317 97.2248 164.75C96.9781 165.177 96.6414 165.507 96.2148 165.74C95.7881 165.973 95.3148 166.09 94.7948 166.09ZM94.7948 165.29C95.1214 165.29 95.4281 165.213 95.7148 165.06C96.0014 164.907 96.2314 164.677 96.4048 164.37C96.5848 164.063 96.6748 163.69 96.6748 163.25C96.6748 162.81 96.5881 162.437 96.4148 162.13C96.2414 161.823 96.0148 161.597 95.7348 161.45C95.4548 161.297 95.1514 161.22 94.8248 161.22C94.4914 161.22 94.1848 161.297 93.9048 161.45C93.6314 161.597 93.4114 161.823 93.2448 162.13C93.0781 162.437 92.9948 162.81 92.9948 163.25C92.9948 163.697 93.0748 164.073 93.2348 164.38C93.4014 164.687 93.6214 164.917 93.8948 165.07C94.1681 165.217 94.4681 165.29 94.7948 165.29ZM103.661 160.52V166H102.751V165.19C102.578 165.47 102.335 165.69 102.021 165.85C101.715 166.003 101.375 166.08 101.001 166.08C100.575 166.08 100.191 165.993 99.8513 165.82C99.5113 165.64 99.2413 165.373 99.0413 165.02C98.8479 164.667 98.7513 164.237 98.7513 163.73V160.52H99.6513V163.61C99.6513 164.15 99.7879 164.567 100.061 164.86C100.335 165.147 100.708 165.29 101.181 165.29C101.668 165.29 102.051 165.14 102.331 164.84C102.611 164.54 102.751 164.103 102.751 163.53V160.52H103.661ZM106.108 161.41C106.268 161.097 106.494 160.853 106.788 160.68C107.088 160.507 107.451 160.42 107.878 160.42V161.36H107.638C106.618 161.36 106.108 161.913 106.108 163.02V166H105.198V160.52H106.108V161.41ZM113.534 166.09C113.114 166.09 112.738 166.02 112.404 165.88C112.071 165.733 111.808 165.533 111.614 165.28C111.421 165.02 111.314 164.723 111.294 164.39H112.234C112.261 164.663 112.388 164.887 112.614 165.06C112.848 165.233 113.151 165.32 113.524 165.32C113.871 165.32 114.144 165.243 114.344 165.09C114.544 164.937 114.644 164.743 114.644 164.51C114.644 164.27 114.538 164.093 114.324 163.98C114.111 163.86 113.781 163.743 113.334 163.63C112.928 163.523 112.594 163.417 112.334 163.31C112.081 163.197 111.861 163.033 111.674 162.82C111.494 162.6 111.404 162.313 111.404 161.96C111.404 161.68 111.488 161.423 111.654 161.19C111.821 160.957 112.058 160.773 112.364 160.64C112.671 160.5 113.021 160.43 113.414 160.43C114.021 160.43 114.511 160.583 114.884 160.89C115.258 161.197 115.458 161.617 115.484 162.15H114.574C114.554 161.863 114.438 161.633 114.224 161.46C114.018 161.287 113.738 161.2 113.384 161.2C113.058 161.2 112.798 161.27 112.604 161.41C112.411 161.55 112.314 161.733 112.314 161.96C112.314 162.14 112.371 162.29 112.484 162.41C112.604 162.523 112.751 162.617 112.924 162.69C113.104 162.757 113.351 162.833 113.664 162.92C114.058 163.027 114.378 163.133 114.624 163.24C114.871 163.34 115.081 163.493 115.254 163.7C115.434 163.907 115.528 164.177 115.534 164.51C115.534 164.81 115.451 165.08 115.284 165.32C115.118 165.56 114.881 165.75 114.574 165.89C114.274 166.023 113.928 166.09 113.534 166.09ZM121.819 163.05C121.819 163.223 121.809 163.407 121.789 163.6H117.409C117.442 164.14 117.625 164.563 117.959 164.87C118.299 165.17 118.709 165.32 119.189 165.32C119.582 165.32 119.909 165.23 120.169 165.05C120.435 164.863 120.622 164.617 120.729 164.31H121.709C121.562 164.837 121.269 165.267 120.829 165.6C120.389 165.927 119.842 166.09 119.189 166.09C118.669 166.09 118.202 165.973 117.789 165.74C117.382 165.507 117.062 165.177 116.829 164.75C116.595 164.317 116.479 163.817 116.479 163.25C116.479 162.683 116.592 162.187 116.819 161.76C117.045 161.333 117.362 161.007 117.769 160.78C118.182 160.547 118.655 160.43 119.189 160.43C119.709 160.43 120.169 160.543 120.569 160.77C120.969 160.997 121.275 161.31 121.489 161.71C121.709 162.103 121.819 162.55 121.819 163.05ZM120.879 162.86C120.879 162.513 120.802 162.217 120.649 161.97C120.495 161.717 120.285 161.527 120.019 161.4C119.759 161.267 119.469 161.2 119.149 161.2C118.689 161.2 118.295 161.347 117.969 161.64C117.649 161.933 117.465 162.34 117.419 162.86H120.879ZM123.93 161.41C124.09 161.097 124.317 160.853 124.61 160.68C124.91 160.507 125.273 160.42 125.7 160.42V161.36H125.46C124.44 161.36 123.93 161.913 123.93 163.02V166H123.02V160.52H123.93V161.41ZM128.79 165.16L130.49 160.52H131.46L129.31 166H128.25L126.1 160.52H127.08L128.79 165.16ZM137.356 163.05C137.356 163.223 137.346 163.407 137.326 163.6H132.946C132.979 164.14 133.163 164.563 133.496 164.87C133.836 165.17 134.246 165.32 134.726 165.32C135.119 165.32 135.446 165.23 135.706 165.05C135.973 164.863 136.159 164.617 136.266 164.31H137.246C137.099 164.837 136.806 165.267 136.366 165.6C135.926 165.927 135.379 166.09 134.726 166.09C134.206 166.09 133.739 165.973 133.326 165.74C132.919 165.507 132.599 165.177 132.366 164.75C132.133 164.317 132.016 163.817 132.016 163.25C132.016 162.683 132.129 162.187 132.356 161.76C132.583 161.333 132.899 161.007 133.306 160.78C133.719 160.547 134.193 160.43 134.726 160.43C135.246 160.43 135.706 160.543 136.106 160.77C136.506 160.997 136.813 161.31 137.026 161.71C137.246 162.103 137.356 162.55 137.356 163.05ZM136.416 162.86C136.416 162.513 136.339 162.217 136.186 161.97C136.033 161.717 135.823 161.527 135.556 161.4C135.296 161.267 135.006 161.2 134.686 161.2C134.226 161.2 133.833 161.347 133.506 161.64C133.186 161.933 133.003 162.34 132.956 162.86H136.416Z" fill="#CBB370"/>
</svg>
