<svg width="11" height="10" viewBox="0 0 11 10" fill="none" xmlns="http://www.w3.org/2000/svg">
<path d="M3.75 6.58694C5.7834 6.58694 7.5 6.93914 7.5 8.29934C7.5 9.65955 5.77239 10 3.75 10C1.7166 10 0 9.64728 0 8.2876C0 6.9274 1.72711 6.58694 3.75 6.58694ZM3.75 0C5.12729 0 6.23132 1.17717 6.23132 2.64571C6.23132 4.11424 5.12729 5.29141 3.75 5.29141C2.37271 5.29141 1.26868 4.11424 1.26868 2.64571C1.26868 1.17717 2.37271 0 3.75 0Z" fill="white"/>
<path fill-rule="evenodd" clip-rule="evenodd" d="M9 3.70588C8.77292 3.70586 8.54982 3.76559 8.35313 3.87908C8.15644 3.99256 7.99307 4.15581 7.87944 4.35241C7.7658 4.54902 7.7059 4.77207 7.70575 4.99915C7.7056 5.22624 7.76521 5.44936 7.87859 5.64612L9.64612 3.87859C9.44973 3.76509 9.22683 3.70551 9 3.70588ZM10.1388 4.38447L8.38447 6.13882C8.62968 6.27169 8.91125 6.32179 9.18725 6.28166C9.46324 6.24152 9.71888 6.1133 9.91609 5.91609C10.1133 5.71888 10.2415 5.46324 10.2817 5.18725C10.3218 4.91125 10.2717 4.62968 10.1388 4.38447ZM7 5C7 4.73736 7.05173 4.47728 7.15224 4.23463C7.25275 3.99198 7.40007 3.7715 7.58579 3.58579C7.7715 3.40007 7.99198 3.25275 8.23463 3.15224C8.47728 3.05173 8.73736 3 9 3C9.26264 3 9.52272 3.05173 9.76537 3.15224C10.008 3.25275 10.2285 3.40007 10.4142 3.58579C10.5999 3.7715 10.7473 3.99198 10.8478 4.23463C10.9483 4.47728 11 4.73736 11 5C11 5.53043 10.7893 6.03914 10.4142 6.41421C10.0391 6.78929 9.53043 7 9 7C8.46957 7 7.96086 6.78929 7.58579 6.41421C7.21071 6.03914 7 5.53043 7 5Z" fill="white"/>
</svg>
