<svg width="197" height="231" viewBox="0 0 197 231" fill="none" xmlns="http://www.w3.org/2000/svg">
<path d="M15.8618 53.0312L81.535 11.6094C92.7552 4.53253 107.067 4.62764 118.192 11.853L181.519 52.9812C191.174 59.2518 197 69.9825 197 81.4953V152.29C197 164.099 190.873 175.062 180.815 181.249L117.498 220.2C106.708 226.838 93.1217 226.926 82.2459 220.428L16.5624 181.187C6.29009 175.05 0 163.965 0 151.999V81.7889C0 70.1156 5.98842 59.2585 15.8618 53.0312Z" fill="#EEFFF1"/>
<path d="M89.792 95.24C90.4427 95.3787 90.9653 95.704 91.36 96.216C91.7547 96.7173 91.952 97.2933 91.952 97.944C91.952 98.8827 91.6213 99.6293 90.96 100.184C90.3093 100.728 89.3973 101 88.224 101H82.992V89.768H88.048C89.1893 89.768 90.08 90.0293 90.72 90.552C91.3707 91.0747 91.696 91.784 91.696 92.68C91.696 93.3413 91.52 93.8907 91.168 94.328C90.8267 94.7653 90.368 95.0693 89.792 95.24ZM85.728 94.312H87.52C87.968 94.312 88.3093 94.216 88.544 94.024C88.7893 93.8213 88.912 93.528 88.912 93.144C88.912 92.76 88.7893 92.4667 88.544 92.264C88.3093 92.0613 87.968 91.96 87.52 91.96H85.728V94.312ZM87.744 98.792C88.2027 98.792 88.5547 98.6907 88.8 98.488C89.056 98.2747 89.184 97.9707 89.184 97.576C89.184 97.1813 89.0507 96.872 88.784 96.648C88.528 96.424 88.1707 96.312 87.712 96.312H85.728V98.792H87.744ZM101.955 96.392C101.955 96.648 101.939 96.9147 101.907 97.192H95.7149C95.7575 97.7467 95.9335 98.1733 96.2429 98.472C96.5629 98.76 96.9522 98.904 97.4109 98.904C98.0935 98.904 98.5682 98.616 98.8349 98.04H101.747C101.598 98.6267 101.326 99.1547 100.931 99.624C100.547 100.093 100.062 100.461 99.4749 100.728C98.8882 100.995 98.2322 101.128 97.5069 101.128C96.6322 101.128 95.8535 100.941 95.1709 100.568C94.4882 100.195 93.9549 99.6613 93.5709 98.968C93.1869 98.2747 92.9949 97.464 92.9949 96.536C92.9949 95.608 93.1815 94.7973 93.5549 94.104C93.9389 93.4107 94.4722 92.8773 95.1549 92.504C95.8375 92.1307 96.6215 91.944 97.5069 91.944C98.3709 91.944 99.1389 92.1253 99.8109 92.488C100.483 92.8507 101.006 93.368 101.379 94.04C101.763 94.712 101.955 95.496 101.955 96.392ZM99.1549 95.672C99.1549 95.2027 98.9949 94.8293 98.6749 94.552C98.3549 94.2747 97.9549 94.136 97.4749 94.136C97.0162 94.136 96.6269 94.2693 96.3069 94.536C95.9975 94.8027 95.8055 95.1813 95.7309 95.672H99.1549ZM106.79 91.944C107.42 91.944 107.969 92.072 108.438 92.328C108.918 92.584 109.286 92.92 109.542 93.336V92.072H112.278V100.984C112.278 101.805 112.113 102.547 111.782 103.208C111.462 103.88 110.966 104.413 110.294 104.808C109.633 105.203 108.806 105.4 107.814 105.4C106.492 105.4 105.42 105.085 104.598 104.456C103.777 103.837 103.308 102.995 103.19 101.928H105.894C105.98 102.269 106.182 102.536 106.502 102.728C106.822 102.931 107.217 103.032 107.686 103.032C108.252 103.032 108.7 102.867 109.03 102.536C109.372 102.216 109.542 101.699 109.542 100.984V99.72C109.276 100.136 108.908 100.477 108.438 100.744C107.969 101 107.42 101.128 106.79 101.128C106.054 101.128 105.388 100.941 104.79 100.568C104.193 100.184 103.718 99.6453 103.366 98.952C103.025 98.248 102.854 97.4373 102.854 96.52C102.854 95.6027 103.025 94.7973 103.366 94.104C103.718 93.4107 104.193 92.8773 104.79 92.504C105.388 92.1307 106.054 91.944 106.79 91.944ZM109.542 96.536C109.542 95.8533 109.35 95.3147 108.966 94.92C108.593 94.5253 108.134 94.328 107.59 94.328C107.046 94.328 106.582 94.5253 106.198 94.92C105.825 95.304 105.638 95.8373 105.638 96.52C105.638 97.2027 105.825 97.7467 106.198 98.152C106.582 98.5467 107.046 98.744 107.59 98.744C108.134 98.744 108.593 98.5467 108.966 98.152C109.35 97.7573 109.542 97.2187 109.542 96.536ZM115.634 91.144C115.154 91.144 114.759 91.0053 114.45 90.728C114.151 90.44 114.002 90.088 114.002 89.672C114.002 89.2453 114.151 88.8933 114.45 88.616C114.759 88.328 115.154 88.184 115.634 88.184C116.103 88.184 116.487 88.328 116.786 88.616C117.095 88.8933 117.25 89.2453 117.25 89.672C117.25 90.088 117.095 90.44 116.786 90.728C116.487 91.0053 116.103 91.144 115.634 91.144ZM116.994 92.072V101H114.258V92.072H116.994ZM124.416 91.976C125.462 91.976 126.294 92.3173 126.912 93C127.542 93.672 127.856 94.6 127.856 95.784V101H125.136V96.152C125.136 95.5547 124.982 95.0907 124.672 94.76C124.363 94.4293 123.947 94.264 123.424 94.264C122.902 94.264 122.486 94.4293 122.176 94.76C121.867 95.0907 121.712 95.5547 121.712 96.152V101H118.976V92.072H121.712V93.256C121.99 92.8613 122.363 92.552 122.832 92.328C123.302 92.0933 123.83 91.976 124.416 91.976ZM135.198 91.976C136.243 91.976 137.075 92.3173 137.694 93C138.323 93.672 138.638 94.6 138.638 95.784V101H135.918V96.152C135.918 95.5547 135.763 95.0907 135.454 94.76C135.144 94.4293 134.728 94.264 134.206 94.264C133.683 94.264 133.267 94.4293 132.958 94.76C132.648 95.0907 132.494 95.5547 132.494 96.152V101H129.758V92.072H132.494V93.256C132.771 92.8613 133.144 92.552 133.614 92.328C134.083 92.0933 134.611 91.976 135.198 91.976ZM148.955 96.392C148.955 96.648 148.939 96.9147 148.907 97.192H142.715C142.758 97.7467 142.934 98.1733 143.243 98.472C143.563 98.76 143.952 98.904 144.411 98.904C145.094 98.904 145.568 98.616 145.835 98.04H148.747C148.598 98.6267 148.326 99.1547 147.931 99.624C147.547 100.093 147.062 100.461 146.475 100.728C145.888 100.995 145.232 101.128 144.507 101.128C143.632 101.128 142.854 100.941 142.171 100.568C141.488 100.195 140.955 99.6613 140.571 98.968C140.187 98.2747 139.995 97.464 139.995 96.536C139.995 95.608 140.182 94.7973 140.555 94.104C140.939 93.4107 141.472 92.8773 142.155 92.504C142.838 92.1307 143.622 91.944 144.507 91.944C145.371 91.944 146.139 92.1253 146.811 92.488C147.483 92.8507 148.006 93.368 148.379 94.04C148.763 94.712 148.955 95.496 148.955 96.392ZM146.155 95.672C146.155 95.2027 145.995 94.8293 145.675 94.552C145.355 94.2747 144.955 94.136 144.475 94.136C144.016 94.136 143.627 94.2693 143.307 94.536C142.998 94.8027 142.806 95.1813 142.731 95.672H146.155ZM153.134 93.56C153.454 93.0693 153.854 92.6853 154.334 92.408C154.814 92.12 155.348 91.976 155.934 91.976V94.872H155.182C154.5 94.872 153.988 95.0213 153.646 95.32C153.305 95.608 153.134 96.12 153.134 96.856V101H150.398V92.072H153.134V93.56ZM159.146 88.2L158.938 91.736H157.098L156.89 88.2H159.146ZM164.405 101.128C163.627 101.128 162.933 100.995 162.325 100.728C161.717 100.461 161.237 100.099 160.885 99.64C160.533 99.1707 160.336 98.648 160.293 98.072H162.997C163.029 98.3813 163.173 98.632 163.429 98.824C163.685 99.016 164 99.112 164.373 99.112C164.715 99.112 164.976 99.048 165.157 98.92C165.349 98.7813 165.445 98.6053 165.445 98.392C165.445 98.136 165.312 97.9493 165.045 97.832C164.779 97.704 164.347 97.5653 163.749 97.416C163.109 97.2667 162.576 97.112 162.149 96.952C161.723 96.7813 161.355 96.52 161.045 96.168C160.736 95.8053 160.581 95.32 160.581 94.712C160.581 94.2 160.72 93.736 160.997 93.32C161.285 92.8933 161.701 92.5573 162.245 92.312C162.8 92.0667 163.456 91.944 164.213 91.944C165.333 91.944 166.213 92.2213 166.853 92.776C167.504 93.3307 167.877 94.0667 167.973 94.984H165.445C165.403 94.6747 165.264 94.4293 165.029 94.248C164.805 94.0667 164.507 93.976 164.133 93.976C163.813 93.976 163.568 94.04 163.397 94.168C163.227 94.2853 163.141 94.4507 163.141 94.664C163.141 94.92 163.275 95.112 163.541 95.24C163.819 95.368 164.245 95.496 164.821 95.624C165.483 95.7947 166.021 95.9653 166.437 96.136C166.853 96.296 167.216 96.5627 167.525 96.936C167.845 97.2987 168.011 97.7893 168.021 98.408C168.021 98.9307 167.872 99.4 167.573 99.816C167.285 100.221 166.864 100.541 166.309 100.776C165.765 101.011 165.131 101.128 164.405 101.128ZM85.728 122.888H89.312V125H82.992V113.768H85.728V122.888ZM99.433 116.072V125H96.697V123.784C96.4197 124.179 96.041 124.499 95.561 124.744C95.0917 124.979 94.569 125.096 93.993 125.096C93.3103 125.096 92.7077 124.947 92.185 124.648C91.6623 124.339 91.257 123.896 90.969 123.32C90.681 122.744 90.537 122.067 90.537 121.288V116.072H93.257V120.92C93.257 121.517 93.4117 121.981 93.721 122.312C94.0303 122.643 94.4463 122.808 94.969 122.808C95.5023 122.808 95.9237 122.643 96.233 122.312C96.5423 121.981 96.697 121.517 96.697 120.92V116.072H99.433ZM100.854 120.536C100.854 119.608 101.041 118.797 101.414 118.104C101.798 117.411 102.326 116.877 102.998 116.504C103.681 116.131 104.46 115.944 105.334 115.944C106.454 115.944 107.388 116.237 108.134 116.824C108.892 117.411 109.388 118.237 109.622 119.304H106.71C106.465 118.621 105.99 118.28 105.286 118.28C104.785 118.28 104.385 118.477 104.086 118.872C103.788 119.256 103.638 119.811 103.638 120.536C103.638 121.261 103.788 121.821 104.086 122.216C104.385 122.6 104.785 122.792 105.286 122.792C105.99 122.792 106.465 122.451 106.71 121.768H109.622C109.388 122.813 108.892 123.635 108.134 124.232C107.377 124.829 106.444 125.128 105.334 125.128C104.46 125.128 103.681 124.941 102.998 124.568C102.326 124.195 101.798 123.661 101.414 122.968C101.041 122.275 100.854 121.464 100.854 120.536ZM116.542 125L113.822 121.256V125H111.086V113.16H113.822V119.704L116.526 116.072H119.902L116.19 120.552L119.934 125H116.542Z" fill="#036D16"/>
<path d="M91.53 136.03L89.51 143H88.49L86.87 137.39L85.19 143L84.18 143.01L82.23 136.03H83.2L84.72 141.94L86.4 136.03H87.42L89.02 141.92L90.55 136.03H91.53ZM92.9959 136.63C92.8225 136.63 92.6759 136.57 92.5559 136.45C92.4359 136.33 92.3759 136.183 92.3759 136.01C92.3759 135.837 92.4359 135.69 92.5559 135.57C92.6759 135.45 92.8225 135.39 92.9959 135.39C93.1625 135.39 93.3025 135.45 93.4159 135.57C93.5359 135.69 93.5959 135.837 93.5959 136.01C93.5959 136.183 93.5359 136.33 93.4159 136.45C93.3025 136.57 93.1625 136.63 92.9959 136.63ZM93.4359 137.52V143H92.5259V137.52H93.4359ZM97.6568 137.42C98.3235 137.42 98.8635 137.623 99.2768 138.03C99.6901 138.43 99.8968 139.01 99.8968 139.77V143H98.9968V139.9C98.9968 139.353 98.8601 138.937 98.5868 138.65C98.3135 138.357 97.9401 138.21 97.4668 138.21C96.9868 138.21 96.6035 138.36 96.3168 138.66C96.0368 138.96 95.8968 139.397 95.8968 139.97V143H94.9868V137.52H95.8968V138.3C96.0768 138.02 96.3201 137.803 96.6268 137.65C96.9401 137.497 97.2835 137.42 97.6568 137.42ZM108.769 137.52L105.469 145.58H104.529L105.609 142.94L103.399 137.52H104.409L106.129 141.96L107.829 137.52H108.769ZM112.074 143.09C111.561 143.09 111.094 142.973 110.674 142.74C110.261 142.507 109.934 142.177 109.694 141.75C109.461 141.317 109.344 140.817 109.344 140.25C109.344 139.69 109.464 139.197 109.704 138.77C109.951 138.337 110.284 138.007 110.704 137.78C111.124 137.547 111.594 137.43 112.114 137.43C112.634 137.43 113.104 137.547 113.524 137.78C113.944 138.007 114.274 138.333 114.514 138.76C114.761 139.187 114.884 139.683 114.884 140.25C114.884 140.817 114.757 141.317 114.504 141.75C114.257 142.177 113.921 142.507 113.494 142.74C113.067 142.973 112.594 143.09 112.074 143.09ZM112.074 142.29C112.401 142.29 112.707 142.213 112.994 142.06C113.281 141.907 113.511 141.677 113.684 141.37C113.864 141.063 113.954 140.69 113.954 140.25C113.954 139.81 113.867 139.437 113.694 139.13C113.521 138.823 113.294 138.597 113.014 138.45C112.734 138.297 112.431 138.22 112.104 138.22C111.771 138.22 111.464 138.297 111.184 138.45C110.911 138.597 110.691 138.823 110.524 139.13C110.357 139.437 110.274 139.81 110.274 140.25C110.274 140.697 110.354 141.073 110.514 141.38C110.681 141.687 110.901 141.917 111.174 142.07C111.447 142.217 111.747 142.29 112.074 142.29ZM120.941 137.52V143H120.031V142.19C119.857 142.47 119.614 142.69 119.301 142.85C118.994 143.003 118.654 143.08 118.281 143.08C117.854 143.08 117.471 142.993 117.131 142.82C116.791 142.64 116.521 142.373 116.321 142.02C116.127 141.667 116.031 141.237 116.031 140.73V137.52H116.931V140.61C116.931 141.15 117.067 141.567 117.341 141.86C117.614 142.147 117.987 142.29 118.461 142.29C118.947 142.29 119.331 142.14 119.611 141.84C119.891 141.54 120.031 141.103 120.031 140.53V137.52H120.941ZM123.387 138.41C123.547 138.097 123.774 137.853 124.067 137.68C124.367 137.507 124.73 137.42 125.157 137.42V138.36H124.917C123.897 138.36 123.387 138.913 123.387 140.02V143H122.477V137.52H123.387V138.41ZM131.104 138.27H129.954V143H129.044V138.27H128.334V137.52H129.044V137.13C129.044 136.517 129.2 136.07 129.514 135.79C129.834 135.503 130.344 135.36 131.044 135.36V136.12C130.644 136.12 130.36 136.2 130.194 136.36C130.034 136.513 129.954 136.77 129.954 137.13V137.52H131.104V138.27ZM132.635 136.63C132.461 136.63 132.315 136.57 132.195 136.45C132.075 136.33 132.015 136.183 132.015 136.01C132.015 135.837 132.075 135.69 132.195 135.57C132.315 135.45 132.461 135.39 132.635 135.39C132.801 135.39 132.941 135.45 133.055 135.57C133.175 135.69 133.235 135.837 133.235 136.01C133.235 136.183 133.175 136.33 133.055 136.45C132.941 136.57 132.801 136.63 132.635 136.63ZM133.075 137.52V143H132.165V137.52H133.075ZM135.535 138.41C135.695 138.097 135.922 137.853 136.215 137.68C136.515 137.507 136.879 137.42 137.305 137.42V138.36H137.065C136.045 138.36 135.535 138.913 135.535 140.02V143H134.625V137.52H135.535V138.41ZM140.296 143.09C139.876 143.09 139.499 143.02 139.166 142.88C138.833 142.733 138.569 142.533 138.376 142.28C138.183 142.02 138.076 141.723 138.056 141.39H138.996C139.023 141.663 139.149 141.887 139.376 142.06C139.609 142.233 139.913 142.32 140.286 142.32C140.633 142.32 140.906 142.243 141.106 142.09C141.306 141.937 141.406 141.743 141.406 141.51C141.406 141.27 141.299 141.093 141.086 140.98C140.873 140.86 140.543 140.743 140.096 140.63C139.689 140.523 139.356 140.417 139.096 140.31C138.843 140.197 138.623 140.033 138.436 139.82C138.256 139.6 138.166 139.313 138.166 138.96C138.166 138.68 138.249 138.423 138.416 138.19C138.583 137.957 138.819 137.773 139.126 137.64C139.433 137.5 139.783 137.43 140.176 137.43C140.783 137.43 141.273 137.583 141.646 137.89C142.019 138.197 142.219 138.617 142.246 139.15H141.336C141.316 138.863 141.199 138.633 140.986 138.46C140.779 138.287 140.499 138.2 140.146 138.2C139.819 138.2 139.559 138.27 139.366 138.41C139.173 138.55 139.076 138.733 139.076 138.96C139.076 139.14 139.133 139.29 139.246 139.41C139.366 139.523 139.513 139.617 139.686 139.69C139.866 139.757 140.113 139.833 140.426 139.92C140.819 140.027 141.139 140.133 141.386 140.24C141.633 140.34 141.843 140.493 142.016 140.7C142.196 140.907 142.289 141.177 142.296 141.51C142.296 141.81 142.213 142.08 142.046 142.32C141.879 142.56 141.643 142.75 141.336 142.89C141.036 143.023 140.689 143.09 140.296 143.09ZM144.691 138.27V141.5C144.691 141.767 144.747 141.957 144.861 142.07C144.974 142.177 145.171 142.23 145.451 142.23H146.121V143H145.301C144.794 143 144.414 142.883 144.161 142.65C143.907 142.417 143.781 142.033 143.781 141.5V138.27H143.071V137.52H143.781V136.14H144.691V137.52H146.121V138.27H144.691ZM152.149 137.43C152.622 137.43 153.036 137.533 153.389 137.74C153.749 137.947 154.016 138.207 154.189 138.52V137.52H155.109V143.12C155.109 143.62 155.002 144.063 154.789 144.45C154.576 144.843 154.269 145.15 153.869 145.37C153.476 145.59 153.016 145.7 152.489 145.7C151.769 145.7 151.169 145.53 150.689 145.19C150.209 144.85 149.926 144.387 149.839 143.8H150.739C150.839 144.133 151.046 144.4 151.359 144.6C151.672 144.807 152.049 144.91 152.489 144.91C152.989 144.91 153.396 144.753 153.709 144.44C154.029 144.127 154.189 143.687 154.189 143.12V141.97C154.009 142.29 153.742 142.557 153.389 142.77C153.036 142.983 152.622 143.09 152.149 143.09C151.662 143.09 151.219 142.97 150.819 142.73C150.426 142.49 150.116 142.153 149.889 141.72C149.662 141.287 149.549 140.793 149.549 140.24C149.549 139.68 149.662 139.19 149.889 138.77C150.116 138.343 150.426 138.013 150.819 137.78C151.219 137.547 151.662 137.43 152.149 137.43ZM154.189 140.25C154.189 139.837 154.106 139.477 153.939 139.17C153.772 138.863 153.546 138.63 153.259 138.47C152.979 138.303 152.669 138.22 152.329 138.22C151.989 138.22 151.679 138.3 151.399 138.46C151.119 138.62 150.896 138.853 150.729 139.16C150.562 139.467 150.479 139.827 150.479 140.24C150.479 140.66 150.562 141.027 150.729 141.34C150.896 141.647 151.119 141.883 151.399 142.05C151.679 142.21 151.989 142.29 152.329 142.29C152.669 142.29 152.979 142.21 153.259 142.05C153.546 141.883 153.772 141.647 153.939 141.34C154.106 141.027 154.189 140.663 154.189 140.25ZM156.307 140.24C156.307 139.68 156.42 139.19 156.647 138.77C156.874 138.343 157.184 138.013 157.577 137.78C157.977 137.547 158.42 137.43 158.907 137.43C159.387 137.43 159.804 137.533 160.157 137.74C160.51 137.947 160.774 138.207 160.947 138.52V137.52H161.867V143H160.947V141.98C160.767 142.3 160.497 142.567 160.137 142.78C159.784 142.987 159.37 143.09 158.897 143.09C158.41 143.09 157.97 142.97 157.577 142.73C157.184 142.49 156.874 142.153 156.647 141.72C156.42 141.287 156.307 140.793 156.307 140.24ZM160.947 140.25C160.947 139.837 160.864 139.477 160.697 139.17C160.53 138.863 160.304 138.63 160.017 138.47C159.737 138.303 159.427 138.22 159.087 138.22C158.747 138.22 158.437 138.3 158.157 138.46C157.877 138.62 157.654 138.853 157.487 139.16C157.32 139.467 157.237 139.827 157.237 140.24C157.237 140.66 157.32 141.027 157.487 141.34C157.654 141.647 157.877 141.883 158.157 142.05C158.437 142.21 158.747 142.29 159.087 142.29C159.427 142.29 159.737 142.21 160.017 142.05C160.304 141.883 160.53 141.647 160.697 141.34C160.864 141.027 160.947 140.663 160.947 140.25ZM169.995 137.42C170.421 137.42 170.801 137.51 171.135 137.69C171.468 137.863 171.731 138.127 171.925 138.48C172.118 138.833 172.215 139.263 172.215 139.77V143H171.315V139.9C171.315 139.353 171.178 138.937 170.905 138.65C170.638 138.357 170.275 138.21 169.815 138.21C169.341 138.21 168.965 138.363 168.685 138.67C168.405 138.97 168.265 139.407 168.265 139.98V143H167.365V139.9C167.365 139.353 167.228 138.937 166.955 138.65C166.688 138.357 166.325 138.21 165.865 138.21C165.391 138.21 165.015 138.363 164.735 138.67C164.455 138.97 164.315 139.407 164.315 139.98V143H163.405V137.52H164.315V138.31C164.495 138.023 164.735 137.803 165.035 137.65C165.341 137.497 165.678 137.42 166.045 137.42C166.505 137.42 166.911 137.523 167.265 137.73C167.618 137.937 167.881 138.24 168.055 138.64C168.208 138.253 168.461 137.953 168.815 137.74C169.168 137.527 169.561 137.42 169.995 137.42ZM178.708 140.05C178.708 140.223 178.698 140.407 178.678 140.6H174.298C174.331 141.14 174.514 141.563 174.848 141.87C175.188 142.17 175.598 142.32 176.078 142.32C176.471 142.32 176.798 142.23 177.058 142.05C177.324 141.863 177.511 141.617 177.618 141.31H178.598C178.451 141.837 178.158 142.267 177.718 142.6C177.278 142.927 176.731 143.09 176.078 143.09C175.558 143.09 175.091 142.973 174.678 142.74C174.271 142.507 173.951 142.177 173.718 141.75C173.484 141.317 173.368 140.817 173.368 140.25C173.368 139.683 173.481 139.187 173.708 138.76C173.934 138.333 174.251 138.007 174.658 137.78C175.071 137.547 175.544 137.43 176.078 137.43C176.598 137.43 177.058 137.543 177.458 137.77C177.858 137.997 178.164 138.31 178.378 138.71C178.598 139.103 178.708 139.55 178.708 140.05ZM177.768 139.86C177.768 139.513 177.691 139.217 177.538 138.97C177.384 138.717 177.174 138.527 176.908 138.4C176.648 138.267 176.358 138.2 176.038 138.2C175.578 138.2 175.184 138.347 174.858 138.64C174.538 138.933 174.354 139.34 174.308 139.86H177.768Z" fill="#8BAD7B"/>
</svg>
