<svg width="20" height="20" viewBox="0 0 20 20" fill="none" xmlns="http://www.w3.org/2000/svg">
<path d="M10 0C15.53 0 20 4.481 20 10C20 15.521 15.53 20 10 20C4.48 20 0 15.521 0 10C0 4.481 4.48 0 10 0ZM10 12.931C9.52 12.931 9.13 13.321 9.13 13.801C9.13 14.281 9.52 14.681 10.01 14.681C10.49 14.681 10.88 14.281 10.88 13.801C10.88 13.321 10.49 12.931 10 12.931ZM10 5.33C9.52 5.33 9.12 5.731 9.12 6.21V10.63C9.12 11.111 9.52 11.5 10 11.5C10.48 11.5 10.87 11.111 10.87 10.63V6.21C10.87 5.731 10.48 5.33 10 5.33Z" fill="#F53649"/>
</svg>
