<svg id="SvgjsSvg1121" width="288" height="288" xmlns="http://www.w3.org/2000/svg" version="1.1" xmlns:xlink="http://www.w3.org/1999/xlink" xmlns:svgjs="http://svgjs.com/svgjs"><defs id="SvgjsDefs1122"></defs><g id="SvgjsG1123"><svg xmlns="http://www.w3.org/2000/svg" xmlns:svgjs="http://svgjs.com/svgjs" xmlns:xlink="http://www.w3.org/1999/xlink" viewBox="0 0 288 288" width="288" height="288"><svg xmlns="http://www.w3.org/2000/svg" fill-rule="evenodd" stroke-linejoin="round" stroke-miterlimit="2" clip-rule="evenodd" viewBox="0 0 64 64" width="288" height="288"><rect width="64" height="64" fill="none"></rect><path fill="#064a85" d="M131.729,571.455C135.464,573.49 138,577.451 138,582L138,602C138,608.623 132.623,614 126,614L106,614C100.25,614 95.439,609.947 94.271,604.545C95.974,605.473 97.926,606 100,606L120,606C126.623,606 132,600.623 132,594L132,574C132,573.127 131.907,572.276 131.729,571.455Z" class="color3fc1c9 svgShape color30c7ec" transform="translate(-80 -560)"></path><path fill="#064a85" d="M29.429,270L8,270C7.343,270 6.81,270.896 6.81,272C6.81,273.104 7.343,274 8,274L29.429,274C30.086,274 30.619,273.104 30.619,272C30.619,270.896 30.086,270 29.429,270Z" class="color364f6b svgShape color064a85" transform="matrix(1.68 0 0 1 -7.44 -240)"></path><path fill="#064a85" d="M6.828,272L15.414,263.414C16.195,262.634 16.195,261.366 15.414,260.586C14.634,259.805 13.366,259.805 12.586,260.586L2.586,270.586C1.805,271.367 1.805,272.633 2.586,273.414L12.586,283.414C13.366,284.195 14.634,284.195 15.414,283.414C16.195,282.634 16.195,281.366 15.414,280.586L6.828,272Z" class="color364f6b svgShape color064a85" transform="matrix(-1 0 0 1 46 -240)"></path><path fill="#064a85" d="M92,604L92,606C92,613.727 98.273,620 106,620L126,620C133.727,620 140,613.727 140,606L140,586C140,578.273 133.727,572 126,572C126,572 106,572 106,572C98.273,572 92,578.273 92,586L92,596C92,597.104 92.896,598 94,598C95.104,598 96,597.104 96,596L96,586C96,580.481 100.481,576 106,576L126,576C131.519,576 136,580.481 136,586C136,586 136,606 136,606C136,611.519 131.519,616 126,616C126,616 106,616 106,616C100.481,616 96,611.519 96,606C96,606 96,604 96,604C96,602.896 95.104,602 94,602C92.896,602 92,602.896 92,604Z" class="color364f6b svgShape color064a85" transform="translate(-80 -564)"></path></svg></svg></g></svg>