<svg width="19" height="19" viewBox="0 0 19 19" fill="none" xmlns="http://www.w3.org/2000/svg">
<circle cx="9.5" cy="9.5" r="8.5" fill="#2D7AD8" stroke="#F3F5F7" stroke-width="2"/>
<path d="M9.49116 10.157C10.842 10.157 11.9823 10.3792 11.9823 11.2377C11.9823 12.0961 10.8347 12.3109 9.49116 12.3109C8.14035 12.3109 7 12.0883 7 11.2303C7 10.3718 8.14734 10.157 9.49116 10.157ZM12.6463 7.66077C12.8111 7.66077 12.9449 7.79677 12.9449 7.96357V8.35427H13.3445C13.509 8.35427 13.6431 8.49027 13.6431 8.65706C13.6431 8.82386 13.509 8.95986 13.3445 8.95986H12.9449V9.3509C12.9449 9.5177 12.8111 9.6537 12.6463 9.6537C12.4818 9.6537 12.3477 9.5177 12.3477 9.3509V8.95986H11.9488C11.7839 8.95986 11.6502 8.82386 11.6502 8.65706C11.6502 8.49027 11.7839 8.35427 11.9488 8.35427H12.3477V7.96357C12.3477 7.79677 12.4818 7.66077 12.6463 7.66077ZM9.49116 6C10.4061 6 11.1395 6.74291 11.1395 7.66969C11.1395 8.59647 10.4061 9.33938 9.49116 9.33938C8.57622 9.33938 7.8428 8.59647 7.8428 7.66969C7.8428 6.74291 8.57622 6 9.49116 6Z" fill="white"/>
</svg>
