<svg width="20" height="20" viewBox="0 0 20 20" fill="none" xmlns="http://www.w3.org/2000/svg">
<g id="Group">
<path id="Vector" d="M19.2854 5.67875V5.74603C19.2854 6.53869 19.2854 6.93594 19.0946 7.26038C18.9038 7.58481 18.5564 7.77744 17.8633 8.16363L17.1324 8.56918C17.6356 6.86589 17.8043 5.03541 17.866 3.47037L17.8752 3.26668L17.8771 3.21875C18.4771 3.42705 18.8144 3.58282 19.0246 3.87407C19.2854 4.2363 19.2854 4.71742 19.2854 5.67875ZM0.851562 5.67875V5.74603C0.851562 6.53869 0.851563 6.93594 1.04235 7.26038C1.23314 7.58481 1.58062 7.77744 2.27374 8.16363L3.00556 8.56918C2.50139 6.86589 2.33272 5.03541 2.27097 3.47037L2.26175 3.26668L2.26083 3.21875C1.65989 3.42705 1.32255 3.58282 1.1124 3.87407C0.851562 4.2363 0.851562 4.71834 0.851562 5.67875Z" fill="#064A85"/>
<path id="Vector_2" fill-rule="evenodd" clip-rule="evenodd" d="M10.0642 0.000216825C11.7085 0.000216825 13.0625 0.144923 14.0985 0.320044C15.1483 0.497009 15.6727 0.585492 16.1115 1.1256C16.5502 1.66572 16.5262 2.24915 16.4801 3.41601C16.3216 7.42446 15.4571 12.4302 10.7555 12.8726V16.1298H12.0735C12.2865 16.13 12.4929 16.2039 12.6576 16.339C12.8222 16.4741 12.935 16.662 12.9768 16.8709L13.1519 17.7428H15.5944C15.7777 17.7428 15.9536 17.8156 16.0832 17.9453C16.2128 18.0749 16.2857 18.2507 16.2857 18.4341C16.2857 18.6174 16.2128 18.7932 16.0832 18.9229C15.9536 19.0525 15.7777 19.1254 15.5944 19.1254H4.53407C4.35073 19.1254 4.1749 19.0525 4.04526 18.9229C3.91563 18.7932 3.8428 18.6174 3.8428 18.4341C3.8428 18.2507 3.91563 18.0749 4.04526 17.9453C4.1749 17.8156 4.35073 17.7428 4.53407 17.7428H6.97655L7.15168 16.8709C7.19342 16.662 7.30622 16.4741 7.47089 16.339C7.63556 16.2039 7.84194 16.13 8.05493 16.1298H9.37296V12.8726C4.67232 12.4302 3.80777 7.42353 3.64924 3.41601C3.60223 2.24915 3.57919 1.66479 4.01792 1.1256C4.45572 0.585492 4.98017 0.497009 6.02998 0.320044C7.3635 0.101489 8.71292 -0.00549064 10.0642 0.000216825ZM10.9417 3.87041L10.8514 3.70819C10.5011 3.07867 10.326 2.7653 10.0642 2.7653C9.80247 2.7653 9.62734 3.07867 9.2771 3.70819L9.18677 3.87041C9.08723 4.04922 9.03746 4.1377 8.96004 4.19669C8.88169 4.25567 8.78492 4.2778 8.59136 4.32112L8.41624 4.36167C7.73603 4.51559 7.39592 4.59209 7.31482 4.85201C7.23371 5.11285 7.46597 5.38383 7.92958 5.92578L8.04941 6.06588C8.18121 6.2198 8.24757 6.2963 8.27706 6.39216C8.30656 6.48802 8.29642 6.59032 8.27706 6.79586L8.25863 6.98296C8.18858 7.70649 8.15356 8.06872 8.36462 8.2291C8.57661 8.38947 8.89552 8.24292 9.53241 7.94982L9.69647 7.87424C9.87804 7.79129 9.96837 7.74981 10.0642 7.74981C10.1601 7.74981 10.2504 7.79129 10.432 7.87424L10.596 7.94982C11.2329 8.24384 11.5518 8.38947 11.7638 8.2291C11.9758 8.06872 11.9399 7.70649 11.8698 6.98296L11.8514 6.79586C11.832 6.59032 11.8219 6.48802 11.8514 6.39216C11.8809 6.29723 11.9472 6.2198 12.079 6.06588L12.1989 5.92578C12.6625 5.38383 12.8947 5.11285 12.8136 4.85201C12.7325 4.59209 12.3924 4.51559 11.7122 4.36167L11.5371 4.32112C11.3435 4.2778 11.2468 4.2566 11.1684 4.19669C11.091 4.1377 11.0412 4.04922 10.9417 3.87041Z" fill="#064A85"/>
</g>
</svg>
