<svg width="94" height="94" viewBox="0 0 94 94" fill="none" xmlns="http://www.w3.org/2000/svg">
<circle cx="47" cy="47" r="47" fill="#F53649"/>
<path d="M61.2748 40.8362C61.685 40.8362 62.0571 41.0152 62.3513 41.3176C62.6254 41.6406 62.7634 42.0417 62.7234 42.4655C62.7234 42.6054 61.627 56.4711 61.0007 62.3074C60.6086 65.889 58.2997 68.0635 54.8364 68.1231C52.1733 68.1828 49.5703 68.2034 47.0073 68.2034C44.2863 68.2034 41.6253 68.1828 39.0423 68.1231C35.695 68.0429 33.3841 65.8293 33.0119 62.3074C32.3677 56.4505 31.2913 42.6054 31.2713 42.4655C31.2512 42.0417 31.3873 41.6406 31.6634 41.3176C31.9355 41.0152 32.3277 40.8362 32.7398 40.8362H61.2748ZM51.2472 27.0586C53.0659 27.0586 54.6905 28.3279 55.1607 30.1382L55.4968 31.64C55.7689 32.8641 56.8293 33.7302 58.0498 33.7302H64.0481C64.8484 33.7302 65.5147 34.3946 65.5147 35.2402V36.0219C65.5147 36.8468 64.8484 37.5319 64.0481 37.5319H29.9529C29.1506 37.5319 28.4844 36.8468 28.4844 36.0219V35.2402C28.4844 34.3946 29.1506 33.7302 29.9529 33.7302H35.9513C37.1697 33.7302 38.2301 32.8641 38.5042 31.6421L38.8184 30.2391C39.3066 28.3279 40.9132 27.0586 42.7519 27.0586H51.2472Z" fill="white"/>
</svg>
