<svg width="197" height="231" viewBox="0 0 197 231" fill="none" xmlns="http://www.w3.org/2000/svg">
<path d="M15.8618 53.0312L81.535 11.6094C92.7552 4.53253 107.067 4.62764 118.192 11.853L181.519 52.9812C191.174 59.2518 197 69.9825 197 81.4953V152.29C197 164.099 190.873 175.062 180.815 181.249L117.498 220.2C106.708 226.838 93.1217 226.926 82.2459 220.428L16.5624 181.187C6.29009 175.05 0 163.965 0 151.999V81.7889C0 70.1156 5.98842 59.2585 15.8618 53.0312Z" fill="#CFDAFF"/>
<path d="M90.448 78.32C90.2453 77.9467 89.952 77.664 89.568 77.472C89.1947 77.2693 88.752 77.168 88.24 77.168C87.3547 77.168 86.6453 77.4613 86.112 78.048C85.5787 78.624 85.312 79.3973 85.312 80.368C85.312 81.4027 85.5893 82.2133 86.144 82.8C86.7093 83.376 87.4827 83.664 88.464 83.664C89.136 83.664 89.7013 83.4933 90.16 83.152C90.6293 82.8107 90.9707 82.32 91.184 81.68H87.712V79.664H93.664V82.208C93.4613 82.8907 93.1147 83.5253 92.624 84.112C92.144 84.6987 91.5307 85.1733 90.784 85.536C90.0373 85.8987 89.1947 86.08 88.256 86.08C87.1467 86.08 86.1547 85.84 85.28 85.36C84.416 84.8693 83.7387 84.192 83.248 83.328C82.768 82.464 82.528 81.4773 82.528 80.368C82.528 79.2587 82.768 78.272 83.248 77.408C83.7387 76.5333 84.416 75.856 85.28 75.376C86.144 74.8853 87.1307 74.64 88.24 74.64C89.584 74.64 90.7147 74.9653 91.632 75.616C92.56 76.2667 93.1733 77.168 93.472 78.32H90.448ZM97.9155 78.56C98.2355 78.0693 98.6355 77.6853 99.1155 77.408C99.5955 77.12 100.129 76.976 100.716 76.976V79.872H99.9635C99.2808 79.872 98.7688 80.0213 98.4275 80.32C98.0862 80.608 97.9155 81.12 97.9155 81.856V86H95.1795V77.072H97.9155V78.56ZM101.479 81.52C101.479 80.6027 101.65 79.7973 101.991 79.104C102.343 78.4107 102.818 77.8773 103.415 77.504C104.013 77.1307 104.679 76.944 105.415 76.944C106.045 76.944 106.594 77.072 107.063 77.328C107.543 77.584 107.911 77.92 108.167 78.336V77.072H110.903V86H108.167V84.736C107.901 85.152 107.527 85.488 107.047 85.744C106.578 86 106.029 86.128 105.399 86.128C104.674 86.128 104.013 85.9413 103.415 85.568C102.818 85.184 102.343 84.6453 101.991 83.952C101.65 83.248 101.479 82.4373 101.479 81.52ZM108.167 81.536C108.167 80.8533 107.975 80.3147 107.591 79.92C107.218 79.5253 106.759 79.328 106.215 79.328C105.671 79.328 105.207 79.5253 104.823 79.92C104.45 80.304 104.263 80.8373 104.263 81.52C104.263 82.2027 104.45 82.7467 104.823 83.152C105.207 83.5467 105.671 83.744 106.215 83.744C106.759 83.744 107.218 83.5467 107.591 83.152C107.975 82.7573 108.167 82.2187 108.167 81.536ZM118.323 76.976C119.368 76.976 120.2 77.3173 120.819 78C121.448 78.672 121.763 79.6 121.763 80.784V86H119.043V81.152C119.043 80.5547 118.888 80.0907 118.579 79.76C118.269 79.4293 117.853 79.264 117.331 79.264C116.808 79.264 116.392 79.4293 116.083 79.76C115.773 80.0907 115.619 80.5547 115.619 81.152V86H112.883V77.072H115.619V78.256C115.896 77.8613 116.269 77.552 116.739 77.328C117.208 77.0933 117.736 76.976 118.323 76.976ZM123.12 81.52C123.12 80.6027 123.291 79.7973 123.632 79.104C123.984 78.4107 124.459 77.8773 125.056 77.504C125.653 77.1307 126.32 76.944 127.056 76.944C127.643 76.944 128.176 77.0667 128.656 77.312C129.147 77.5573 129.531 77.888 129.808 78.304V74.16H132.544V86H129.808V84.72C129.552 85.1467 129.184 85.488 128.704 85.744C128.235 86 127.685 86.128 127.056 86.128C126.32 86.128 125.653 85.9413 125.056 85.568C124.459 85.184 123.984 84.6453 123.632 83.952C123.291 83.248 123.12 82.4373 123.12 81.52ZM129.808 81.536C129.808 80.8533 129.616 80.3147 129.232 79.92C128.859 79.5253 128.4 79.328 127.856 79.328C127.312 79.328 126.848 79.5253 126.464 79.92C126.091 80.304 125.904 80.8373 125.904 81.52C125.904 82.2027 126.091 82.7467 126.464 83.152C126.848 83.5467 127.312 83.744 127.856 83.744C128.4 83.744 128.859 83.5467 129.232 83.152C129.616 82.7573 129.808 82.2187 129.808 81.536ZM141.978 86.112C141.157 86.112 140.421 85.9787 139.77 85.712C139.119 85.4453 138.597 85.0507 138.202 84.528C137.818 84.0053 137.615 83.376 137.594 82.64H140.506C140.549 83.056 140.693 83.376 140.938 83.6C141.183 83.8133 141.503 83.92 141.898 83.92C142.303 83.92 142.623 83.8293 142.858 83.648C143.093 83.456 143.21 83.1947 143.21 82.864C143.21 82.5867 143.114 82.3573 142.922 82.176C142.741 81.9947 142.511 81.8453 142.234 81.728C141.967 81.6107 141.583 81.4773 141.082 81.328C140.357 81.104 139.765 80.88 139.306 80.656C138.847 80.432 138.453 80.1013 138.122 79.664C137.791 79.2267 137.626 78.656 137.626 77.952C137.626 76.9067 138.005 76.0907 138.762 75.504C139.519 74.9067 140.506 74.608 141.722 74.608C142.959 74.608 143.957 74.9067 144.714 75.504C145.471 76.0907 145.877 76.912 145.93 77.968H142.97C142.949 77.6053 142.815 77.3227 142.57 77.12C142.325 76.9067 142.01 76.8 141.626 76.8C141.295 76.8 141.029 76.8907 140.826 77.072C140.623 77.2427 140.522 77.4933 140.522 77.824C140.522 78.1867 140.693 78.4693 141.034 78.672C141.375 78.8747 141.909 79.0933 142.634 79.328C143.359 79.5733 143.946 79.808 144.394 80.032C144.853 80.256 145.247 80.5813 145.578 81.008C145.909 81.4347 146.074 81.984 146.074 82.656C146.074 83.296 145.909 83.8773 145.578 84.4C145.258 84.9227 144.789 85.3387 144.17 85.648C143.551 85.9573 142.821 86.112 141.978 86.112ZM150.494 74.16V86H147.758V74.16H150.494ZM151.932 81.52C151.932 80.6027 152.103 79.7973 152.444 79.104C152.796 78.4107 153.271 77.8773 153.868 77.504C154.466 77.1307 155.132 76.944 155.868 76.944C156.498 76.944 157.047 77.072 157.516 77.328C157.996 77.584 158.364 77.92 158.62 78.336V77.072H161.356V86H158.62V84.736C158.354 85.152 157.98 85.488 157.5 85.744C157.031 86 156.482 86.128 155.852 86.128C155.127 86.128 154.466 85.9413 153.868 85.568C153.271 85.184 152.796 84.6453 152.444 83.952C152.103 83.248 151.932 82.4373 151.932 81.52ZM158.62 81.536C158.62 80.8533 158.428 80.3147 158.044 79.92C157.671 79.5253 157.212 79.328 156.668 79.328C156.124 79.328 155.66 79.5253 155.276 79.92C154.903 80.304 154.716 80.8373 154.716 81.52C154.716 82.2027 154.903 82.7467 155.276 83.152C155.66 83.5467 156.124 83.744 156.668 83.744C157.212 83.744 157.671 83.5467 158.044 83.152C158.428 82.7573 158.62 82.2187 158.62 81.536ZM174.728 76.976C175.837 76.976 176.717 77.312 177.368 77.984C178.029 78.656 178.36 79.5893 178.36 80.784V86H175.64V81.152C175.64 80.576 175.485 80.1333 175.176 79.824C174.877 79.504 174.461 79.344 173.928 79.344C173.394 79.344 172.973 79.504 172.664 79.824C172.365 80.1333 172.216 80.576 172.216 81.152V86H169.496V81.152C169.496 80.576 169.341 80.1333 169.032 79.824C168.733 79.504 168.317 79.344 167.784 79.344C167.25 79.344 166.829 79.504 166.52 79.824C166.221 80.1333 166.072 80.576 166.072 81.152V86H163.336V77.072H166.072V78.192C166.349 77.8187 166.712 77.5253 167.16 77.312C167.608 77.088 168.114 76.976 168.68 76.976C169.352 76.976 169.949 77.12 170.472 77.408C171.005 77.696 171.421 78.1067 171.72 78.64C172.029 78.1493 172.45 77.7493 172.984 77.44C173.517 77.1307 174.098 76.976 174.728 76.976ZM82.528 104.368C82.528 103.259 82.768 102.272 83.248 101.408C83.728 100.533 84.3947 99.856 85.248 99.376C86.112 98.8853 87.088 98.64 88.176 98.64C89.5093 98.64 90.6507 98.992 91.6 99.696C92.5493 100.4 93.184 101.36 93.504 102.576H90.496C90.272 102.107 89.952 101.749 89.536 101.504C89.1307 101.259 88.6667 101.136 88.144 101.136C87.3013 101.136 86.6187 101.429 86.096 102.016C85.5733 102.603 85.312 103.387 85.312 104.368C85.312 105.349 85.5733 106.133 86.096 106.72C86.6187 107.307 87.3013 107.6 88.144 107.6C88.6667 107.6 89.1307 107.477 89.536 107.232C89.952 106.987 90.272 106.629 90.496 106.16H93.504C93.184 107.376 92.5493 108.336 91.6 109.04C90.6507 109.733 89.5093 110.08 88.176 110.08C87.088 110.08 86.112 109.84 85.248 109.36C84.3947 108.869 83.728 108.192 83.248 107.328C82.768 106.464 82.528 105.477 82.528 104.368ZM100.668 100.976C101.692 100.976 102.513 101.317 103.132 102C103.75 102.672 104.06 103.6 104.06 104.784V110H101.34V105.152C101.34 104.555 101.185 104.091 100.876 103.76C100.566 103.429 100.15 103.264 99.6275 103.264C99.1048 103.264 98.6888 103.429 98.3795 103.76C98.0702 104.091 97.9155 104.555 97.9155 105.152V110H95.1795V98.16H97.9155V102.272C98.1928 101.877 98.5715 101.563 99.0515 101.328C99.5315 101.093 100.07 100.976 100.668 100.976ZM105.417 105.52C105.417 104.603 105.587 103.797 105.929 103.104C106.281 102.411 106.755 101.877 107.353 101.504C107.95 101.131 108.617 100.944 109.353 100.944C109.982 100.944 110.531 101.072 111.001 101.328C111.481 101.584 111.849 101.92 112.105 102.336V101.072H114.841V110H112.105V108.736C111.838 109.152 111.465 109.488 110.985 109.744C110.515 110 109.966 110.128 109.337 110.128C108.611 110.128 107.95 109.941 107.353 109.568C106.755 109.184 106.281 108.645 105.929 107.952C105.587 107.248 105.417 106.437 105.417 105.52ZM112.105 105.536C112.105 104.853 111.913 104.315 111.529 103.92C111.155 103.525 110.697 103.328 110.153 103.328C109.609 103.328 109.145 103.525 108.761 103.92C108.387 104.304 108.201 104.837 108.201 105.52C108.201 106.203 108.387 106.747 108.761 107.152C109.145 107.547 109.609 107.744 110.153 107.744C110.697 107.744 111.155 107.547 111.529 107.152C111.913 106.757 112.105 106.219 112.105 105.536ZM128.212 100.976C129.321 100.976 130.201 101.312 130.852 101.984C131.513 102.656 131.844 103.589 131.844 104.784V110H129.124V105.152C129.124 104.576 128.969 104.133 128.66 103.824C128.361 103.504 127.945 103.344 127.412 103.344C126.879 103.344 126.457 103.504 126.148 103.824C125.849 104.133 125.7 104.576 125.7 105.152V110H122.98V105.152C122.98 104.576 122.825 104.133 122.516 103.824C122.217 103.504 121.801 103.344 121.268 103.344C120.735 103.344 120.313 103.504 120.004 103.824C119.705 104.133 119.556 104.576 119.556 105.152V110H116.82V101.072H119.556V102.192C119.833 101.819 120.196 101.525 120.644 101.312C121.092 101.088 121.599 100.976 122.164 100.976C122.836 100.976 123.433 101.12 123.956 101.408C124.489 101.696 124.905 102.107 125.204 102.64C125.513 102.149 125.935 101.749 126.468 101.44C127.001 101.131 127.583 100.976 128.212 100.976ZM136.494 102.336C136.76 101.92 137.128 101.584 137.598 101.328C138.067 101.072 138.616 100.944 139.246 100.944C139.982 100.944 140.648 101.131 141.246 101.504C141.843 101.877 142.312 102.411 142.654 103.104C143.006 103.797 143.182 104.603 143.182 105.52C143.182 106.437 143.006 107.248 142.654 107.952C142.312 108.645 141.843 109.184 141.246 109.568C140.648 109.941 139.982 110.128 139.246 110.128C138.627 110.128 138.078 110 137.598 109.744C137.128 109.488 136.76 109.157 136.494 108.752V114.256H133.758V101.072H136.494V102.336ZM140.398 105.52C140.398 104.837 140.206 104.304 139.822 103.92C139.448 103.525 138.984 103.328 138.43 103.328C137.886 103.328 137.422 103.525 137.038 103.92C136.664 104.315 136.478 104.853 136.478 105.536C136.478 106.219 136.664 106.757 137.038 107.152C137.422 107.547 137.886 107.744 138.43 107.744C138.974 107.744 139.438 107.547 139.822 107.152C140.206 106.747 140.398 106.203 140.398 105.52ZM145.993 100.144C145.513 100.144 145.118 100.005 144.809 99.728C144.51 99.44 144.361 99.088 144.361 98.672C144.361 98.2453 144.51 97.8933 144.809 97.616C145.118 97.328 145.513 97.184 145.993 97.184C146.462 97.184 146.846 97.328 147.145 97.616C147.454 97.8933 147.609 98.2453 147.609 98.672C147.609 99.088 147.454 99.44 147.145 99.728C146.846 100.005 146.462 100.144 145.993 100.144ZM147.353 101.072V110H144.617V101.072H147.353ZM153.4 110.128C152.525 110.128 151.736 109.941 151.032 109.568C150.338 109.195 149.789 108.661 149.384 107.968C148.989 107.275 148.792 106.464 148.792 105.536C148.792 104.619 148.994 103.813 149.4 103.12C149.805 102.416 150.36 101.877 151.064 101.504C151.768 101.131 152.557 100.944 153.432 100.944C154.306 100.944 155.096 101.131 155.8 101.504C156.504 101.877 157.058 102.416 157.464 103.12C157.869 103.813 158.072 104.619 158.072 105.536C158.072 106.453 157.864 107.264 157.448 107.968C157.042 108.661 156.482 109.195 155.768 109.568C155.064 109.941 154.274 110.128 153.4 110.128ZM153.4 107.76C153.922 107.76 154.365 107.568 154.728 107.184C155.101 106.8 155.288 106.251 155.288 105.536C155.288 104.821 155.106 104.272 154.744 103.888C154.392 103.504 153.954 103.312 153.432 103.312C152.898 103.312 152.456 103.504 152.104 103.888C151.752 104.261 151.576 104.811 151.576 105.536C151.576 106.251 151.746 106.8 152.088 107.184C152.44 107.568 152.877 107.76 153.4 107.76ZM164.963 100.976C166.009 100.976 166.841 101.317 167.459 102C168.089 102.672 168.403 103.6 168.403 104.784V110H165.683V105.152C165.683 104.555 165.529 104.091 165.219 103.76C164.91 103.429 164.494 103.264 163.971 103.264C163.449 103.264 163.033 103.429 162.723 103.76C162.414 104.091 162.259 104.555 162.259 105.152V110H159.523V101.072H162.259V102.256C162.537 101.861 162.91 101.552 163.379 101.328C163.849 101.093 164.377 100.976 164.963 100.976Z" fill="#2243B4"/>
<path d="M91.53 121.03L89.51 128H88.49L86.87 122.39L85.19 128L84.18 128.01L82.23 121.03H83.2L84.72 126.94L86.4 121.03H87.42L89.02 126.92L90.55 121.03H91.53ZM92.9959 121.63C92.8225 121.63 92.6759 121.57 92.5559 121.45C92.4359 121.33 92.3759 121.183 92.3759 121.01C92.3759 120.837 92.4359 120.69 92.5559 120.57C92.6759 120.45 92.8225 120.39 92.9959 120.39C93.1625 120.39 93.3025 120.45 93.4159 120.57C93.5359 120.69 93.5959 120.837 93.5959 121.01C93.5959 121.183 93.5359 121.33 93.4159 121.45C93.3025 121.57 93.1625 121.63 92.9959 121.63ZM93.4359 122.52V128H92.5259V122.52H93.4359ZM97.6568 122.42C98.3235 122.42 98.8635 122.623 99.2768 123.03C99.6901 123.43 99.8968 124.01 99.8968 124.77V128H98.9968V124.9C98.9968 124.353 98.8601 123.937 98.5868 123.65C98.3135 123.357 97.9401 123.21 97.4668 123.21C96.9868 123.21 96.6035 123.36 96.3168 123.66C96.0368 123.96 95.8968 124.397 95.8968 124.97V128H94.9868V122.52H95.8968V123.3C96.0768 123.02 96.3201 122.803 96.6268 122.65C96.9401 122.497 97.2835 122.42 97.6568 122.42ZM103.709 125.24C103.709 124.68 103.823 124.19 104.049 123.77C104.276 123.343 104.586 123.013 104.979 122.78C105.379 122.547 105.823 122.43 106.309 122.43C106.789 122.43 107.206 122.533 107.559 122.74C107.913 122.947 108.176 123.207 108.349 123.52V122.52H109.269V128H108.349V126.98C108.169 127.3 107.899 127.567 107.539 127.78C107.186 127.987 106.773 128.09 106.299 128.09C105.813 128.09 105.373 127.97 104.979 127.73C104.586 127.49 104.276 127.153 104.049 126.72C103.823 126.287 103.709 125.793 103.709 125.24ZM108.349 125.25C108.349 124.837 108.266 124.477 108.099 124.17C107.933 123.863 107.706 123.63 107.419 123.47C107.139 123.303 106.829 123.22 106.489 123.22C106.149 123.22 105.839 123.3 105.559 123.46C105.279 123.62 105.056 123.853 104.889 124.16C104.723 124.467 104.639 124.827 104.639 125.24C104.639 125.66 104.723 126.027 104.889 126.34C105.056 126.647 105.279 126.883 105.559 127.05C105.839 127.21 106.149 127.29 106.489 127.29C106.829 127.29 107.139 127.21 107.419 127.05C107.706 126.883 107.933 126.647 108.099 126.34C108.266 126.027 108.349 125.663 108.349 125.25ZM111.717 120.6V128H110.807V120.6H111.717ZM114.178 120.6V128H113.268V120.6H114.178ZM119.505 123.27V126.5C119.505 126.767 119.562 126.957 119.675 127.07C119.788 127.177 119.985 127.23 120.265 127.23H120.935V128H120.115C119.608 128 119.228 127.883 118.975 127.65C118.722 127.417 118.595 127.033 118.595 126.5V123.27H117.885V122.52H118.595V121.14H119.505V122.52H120.935V123.27H119.505ZM124.758 122.42C125.171 122.42 125.544 122.51 125.878 122.69C126.211 122.863 126.471 123.127 126.658 123.48C126.851 123.833 126.948 124.263 126.948 124.77V128H126.048V124.9C126.048 124.353 125.911 123.937 125.638 123.65C125.364 123.357 124.991 123.21 124.518 123.21C124.038 123.21 123.654 123.36 123.368 123.66C123.088 123.96 122.948 124.397 122.948 124.97V128H122.038V120.6H122.948V123.3C123.128 123.02 123.374 122.803 123.688 122.65C124.008 122.497 124.364 122.42 124.758 122.42ZM133.434 125.05C133.434 125.223 133.424 125.407 133.404 125.6H129.024C129.057 126.14 129.241 126.563 129.574 126.87C129.914 127.17 130.324 127.32 130.804 127.32C131.197 127.32 131.524 127.23 131.784 127.05C132.051 126.863 132.237 126.617 132.344 126.31H133.324C133.177 126.837 132.884 127.267 132.444 127.6C132.004 127.927 131.457 128.09 130.804 128.09C130.284 128.09 129.817 127.973 129.404 127.74C128.997 127.507 128.677 127.177 128.444 126.75C128.211 126.317 128.094 125.817 128.094 125.25C128.094 124.683 128.207 124.187 128.434 123.76C128.661 123.333 128.977 123.007 129.384 122.78C129.797 122.547 130.271 122.43 130.804 122.43C131.324 122.43 131.784 122.543 132.184 122.77C132.584 122.997 132.891 123.31 133.104 123.71C133.324 124.103 133.434 124.55 133.434 125.05ZM132.494 124.86C132.494 124.513 132.417 124.217 132.264 123.97C132.111 123.717 131.901 123.527 131.634 123.4C131.374 123.267 131.084 123.2 130.764 123.2C130.304 123.2 129.911 123.347 129.584 123.64C129.264 123.933 129.081 124.34 129.034 124.86H132.494ZM136.961 125.24C136.961 124.68 137.075 124.19 137.301 123.77C137.528 123.343 137.838 123.013 138.231 122.78C138.631 122.547 139.075 122.43 139.561 122.43C140.041 122.43 140.458 122.533 140.811 122.74C141.165 122.947 141.428 123.207 141.601 123.52V122.52H142.521V128H141.601V126.98C141.421 127.3 141.151 127.567 140.791 127.78C140.438 127.987 140.025 128.09 139.551 128.09C139.065 128.09 138.625 127.97 138.231 127.73C137.838 127.49 137.528 127.153 137.301 126.72C137.075 126.287 136.961 125.793 136.961 125.24ZM141.601 125.25C141.601 124.837 141.518 124.477 141.351 124.17C141.185 123.863 140.958 123.63 140.671 123.47C140.391 123.303 140.081 123.22 139.741 123.22C139.401 123.22 139.091 123.3 138.811 123.46C138.531 123.62 138.308 123.853 138.141 124.16C137.975 124.467 137.891 124.827 137.891 125.24C137.891 125.66 137.975 126.027 138.141 126.34C138.308 126.647 138.531 126.883 138.811 127.05C139.091 127.21 139.401 127.29 139.741 127.29C140.081 127.29 140.391 127.21 140.671 127.05C140.958 126.883 141.185 126.647 141.351 126.34C141.518 126.027 141.601 125.663 141.601 125.25ZM146.099 127.16L147.799 122.52H148.769L146.619 128H145.559L143.409 122.52H144.389L146.099 127.16ZM149.325 125.24C149.325 124.68 149.438 124.19 149.665 123.77C149.891 123.343 150.201 123.013 150.595 122.78C150.995 122.547 151.438 122.43 151.925 122.43C152.405 122.43 152.821 122.533 153.175 122.74C153.528 122.947 153.791 123.207 153.965 123.52V122.52H154.885V128H153.965V126.98C153.785 127.3 153.515 127.567 153.155 127.78C152.801 127.987 152.388 128.09 151.915 128.09C151.428 128.09 150.988 127.97 150.595 127.73C150.201 127.49 149.891 127.153 149.665 126.72C149.438 126.287 149.325 125.793 149.325 125.24ZM153.965 125.25C153.965 124.837 153.881 124.477 153.715 124.17C153.548 123.863 153.321 123.63 153.035 123.47C152.755 123.303 152.445 123.22 152.105 123.22C151.765 123.22 151.455 123.3 151.175 123.46C150.895 123.62 150.671 123.853 150.505 124.16C150.338 124.467 150.255 124.827 150.255 125.24C150.255 125.66 150.338 126.027 150.505 126.34C150.671 126.647 150.895 126.883 151.175 127.05C151.455 127.21 151.765 127.29 152.105 127.29C152.445 127.29 152.755 127.21 153.035 127.05C153.321 126.883 153.548 126.647 153.715 126.34C153.881 126.027 153.965 125.663 153.965 125.25ZM156.892 121.63C156.719 121.63 156.572 121.57 156.452 121.45C156.332 121.33 156.272 121.183 156.272 121.01C156.272 120.837 156.332 120.69 156.452 120.57C156.572 120.45 156.719 120.39 156.892 120.39C157.059 120.39 157.199 120.45 157.312 120.57C157.432 120.69 157.492 120.837 157.492 121.01C157.492 121.183 157.432 121.33 157.312 121.45C157.199 121.57 157.059 121.63 156.892 121.63ZM157.332 122.52V128H156.422V122.52H157.332ZM159.793 120.6V128H158.883V120.6H159.793ZM161.004 125.24C161.004 124.68 161.118 124.19 161.344 123.77C161.571 123.343 161.881 123.013 162.274 122.78C162.674 122.547 163.118 122.43 163.604 122.43C164.084 122.43 164.501 122.533 164.854 122.74C165.208 122.947 165.471 123.207 165.644 123.52V122.52H166.564V128H165.644V126.98C165.464 127.3 165.194 127.567 164.834 127.78C164.481 127.987 164.068 128.09 163.594 128.09C163.108 128.09 162.668 127.97 162.274 127.73C161.881 127.49 161.571 127.153 161.344 126.72C161.118 126.287 161.004 125.793 161.004 125.24ZM165.644 125.25C165.644 124.837 165.561 124.477 165.394 124.17C165.228 123.863 165.001 123.63 164.714 123.47C164.434 123.303 164.124 123.22 163.784 123.22C163.444 123.22 163.134 123.3 162.854 123.46C162.574 123.62 162.351 123.853 162.184 124.16C162.018 124.467 161.934 124.827 161.934 125.24C161.934 125.66 162.018 126.027 162.184 126.34C162.351 126.647 162.574 126.883 162.854 127.05C163.134 127.21 163.444 127.29 163.784 127.29C164.124 127.29 164.434 127.21 164.714 127.05C165.001 126.883 165.228 126.647 165.394 126.34C165.561 126.027 165.644 125.663 165.644 125.25ZM169.012 123.54C169.199 123.213 169.472 122.947 169.832 122.74C170.192 122.533 170.602 122.43 171.062 122.43C171.555 122.43 171.999 122.547 172.392 122.78C172.785 123.013 173.095 123.343 173.322 123.77C173.549 124.19 173.662 124.68 173.662 125.24C173.662 125.793 173.549 126.287 173.322 126.72C173.095 127.153 172.782 127.49 172.382 127.73C171.989 127.97 171.549 128.09 171.062 128.09C170.589 128.09 170.172 127.987 169.812 127.78C169.459 127.573 169.192 127.31 169.012 126.99V128H168.102V120.6H169.012V123.54ZM172.732 125.24C172.732 124.827 172.649 124.467 172.482 124.16C172.315 123.853 172.089 123.62 171.802 123.46C171.522 123.3 171.212 123.22 170.872 123.22C170.539 123.22 170.229 123.303 169.942 123.47C169.662 123.63 169.435 123.867 169.262 124.18C169.095 124.487 169.012 124.843 169.012 125.25C169.012 125.663 169.095 126.027 169.262 126.34C169.435 126.647 169.662 126.883 169.942 127.05C170.229 127.21 170.539 127.29 170.872 127.29C171.212 127.29 171.522 127.21 171.802 127.05C172.089 126.883 172.315 126.647 172.482 126.34C172.649 126.027 172.732 125.66 172.732 125.24ZM175.77 120.6V128H174.86V120.6H175.77ZM182.321 125.05C182.321 125.223 182.311 125.407 182.291 125.6H177.911C177.944 126.14 178.127 126.563 178.461 126.87C178.801 127.17 179.211 127.32 179.691 127.32C180.084 127.32 180.411 127.23 180.671 127.05C180.937 126.863 181.124 126.617 181.231 126.31H182.211C182.064 126.837 181.771 127.267 181.331 127.6C180.891 127.927 180.344 128.09 179.691 128.09C179.171 128.09 178.704 127.973 178.291 127.74C177.884 127.507 177.564 127.177 177.331 126.75C177.097 126.317 176.981 125.817 176.981 125.25C176.981 124.683 177.094 124.187 177.321 123.76C177.547 123.333 177.864 123.007 178.271 122.78C178.684 122.547 179.157 122.43 179.691 122.43C180.211 122.43 180.671 122.543 181.071 122.77C181.471 122.997 181.777 123.31 181.991 123.71C182.211 124.103 182.321 124.55 182.321 125.05ZM181.381 124.86C181.381 124.513 181.304 124.217 181.151 123.97C180.997 123.717 180.787 123.527 180.521 123.4C180.261 123.267 179.971 123.2 179.651 123.2C179.191 123.2 178.797 123.347 178.471 123.64C178.151 123.933 177.967 124.34 177.921 124.86H181.381ZM82.43 140.24C82.43 139.68 82.5433 139.19 82.77 138.77C82.9967 138.343 83.3067 138.013 83.7 137.78C84.1 137.547 84.5433 137.43 85.03 137.43C85.51 137.43 85.9267 137.533 86.28 137.74C86.6333 137.947 86.8967 138.207 87.07 138.52V137.52H87.99V143H87.07V141.98C86.89 142.3 86.62 142.567 86.26 142.78C85.9067 142.987 85.4933 143.09 85.02 143.09C84.5333 143.09 84.0933 142.97 83.7 142.73C83.3067 142.49 82.9967 142.153 82.77 141.72C82.5433 141.287 82.43 140.793 82.43 140.24ZM87.07 140.25C87.07 139.837 86.9867 139.477 86.82 139.17C86.6533 138.863 86.4267 138.63 86.14 138.47C85.86 138.303 85.55 138.22 85.21 138.22C84.87 138.22 84.56 138.3 84.28 138.46C84 138.62 83.7767 138.853 83.61 139.16C83.4433 139.467 83.36 139.827 83.36 140.24C83.36 140.66 83.4433 141.027 83.61 141.34C83.7767 141.647 84 141.883 84.28 142.05C84.56 142.21 84.87 142.29 85.21 142.29C85.55 142.29 85.86 142.21 86.14 142.05C86.4267 141.883 86.6533 141.647 86.82 141.34C86.9867 141.027 87.07 140.663 87.07 140.25ZM89.1878 140.25C89.1878 139.683 89.3011 139.19 89.5278 138.77C89.7545 138.343 90.0678 138.013 90.4678 137.78C90.8745 137.547 91.3378 137.43 91.8578 137.43C92.5311 137.43 93.0845 137.593 93.5178 137.92C93.9578 138.247 94.2478 138.7 94.3878 139.28H93.4078C93.3145 138.947 93.1311 138.683 92.8578 138.49C92.5911 138.297 92.2578 138.2 91.8578 138.2C91.3378 138.2 90.9178 138.38 90.5978 138.74C90.2778 139.093 90.1178 139.597 90.1178 140.25C90.1178 140.91 90.2778 141.42 90.5978 141.78C90.9178 142.14 91.3378 142.32 91.8578 142.32C92.2578 142.32 92.5911 142.227 92.8578 142.04C93.1245 141.853 93.3078 141.587 93.4078 141.24H94.3878C94.2411 141.8 93.9478 142.25 93.5078 142.59C93.0678 142.923 92.5178 143.09 91.8578 143.09C91.3378 143.09 90.8745 142.973 90.4678 142.74C90.0678 142.507 89.7545 142.177 89.5278 141.75C89.3011 141.323 89.1878 140.823 89.1878 140.25ZM98.322 137.42C98.7354 137.42 99.1087 137.51 99.442 137.69C99.7754 137.863 100.035 138.127 100.222 138.48C100.415 138.833 100.512 139.263 100.512 139.77V143H99.612V139.9C99.612 139.353 99.4754 138.937 99.202 138.65C98.9287 138.357 98.5554 138.21 98.082 138.21C97.602 138.21 97.2187 138.36 96.932 138.66C96.652 138.96 96.512 139.397 96.512 139.97V143H95.602V135.6H96.512V138.3C96.692 138.02 96.9387 137.803 97.252 137.65C97.572 137.497 97.9287 137.42 98.322 137.42ZM102.469 136.63C102.295 136.63 102.149 136.57 102.029 136.45C101.909 136.33 101.849 136.183 101.849 136.01C101.849 135.837 101.909 135.69 102.029 135.57C102.149 135.45 102.295 135.39 102.469 135.39C102.635 135.39 102.775 135.45 102.889 135.57C103.009 135.69 103.069 135.837 103.069 136.01C103.069 136.183 103.009 136.33 102.889 136.45C102.775 136.57 102.635 136.63 102.469 136.63ZM102.909 137.52V143H101.999V137.52H102.909ZM109.459 140.05C109.459 140.223 109.449 140.407 109.429 140.6H105.049C105.083 141.14 105.266 141.563 105.599 141.87C105.939 142.17 106.349 142.32 106.829 142.32C107.223 142.32 107.549 142.23 107.809 142.05C108.076 141.863 108.263 141.617 108.369 141.31H109.349C109.203 141.837 108.909 142.267 108.469 142.6C108.029 142.927 107.483 143.09 106.829 143.09C106.309 143.09 105.843 142.973 105.429 142.74C105.023 142.507 104.703 142.177 104.469 141.75C104.236 141.317 104.119 140.817 104.119 140.25C104.119 139.683 104.233 139.187 104.459 138.76C104.686 138.333 105.003 138.007 105.409 137.78C105.823 137.547 106.296 137.43 106.829 137.43C107.349 137.43 107.809 137.543 108.209 137.77C108.609 137.997 108.916 138.31 109.129 138.71C109.349 139.103 109.459 139.55 109.459 140.05ZM108.519 139.86C108.519 139.513 108.443 139.217 108.289 138.97C108.136 138.717 107.926 138.527 107.659 138.4C107.399 138.267 107.109 138.2 106.789 138.2C106.329 138.2 105.936 138.347 105.609 138.64C105.289 138.933 105.106 139.34 105.059 139.86H108.519ZM112.701 142.16L114.401 137.52H115.371L113.221 143H112.161L110.011 137.52H110.991L112.701 142.16ZM121.266 140.05C121.266 140.223 121.256 140.407 121.236 140.6H116.856C116.889 141.14 117.073 141.563 117.406 141.87C117.746 142.17 118.156 142.32 118.636 142.32C119.029 142.32 119.356 142.23 119.616 142.05C119.883 141.863 120.069 141.617 120.176 141.31H121.156C121.009 141.837 120.716 142.267 120.276 142.6C119.836 142.927 119.289 143.09 118.636 143.09C118.116 143.09 117.649 142.973 117.236 142.74C116.829 142.507 116.509 142.177 116.276 141.75C116.043 141.317 115.926 140.817 115.926 140.25C115.926 139.683 116.039 139.187 116.266 138.76C116.493 138.333 116.809 138.007 117.216 137.78C117.629 137.547 118.103 137.43 118.636 137.43C119.156 137.43 119.616 137.543 120.016 137.77C120.416 137.997 120.723 138.31 120.936 138.71C121.156 139.103 121.266 139.55 121.266 140.05ZM120.326 139.86C120.326 139.513 120.249 139.217 120.096 138.97C119.943 138.717 119.733 138.527 119.466 138.4C119.206 138.267 118.916 138.2 118.596 138.2C118.136 138.2 117.743 138.347 117.416 138.64C117.096 138.933 116.913 139.34 116.866 139.86H120.326ZM129.057 137.42C129.484 137.42 129.864 137.51 130.197 137.69C130.531 137.863 130.794 138.127 130.987 138.48C131.181 138.833 131.277 139.263 131.277 139.77V143H130.377V139.9C130.377 139.353 130.241 138.937 129.967 138.65C129.701 138.357 129.337 138.21 128.877 138.21C128.404 138.21 128.027 138.363 127.747 138.67C127.467 138.97 127.327 139.407 127.327 139.98V143H126.427V139.9C126.427 139.353 126.291 138.937 126.017 138.65C125.751 138.357 125.387 138.21 124.927 138.21C124.454 138.21 124.077 138.363 123.797 138.67C123.517 138.97 123.377 139.407 123.377 139.98V143H122.467V137.52H123.377V138.31C123.557 138.023 123.797 137.803 124.097 137.65C124.404 137.497 124.741 137.42 125.107 137.42C125.567 137.42 125.974 137.523 126.327 137.73C126.681 137.937 126.944 138.24 127.117 138.64C127.271 138.253 127.524 137.953 127.877 137.74C128.231 137.527 128.624 137.42 129.057 137.42ZM137.77 140.05C137.77 140.223 137.76 140.407 137.74 140.6H133.36C133.393 141.14 133.577 141.563 133.91 141.87C134.25 142.17 134.66 142.32 135.14 142.32C135.533 142.32 135.86 142.23 136.12 142.05C136.387 141.863 136.573 141.617 136.68 141.31H137.66C137.513 141.837 137.22 142.267 136.78 142.6C136.34 142.927 135.793 143.09 135.14 143.09C134.62 143.09 134.153 142.973 133.74 142.74C133.333 142.507 133.013 142.177 132.78 141.75C132.547 141.317 132.43 140.817 132.43 140.25C132.43 139.683 132.543 139.187 132.77 138.76C132.997 138.333 133.313 138.007 133.72 137.78C134.133 137.547 134.607 137.43 135.14 137.43C135.66 137.43 136.12 137.543 136.52 137.77C136.92 137.997 137.227 138.31 137.44 138.71C137.66 139.103 137.77 139.55 137.77 140.05ZM136.83 139.86C136.83 139.513 136.753 139.217 136.6 138.97C136.447 138.717 136.237 138.527 135.97 138.4C135.71 138.267 135.42 138.2 135.1 138.2C134.64 138.2 134.247 138.347 133.92 138.64C133.6 138.933 133.417 139.34 133.37 139.86H136.83ZM141.641 137.42C142.308 137.42 142.848 137.623 143.261 138.03C143.675 138.43 143.881 139.01 143.881 139.77V143H142.981V139.9C142.981 139.353 142.845 138.937 142.571 138.65C142.298 138.357 141.925 138.21 141.451 138.21C140.971 138.21 140.588 138.36 140.301 138.66C140.021 138.96 139.881 139.397 139.881 139.97V143H138.971V137.52H139.881V138.3C140.061 138.02 140.305 137.803 140.611 137.65C140.925 137.497 141.268 137.42 141.641 137.42ZM146.478 138.27V141.5C146.478 141.767 146.534 141.957 146.648 142.07C146.761 142.177 146.958 142.23 147.238 142.23H147.908V143H147.088C146.581 143 146.201 142.883 145.948 142.65C145.694 142.417 145.568 142.033 145.568 141.5V138.27H144.858V137.52H145.568V136.14H146.478V137.52H147.908V138.27H146.478ZM152.146 136.63C151.973 136.63 151.826 136.57 151.706 136.45C151.586 136.33 151.526 136.183 151.526 136.01C151.526 135.837 151.586 135.69 151.706 135.57C151.826 135.45 151.973 135.39 152.146 135.39C152.313 135.39 152.453 135.45 152.566 135.57C152.686 135.69 152.746 135.837 152.746 136.01C152.746 136.183 152.686 136.33 152.566 136.45C152.453 136.57 152.313 136.63 152.146 136.63ZM152.586 137.52V143H151.676V137.52H152.586ZM156.807 137.42C157.474 137.42 158.014 137.623 158.427 138.03C158.841 138.43 159.047 139.01 159.047 139.77V143H158.147V139.9C158.147 139.353 158.011 138.937 157.737 138.65C157.464 138.357 157.091 138.21 156.617 138.21C156.137 138.21 155.754 138.36 155.467 138.66C155.187 138.96 155.047 139.397 155.047 139.97V143H154.137V137.52H155.047V138.3C155.227 138.02 155.471 137.803 155.777 137.65C156.091 137.497 156.434 137.42 156.807 137.42ZM164.31 138.27V141.5C164.31 141.767 164.366 141.957 164.48 142.07C164.593 142.177 164.79 142.23 165.07 142.23H165.74V143H164.92C164.413 143 164.033 142.883 163.78 142.65C163.526 142.417 163.4 142.033 163.4 141.5V138.27H162.69V137.52H163.4V136.14H164.31V137.52H165.74V138.27H164.31ZM169.562 137.42C169.976 137.42 170.349 137.51 170.682 137.69C171.016 137.863 171.276 138.127 171.462 138.48C171.656 138.833 171.752 139.263 171.752 139.77V143H170.852V139.9C170.852 139.353 170.716 138.937 170.442 138.65C170.169 138.357 169.796 138.21 169.322 138.21C168.842 138.21 168.459 138.36 168.172 138.66C167.892 138.96 167.752 139.397 167.752 139.97V143H166.842V135.6H167.752V138.3C167.932 138.02 168.179 137.803 168.492 137.65C168.812 137.497 169.169 137.42 169.562 137.42ZM178.239 140.05C178.239 140.223 178.229 140.407 178.209 140.6H173.829C173.862 141.14 174.045 141.563 174.379 141.87C174.719 142.17 175.129 142.32 175.609 142.32C176.002 142.32 176.329 142.23 176.589 142.05C176.855 141.863 177.042 141.617 177.149 141.31H178.129C177.982 141.837 177.689 142.267 177.249 142.6C176.809 142.927 176.262 143.09 175.609 143.09C175.089 143.09 174.622 142.973 174.209 142.74C173.802 142.507 173.482 142.177 173.249 141.75C173.015 141.317 172.899 140.817 172.899 140.25C172.899 139.683 173.012 139.187 173.239 138.76C173.465 138.333 173.782 138.007 174.189 137.78C174.602 137.547 175.075 137.43 175.609 137.43C176.129 137.43 176.589 137.543 176.989 137.77C177.389 137.997 177.695 138.31 177.909 138.71C178.129 139.103 178.239 139.55 178.239 140.05ZM177.299 139.86C177.299 139.513 177.222 139.217 177.069 138.97C176.915 138.717 176.705 138.527 176.439 138.4C176.179 138.267 175.889 138.2 175.569 138.2C175.109 138.2 174.715 138.347 174.389 138.64C174.069 138.933 173.885 139.34 173.839 139.86H177.299ZM85.03 152.43C85.5033 152.43 85.9167 152.533 86.27 152.74C86.63 152.947 86.8967 153.207 87.07 153.52V152.52H87.99V158.12C87.99 158.62 87.8833 159.063 87.67 159.45C87.4567 159.843 87.15 160.15 86.75 160.37C86.3567 160.59 85.8967 160.7 85.37 160.7C84.65 160.7 84.05 160.53 83.57 160.19C83.09 159.85 82.8067 159.387 82.72 158.8H83.62C83.72 159.133 83.9267 159.4 84.24 159.6C84.5533 159.807 84.93 159.91 85.37 159.91C85.87 159.91 86.2767 159.753 86.59 159.44C86.91 159.127 87.07 158.687 87.07 158.12V156.97C86.89 157.29 86.6233 157.557 86.27 157.77C85.9167 157.983 85.5033 158.09 85.03 158.09C84.5433 158.09 84.1 157.97 83.7 157.73C83.3067 157.49 82.9967 157.153 82.77 156.72C82.5433 156.287 82.43 155.793 82.43 155.24C82.43 154.68 82.5433 154.19 82.77 153.77C82.9967 153.343 83.3067 153.013 83.7 152.78C84.1 152.547 84.5433 152.43 85.03 152.43ZM87.07 155.25C87.07 154.837 86.9867 154.477 86.82 154.17C86.6533 153.863 86.4267 153.63 86.14 153.47C85.86 153.303 85.55 153.22 85.21 153.22C84.87 153.22 84.56 153.3 84.28 153.46C84 153.62 83.7767 153.853 83.61 154.16C83.4433 154.467 83.36 154.827 83.36 155.24C83.36 155.66 83.4433 156.027 83.61 156.34C83.7767 156.647 84 156.883 84.28 157.05C84.56 157.21 84.87 157.29 85.21 157.29C85.55 157.29 85.86 157.21 86.14 157.05C86.4267 156.883 86.6533 156.647 86.82 156.34C86.9867 156.027 87.07 155.663 87.07 155.25ZM89.1878 155.24C89.1878 154.68 89.3011 154.19 89.5278 153.77C89.7545 153.343 90.0645 153.013 90.4578 152.78C90.8578 152.547 91.3011 152.43 91.7878 152.43C92.2678 152.43 92.6845 152.533 93.0378 152.74C93.3911 152.947 93.6545 153.207 93.8278 153.52V152.52H94.7478V158H93.8278V156.98C93.6478 157.3 93.3778 157.567 93.0178 157.78C92.6645 157.987 92.2511 158.09 91.7778 158.09C91.2911 158.09 90.8511 157.97 90.4578 157.73C90.0645 157.49 89.7545 157.153 89.5278 156.72C89.3011 156.287 89.1878 155.793 89.1878 155.24ZM93.8278 155.25C93.8278 154.837 93.7445 154.477 93.5778 154.17C93.4111 153.863 93.1845 153.63 92.8978 153.47C92.6178 153.303 92.3078 153.22 91.9678 153.22C91.6278 153.22 91.3178 153.3 91.0378 153.46C90.7578 153.62 90.5345 153.853 90.3678 154.16C90.2011 154.467 90.1178 154.827 90.1178 155.24C90.1178 155.66 90.2011 156.027 90.3678 156.34C90.5345 156.647 90.7578 156.883 91.0378 157.05C91.3178 157.21 91.6278 157.29 91.9678 157.29C92.3078 157.29 92.6178 157.21 92.8978 157.05C93.1845 156.883 93.4111 156.647 93.5778 156.34C93.7445 156.027 93.8278 155.663 93.8278 155.25ZM102.876 152.42C103.302 152.42 103.682 152.51 104.016 152.69C104.349 152.863 104.612 153.127 104.806 153.48C104.999 153.833 105.096 154.263 105.096 154.77V158H104.196V154.9C104.196 154.353 104.059 153.937 103.786 153.65C103.519 153.357 103.156 153.21 102.696 153.21C102.222 153.21 101.846 153.363 101.566 153.67C101.286 153.97 101.146 154.407 101.146 154.98V158H100.246V154.9C100.246 154.353 100.109 153.937 99.8356 153.65C99.569 153.357 99.2056 153.21 98.7456 153.21C98.2723 153.21 97.8956 153.363 97.6156 153.67C97.3356 153.97 97.1956 154.407 97.1956 154.98V158H96.2856V152.52H97.1956V153.31C97.3756 153.023 97.6156 152.803 97.9156 152.65C98.2223 152.497 98.559 152.42 98.9256 152.42C99.3856 152.42 99.7923 152.523 100.146 152.73C100.499 152.937 100.762 153.24 100.936 153.64C101.089 153.253 101.342 152.953 101.696 152.74C102.049 152.527 102.442 152.42 102.876 152.42ZM111.588 155.05C111.588 155.223 111.578 155.407 111.558 155.6H107.178C107.212 156.14 107.395 156.563 107.728 156.87C108.068 157.17 108.478 157.32 108.958 157.32C109.352 157.32 109.678 157.23 109.938 157.05C110.205 156.863 110.392 156.617 110.498 156.31H111.478C111.332 156.837 111.038 157.267 110.598 157.6C110.158 157.927 109.612 158.09 108.958 158.09C108.438 158.09 107.972 157.973 107.558 157.74C107.152 157.507 106.832 157.177 106.598 156.75C106.365 156.317 106.248 155.817 106.248 155.25C106.248 154.683 106.362 154.187 106.588 153.76C106.815 153.333 107.132 153.007 107.538 152.78C107.952 152.547 108.425 152.43 108.958 152.43C109.478 152.43 109.938 152.543 110.338 152.77C110.738 152.997 111.045 153.31 111.258 153.71C111.478 154.103 111.588 154.55 111.588 155.05ZM110.648 154.86C110.648 154.513 110.572 154.217 110.418 153.97C110.265 153.717 110.055 153.527 109.788 153.4C109.528 153.267 109.238 153.2 108.918 153.2C108.458 153.2 108.065 153.347 107.738 153.64C107.418 153.933 107.235 154.34 107.188 154.86H110.648Z" fill="#6171A5"/>
</svg>
