<svg width="197" height="231" viewBox="0 0 197 231" fill="none" xmlns="http://www.w3.org/2000/svg">
<path d="M15.8618 53.0312L81.535 11.6094C92.7552 4.53253 107.067 4.62764 118.192 11.853L181.519 52.9812C191.174 59.2518 197 69.9825 197 81.4953V152.29C197 164.099 190.873 175.062 180.815 181.249L117.498 220.2C106.708 226.838 93.1217 226.926 82.2459 220.428L16.5624 181.187C6.29009 175.05 0 163.965 0 151.999V81.7889C0 70.1156 5.98842 59.2585 15.8618 53.0312Z" fill="#FFE3E4"/>
<path d="M97.552 86.384C97.552 87.0347 97.4027 87.632 97.104 88.176C96.8053 88.7093 96.3467 89.1413 95.728 89.472C95.1093 89.8027 94.3413 89.968 93.424 89.968H91.728V94H88.992V82.768H93.424C94.32 82.768 95.0773 82.9227 95.696 83.232C96.3147 83.5413 96.7787 83.968 97.088 84.512C97.3973 85.056 97.552 85.68 97.552 86.384ZM93.216 87.792C93.7387 87.792 94.128 87.6693 94.384 87.424C94.64 87.1787 94.768 86.832 94.768 86.384C94.768 85.936 94.64 85.5893 94.384 85.344C94.128 85.0987 93.7387 84.976 93.216 84.976H91.728V87.792H93.216ZM107.392 89.392C107.392 89.648 107.376 89.9147 107.344 90.192H101.152C101.195 90.7467 101.371 91.1733 101.68 91.472C102 91.76 102.39 91.904 102.848 91.904C103.531 91.904 104.006 91.616 104.272 91.04H107.184C107.035 91.6267 106.763 92.1547 106.368 92.624C105.984 93.0933 105.499 93.4613 104.912 93.728C104.326 93.9947 103.67 94.128 102.944 94.128C102.07 94.128 101.291 93.9413 100.608 93.568C99.9257 93.1947 99.3924 92.6613 99.0084 91.968C98.6244 91.2747 98.4324 90.464 98.4324 89.536C98.4324 88.608 98.619 87.7973 98.9924 87.104C99.3764 86.4107 99.9097 85.8773 100.592 85.504C101.275 85.1307 102.059 84.944 102.944 84.944C103.808 84.944 104.576 85.1253 105.248 85.488C105.92 85.8507 106.443 86.368 106.816 87.04C107.2 87.712 107.392 88.496 107.392 89.392ZM104.592 88.672C104.592 88.2027 104.432 87.8293 104.112 87.552C103.792 87.2747 103.392 87.136 102.912 87.136C102.454 87.136 102.064 87.2693 101.744 87.536C101.435 87.8027 101.243 88.1813 101.168 88.672H104.592ZM111.572 86.56C111.892 86.0693 112.292 85.6853 112.772 85.408C113.252 85.12 113.785 84.976 114.372 84.976V87.872H113.62C112.937 87.872 112.425 88.0213 112.084 88.32C111.742 88.608 111.572 89.12 111.572 89.856V94H108.836V85.072H111.572V86.56ZM120.16 87.344H118.688V94H115.952V87.344H114.96V85.072H115.952V84.816C115.952 83.7173 116.266 82.8853 116.896 82.32C117.525 81.744 118.448 81.456 119.664 81.456C119.866 81.456 120.016 81.4613 120.112 81.472V83.792C119.589 83.76 119.221 83.8347 119.008 84.016C118.794 84.1973 118.688 84.5227 118.688 84.992V85.072H120.16V87.344ZM129.861 89.392C129.861 89.648 129.845 89.9147 129.813 90.192H123.621C123.664 90.7467 123.84 91.1733 124.149 91.472C124.469 91.76 124.858 91.904 125.317 91.904C126 91.904 126.474 91.616 126.741 91.04H129.653C129.504 91.6267 129.232 92.1547 128.837 92.624C128.453 93.0933 127.968 93.4613 127.381 93.728C126.794 93.9947 126.138 94.128 125.413 94.128C124.538 94.128 123.76 93.9413 123.077 93.568C122.394 93.1947 121.861 92.6613 121.477 91.968C121.093 91.2747 120.901 90.464 120.901 89.536C120.901 88.608 121.088 87.7973 121.461 87.104C121.845 86.4107 122.378 85.8773 123.061 85.504C123.744 85.1307 124.528 84.944 125.413 84.944C126.277 84.944 127.045 85.1253 127.717 85.488C128.389 85.8507 128.912 86.368 129.285 87.04C129.669 87.712 129.861 88.496 129.861 89.392ZM127.061 88.672C127.061 88.2027 126.901 87.8293 126.581 87.552C126.261 87.2747 125.861 87.136 125.381 87.136C124.922 87.136 124.533 87.2693 124.213 87.536C123.904 87.8027 123.712 88.1813 123.637 88.672H127.061ZM130.761 89.536C130.761 88.608 130.947 87.7973 131.321 87.104C131.705 86.4107 132.233 85.8773 132.905 85.504C133.587 85.1307 134.366 84.944 135.241 84.944C136.361 84.944 137.294 85.2373 138.041 85.824C138.798 86.4107 139.294 87.2373 139.529 88.304H136.617C136.371 87.6213 135.897 87.28 135.193 87.28C134.691 87.28 134.291 87.4773 133.993 87.872C133.694 88.256 133.545 88.8107 133.545 89.536C133.545 90.2613 133.694 90.8213 133.993 91.216C134.291 91.6 134.691 91.792 135.193 91.792C135.897 91.792 136.371 91.4507 136.617 90.768H139.529C139.294 91.8133 138.798 92.6347 138.041 93.232C137.283 93.8293 136.35 94.128 135.241 94.128C134.366 94.128 133.587 93.9413 132.905 93.568C132.233 93.1947 131.705 92.6613 131.321 91.968C130.947 91.2747 130.761 90.464 130.761 89.536ZM145.968 91.68V94H144.576C143.584 94 142.811 93.76 142.256 93.28C141.701 92.7893 141.424 91.9947 141.424 90.896V87.344H140.336V85.072H141.424V82.896H144.16V85.072H145.952V87.344H144.16V90.928C144.16 91.1947 144.224 91.3867 144.352 91.504C144.48 91.6213 144.693 91.68 144.992 91.68H145.968ZM97.072 106.768V108.96H94.096V118H91.36V108.96H88.384V106.768H97.072ZM99.8211 108.144C99.3411 108.144 98.9465 108.005 98.6371 107.728C98.3385 107.44 98.1891 107.088 98.1891 106.672C98.1891 106.245 98.3385 105.893 98.6371 105.616C98.9465 105.328 99.3411 105.184 99.8211 105.184C100.29 105.184 100.674 105.328 100.973 105.616C101.282 105.893 101.437 106.245 101.437 106.672C101.437 107.088 101.282 107.44 100.973 107.728C100.674 108.005 100.29 108.144 99.8211 108.144ZM101.181 109.072V118H98.4451V109.072H101.181ZM114.556 108.976C115.665 108.976 116.545 109.312 117.196 109.984C117.857 110.656 118.188 111.589 118.188 112.784V118H115.468V113.152C115.468 112.576 115.313 112.133 115.004 111.824C114.705 111.504 114.289 111.344 113.756 111.344C113.223 111.344 112.801 111.504 112.492 111.824C112.193 112.133 112.044 112.576 112.044 113.152V118H109.324V113.152C109.324 112.576 109.169 112.133 108.86 111.824C108.561 111.504 108.145 111.344 107.612 111.344C107.079 111.344 106.657 111.504 106.348 111.824C106.049 112.133 105.9 112.576 105.9 113.152V118H103.164V109.072H105.9V110.192C106.177 109.819 106.54 109.525 106.988 109.312C107.436 109.088 107.943 108.976 108.508 108.976C109.18 108.976 109.777 109.12 110.3 109.408C110.833 109.696 111.249 110.107 111.548 110.64C111.857 110.149 112.279 109.749 112.812 109.44C113.345 109.131 113.927 108.976 114.556 108.976ZM121.477 108.144C120.997 108.144 120.603 108.005 120.293 107.728C119.995 107.44 119.845 107.088 119.845 106.672C119.845 106.245 119.995 105.893 120.293 105.616C120.603 105.328 120.997 105.184 121.477 105.184C121.947 105.184 122.331 105.328 122.629 105.616C122.939 105.893 123.093 106.245 123.093 106.672C123.093 107.088 122.939 107.44 122.629 107.728C122.331 108.005 121.947 108.144 121.477 108.144ZM122.837 109.072V118H120.101V109.072H122.837ZM130.26 108.976C131.305 108.976 132.137 109.317 132.756 110C133.385 110.672 133.7 111.6 133.7 112.784V118H130.98V113.152C130.98 112.555 130.825 112.091 130.516 111.76C130.207 111.429 129.791 111.264 129.268 111.264C128.745 111.264 128.329 111.429 128.02 111.76C127.711 112.091 127.556 112.555 127.556 113.152V118H124.82V109.072H127.556V110.256C127.833 109.861 128.207 109.552 128.676 109.328C129.145 109.093 129.673 108.976 130.26 108.976ZM138.993 108.944C139.623 108.944 140.172 109.072 140.641 109.328C141.121 109.584 141.489 109.92 141.745 110.336V109.072H144.481V117.984C144.481 118.805 144.316 119.547 143.985 120.208C143.665 120.88 143.169 121.413 142.497 121.808C141.836 122.203 141.009 122.4 140.017 122.4C138.695 122.4 137.623 122.085 136.801 121.456C135.98 120.837 135.511 119.995 135.393 118.928H138.097C138.183 119.269 138.385 119.536 138.705 119.728C139.025 119.931 139.42 120.032 139.889 120.032C140.455 120.032 140.903 119.867 141.233 119.536C141.575 119.216 141.745 118.699 141.745 117.984V116.72C141.479 117.136 141.111 117.477 140.641 117.744C140.172 118 139.623 118.128 138.993 118.128C138.257 118.128 137.591 117.941 136.993 117.568C136.396 117.184 135.921 116.645 135.569 115.952C135.228 115.248 135.057 114.437 135.057 113.52C135.057 112.603 135.228 111.797 135.569 111.104C135.921 110.411 136.396 109.877 136.993 109.504C137.591 109.131 138.257 108.944 138.993 108.944ZM141.745 113.536C141.745 112.853 141.553 112.315 141.169 111.92C140.796 111.525 140.337 111.328 139.793 111.328C139.249 111.328 138.785 111.525 138.401 111.92C138.028 112.304 137.841 112.837 137.841 113.52C137.841 114.203 138.028 114.747 138.401 115.152C138.785 115.547 139.249 115.744 139.793 115.744C140.337 115.744 140.796 115.547 141.169 115.152C141.553 114.757 141.745 114.219 141.745 113.536Z" fill="#880109"/>
<path d="M90.98 136.07C90.52 136.07 90.1067 135.99 89.74 135.83C89.38 135.663 89.0967 135.437 88.89 135.15C88.6833 134.857 88.5767 134.52 88.57 134.14H89.54C89.5733 134.467 89.7067 134.743 89.94 134.97C90.18 135.19 90.5267 135.3 90.98 135.3C91.4133 135.3 91.7533 135.193 92 134.98C92.2533 134.76 92.38 134.48 92.38 134.14C92.38 133.873 92.3067 133.657 92.16 133.49C92.0133 133.323 91.83 133.197 91.61 133.11C91.39 133.023 91.0933 132.93 90.72 132.83C90.26 132.71 89.89 132.59 89.61 132.47C89.3367 132.35 89.1 132.163 88.9 131.91C88.7067 131.65 88.61 131.303 88.61 130.87C88.61 130.49 88.7067 130.153 88.9 129.86C89.0933 129.567 89.3633 129.34 89.71 129.18C90.0633 129.02 90.4667 128.94 90.92 128.94C91.5733 128.94 92.1067 129.103 92.52 129.43C92.94 129.757 93.1767 130.19 93.23 130.73H92.23C92.1967 130.463 92.0567 130.23 91.81 130.03C91.5633 129.823 91.2367 129.72 90.83 129.72C90.45 129.72 90.14 129.82 89.9 130.02C89.66 130.213 89.54 130.487 89.54 130.84C89.54 131.093 89.61 131.3 89.75 131.46C89.8967 131.62 90.0733 131.743 90.28 131.83C90.4933 131.91 90.79 132.003 91.17 132.11C91.63 132.237 92 132.363 92.28 132.49C92.56 132.61 92.8 132.8 93 133.06C93.2 133.313 93.3 133.66 93.3 134.1C93.3 134.44 93.21 134.76 93.03 135.06C92.85 135.36 92.5833 135.603 92.23 135.79C91.8767 135.977 91.46 136.07 90.98 136.07ZM94.2991 133.25C94.2991 132.683 94.4125 132.19 94.6391 131.77C94.8658 131.343 95.1791 131.013 95.5791 130.78C95.9858 130.547 96.4491 130.43 96.9691 130.43C97.6425 130.43 98.1958 130.593 98.6291 130.92C99.0691 131.247 99.3591 131.7 99.4991 132.28H98.5191C98.4258 131.947 98.2425 131.683 97.9691 131.49C97.7025 131.297 97.3691 131.2 96.9691 131.2C96.4491 131.2 96.0291 131.38 95.7091 131.74C95.3891 132.093 95.2291 132.597 95.2291 133.25C95.2291 133.91 95.3891 134.42 95.7091 134.78C96.0291 135.14 96.4491 135.32 96.9691 135.32C97.3691 135.32 97.7025 135.227 97.9691 135.04C98.2358 134.853 98.4191 134.587 98.5191 134.24H99.4991C99.3525 134.8 99.0591 135.25 98.6191 135.59C98.1791 135.923 97.6291 136.09 96.9691 136.09C96.4491 136.09 95.9858 135.973 95.5791 135.74C95.1791 135.507 94.8658 135.177 94.6391 134.75C94.4125 134.323 94.2991 133.823 94.2991 133.25ZM103.103 136.09C102.59 136.09 102.123 135.973 101.703 135.74C101.29 135.507 100.963 135.177 100.723 134.75C100.49 134.317 100.373 133.817 100.373 133.25C100.373 132.69 100.493 132.197 100.733 131.77C100.98 131.337 101.313 131.007 101.733 130.78C102.153 130.547 102.623 130.43 103.143 130.43C103.663 130.43 104.133 130.547 104.553 130.78C104.973 131.007 105.303 131.333 105.543 131.76C105.79 132.187 105.913 132.683 105.913 133.25C105.913 133.817 105.787 134.317 105.533 134.75C105.287 135.177 104.95 135.507 104.523 135.74C104.097 135.973 103.623 136.09 103.103 136.09ZM103.103 135.29C103.43 135.29 103.737 135.213 104.023 135.06C104.31 134.907 104.54 134.677 104.713 134.37C104.893 134.063 104.983 133.69 104.983 133.25C104.983 132.81 104.897 132.437 104.723 132.13C104.55 131.823 104.323 131.597 104.043 131.45C103.763 131.297 103.46 131.22 103.133 131.22C102.8 131.22 102.493 131.297 102.213 131.45C101.94 131.597 101.72 131.823 101.553 132.13C101.387 132.437 101.303 132.81 101.303 133.25C101.303 133.697 101.383 134.073 101.543 134.38C101.71 134.687 101.93 134.917 102.203 135.07C102.477 135.217 102.777 135.29 103.103 135.29ZM108.02 131.41C108.18 131.097 108.407 130.853 108.7 130.68C109 130.507 109.363 130.42 109.79 130.42V131.36H109.55C108.53 131.36 108.02 131.913 108.02 133.02V136H107.11V130.52H108.02V131.41ZM115.84 133.05C115.84 133.223 115.83 133.407 115.81 133.6H111.43C111.464 134.14 111.647 134.563 111.98 134.87C112.32 135.17 112.73 135.32 113.21 135.32C113.604 135.32 113.93 135.23 114.19 135.05C114.457 134.863 114.644 134.617 114.75 134.31H115.73C115.584 134.837 115.29 135.267 114.85 135.6C114.41 135.927 113.864 136.09 113.21 136.09C112.69 136.09 112.224 135.973 111.81 135.74C111.404 135.507 111.084 135.177 110.85 134.75C110.617 134.317 110.5 133.817 110.5 133.25C110.5 132.683 110.614 132.187 110.84 131.76C111.067 131.333 111.384 131.007 111.79 130.78C112.204 130.547 112.677 130.43 113.21 130.43C113.73 130.43 114.19 130.543 114.59 130.77C114.99 130.997 115.297 131.31 115.51 131.71C115.73 132.103 115.84 132.55 115.84 133.05ZM114.9 132.86C114.9 132.513 114.824 132.217 114.67 131.97C114.517 131.717 114.307 131.527 114.04 131.4C113.78 131.267 113.49 131.2 113.17 131.2C112.71 131.2 112.317 131.347 111.99 131.64C111.67 131.933 111.487 132.34 111.44 132.86H114.9ZM119.318 129.6V128.77H121.198V136H120.278V129.6H119.318ZM122.761 132.31C122.761 131.163 122.947 130.27 123.321 129.63C123.694 128.983 124.347 128.66 125.281 128.66C126.207 128.66 126.857 128.983 127.231 129.63C127.604 130.27 127.791 131.163 127.791 132.31C127.791 133.477 127.604 134.383 127.231 135.03C126.857 135.677 126.207 136 125.281 136C124.347 136 123.694 135.677 123.321 135.03C122.947 134.383 122.761 133.477 122.761 132.31ZM126.891 132.31C126.891 131.73 126.851 131.24 126.771 130.84C126.697 130.433 126.541 130.107 126.301 129.86C126.067 129.613 125.727 129.49 125.281 129.49C124.827 129.49 124.481 129.613 124.241 129.86C124.007 130.107 123.851 130.433 123.771 130.84C123.697 131.24 123.661 131.73 123.661 132.31C123.661 132.91 123.697 133.413 123.771 133.82C123.851 134.227 124.007 134.553 124.241 134.8C124.481 135.047 124.827 135.17 125.281 135.17C125.727 135.17 126.067 135.047 126.301 134.8C126.541 134.553 126.697 134.227 126.771 133.82C126.851 133.413 126.891 132.91 126.891 132.31ZM131.516 133.25C131.516 132.683 131.629 132.19 131.856 131.77C132.083 131.343 132.396 131.013 132.796 130.78C133.203 130.547 133.666 130.43 134.186 130.43C134.859 130.43 135.413 130.593 135.846 130.92C136.286 131.247 136.576 131.7 136.716 132.28H135.736C135.643 131.947 135.459 131.683 135.186 131.49C134.919 131.297 134.586 131.2 134.186 131.2C133.666 131.2 133.246 131.38 132.926 131.74C132.606 132.093 132.446 132.597 132.446 133.25C132.446 133.91 132.606 134.42 132.926 134.78C133.246 135.14 133.666 135.32 134.186 135.32C134.586 135.32 134.919 135.227 135.186 135.04C135.453 134.853 135.636 134.587 135.736 134.24H136.716C136.569 134.8 136.276 135.25 135.836 135.59C135.396 135.923 134.846 136.09 134.186 136.09C133.666 136.09 133.203 135.973 132.796 135.74C132.396 135.507 132.083 135.177 131.856 134.75C131.629 134.323 131.516 133.823 131.516 133.25ZM140.32 136.09C139.807 136.09 139.34 135.973 138.92 135.74C138.507 135.507 138.18 135.177 137.94 134.75C137.707 134.317 137.59 133.817 137.59 133.25C137.59 132.69 137.71 132.197 137.95 131.77C138.197 131.337 138.53 131.007 138.95 130.78C139.37 130.547 139.84 130.43 140.36 130.43C140.88 130.43 141.35 130.547 141.77 130.78C142.19 131.007 142.52 131.333 142.76 131.76C143.007 132.187 143.13 132.683 143.13 133.25C143.13 133.817 143.003 134.317 142.75 134.75C142.503 135.177 142.167 135.507 141.74 135.74C141.313 135.973 140.84 136.09 140.32 136.09ZM140.32 135.29C140.647 135.29 140.953 135.213 141.24 135.06C141.527 134.907 141.757 134.677 141.93 134.37C142.11 134.063 142.2 133.69 142.2 133.25C142.2 132.81 142.113 132.437 141.94 132.13C141.767 131.823 141.54 131.597 141.26 131.45C140.98 131.297 140.677 131.22 140.35 131.22C140.017 131.22 139.71 131.297 139.43 131.45C139.157 131.597 138.937 131.823 138.77 132.13C138.603 132.437 138.52 132.81 138.52 133.25C138.52 133.697 138.6 134.073 138.76 134.38C138.927 134.687 139.147 134.917 139.42 135.07C139.693 135.217 139.993 135.29 140.32 135.29ZM146.997 130.42C147.663 130.42 148.203 130.623 148.617 131.03C149.03 131.43 149.237 132.01 149.237 132.77V136H148.337V132.9C148.337 132.353 148.2 131.937 147.927 131.65C147.653 131.357 147.28 131.21 146.807 131.21C146.327 131.21 145.943 131.36 145.657 131.66C145.377 131.96 145.237 132.397 145.237 132.97V136H144.327V130.52H145.237V131.3C145.417 131.02 145.66 130.803 145.967 130.65C146.28 130.497 146.623 130.42 146.997 130.42ZM152.663 136.09C152.243 136.09 151.866 136.02 151.533 135.88C151.2 135.733 150.936 135.533 150.743 135.28C150.55 135.02 150.443 134.723 150.423 134.39H151.363C151.39 134.663 151.516 134.887 151.743 135.06C151.976 135.233 152.28 135.32 152.653 135.32C153 135.32 153.273 135.243 153.473 135.09C153.673 134.937 153.773 134.743 153.773 134.51C153.773 134.27 153.666 134.093 153.453 133.98C153.24 133.86 152.91 133.743 152.463 133.63C152.056 133.523 151.723 133.417 151.463 133.31C151.21 133.197 150.99 133.033 150.803 132.82C150.623 132.6 150.533 132.313 150.533 131.96C150.533 131.68 150.616 131.423 150.783 131.19C150.95 130.957 151.186 130.773 151.493 130.64C151.8 130.5 152.15 130.43 152.543 130.43C153.15 130.43 153.64 130.583 154.013 130.89C154.386 131.197 154.586 131.617 154.613 132.15H153.703C153.683 131.863 153.566 131.633 153.353 131.46C153.146 131.287 152.866 131.2 152.513 131.2C152.186 131.2 151.926 131.27 151.733 131.41C151.54 131.55 151.443 131.733 151.443 131.96C151.443 132.14 151.5 132.29 151.613 132.41C151.733 132.523 151.88 132.617 152.053 132.69C152.233 132.757 152.48 132.833 152.793 132.92C153.186 133.027 153.506 133.133 153.753 133.24C154 133.34 154.21 133.493 154.383 133.7C154.563 133.907 154.656 134.177 154.663 134.51C154.663 134.81 154.58 135.08 154.413 135.32C154.246 135.56 154.01 135.75 153.703 135.89C153.403 136.023 153.056 136.09 152.663 136.09ZM160.948 133.05C160.948 133.223 160.938 133.407 160.918 133.6H156.538C156.571 134.14 156.754 134.563 157.088 134.87C157.428 135.17 157.838 135.32 158.318 135.32C158.711 135.32 159.038 135.23 159.298 135.05C159.564 134.863 159.751 134.617 159.858 134.31H160.838C160.691 134.837 160.398 135.267 159.958 135.6C159.518 135.927 158.971 136.09 158.318 136.09C157.798 136.09 157.331 135.973 156.918 135.74C156.511 135.507 156.191 135.177 155.958 134.75C155.724 134.317 155.608 133.817 155.608 133.25C155.608 132.683 155.721 132.187 155.948 131.76C156.174 131.333 156.491 131.007 156.898 130.78C157.311 130.547 157.784 130.43 158.318 130.43C158.838 130.43 159.298 130.543 159.698 130.77C160.098 130.997 160.404 131.31 160.618 131.71C160.838 132.103 160.948 132.55 160.948 133.05ZM160.008 132.86C160.008 132.513 159.931 132.217 159.778 131.97C159.624 131.717 159.414 131.527 159.148 131.4C158.888 131.267 158.598 131.2 158.278 131.2C157.818 131.2 157.424 131.347 157.098 131.64C156.778 131.933 156.594 132.34 156.548 132.86H160.008ZM161.809 133.25C161.809 132.683 161.922 132.19 162.149 131.77C162.376 131.343 162.689 131.013 163.089 130.78C163.496 130.547 163.959 130.43 164.479 130.43C165.152 130.43 165.706 130.593 166.139 130.92C166.579 131.247 166.869 131.7 167.009 132.28H166.029C165.936 131.947 165.752 131.683 165.479 131.49C165.212 131.297 164.879 131.2 164.479 131.2C163.959 131.2 163.539 131.38 163.219 131.74C162.899 132.093 162.739 132.597 162.739 133.25C162.739 133.91 162.899 134.42 163.219 134.78C163.539 135.14 163.959 135.32 164.479 135.32C164.879 135.32 165.212 135.227 165.479 135.04C165.746 134.853 165.929 134.587 166.029 134.24H167.009C166.862 134.8 166.569 135.25 166.129 135.59C165.689 135.923 165.139 136.09 164.479 136.09C163.959 136.09 163.496 135.973 163.089 135.74C162.689 135.507 162.376 135.177 162.149 134.75C161.922 134.323 161.809 133.823 161.809 133.25ZM173.083 130.52V136H172.173V135.19C172 135.47 171.756 135.69 171.443 135.85C171.136 136.003 170.796 136.08 170.423 136.08C169.996 136.08 169.613 135.993 169.273 135.82C168.933 135.64 168.663 135.373 168.463 135.02C168.27 134.667 168.173 134.237 168.173 133.73V130.52H169.073V133.61C169.073 134.15 169.21 134.567 169.483 134.86C169.756 135.147 170.13 135.29 170.603 135.29C171.09 135.29 171.473 135.14 171.753 134.84C172.033 134.54 172.173 134.103 172.173 133.53V130.52H173.083ZM175.73 131.27V134.5C175.73 134.767 175.786 134.957 175.9 135.07C176.013 135.177 176.21 135.23 176.49 135.23H177.16V136H176.34C175.833 136 175.453 135.883 175.2 135.65C174.946 135.417 174.82 135.033 174.82 134.5V131.27H174.11V130.52H174.82V129.14H175.73V130.52H177.16V131.27H175.73ZM178.732 129.63C178.559 129.63 178.412 129.57 178.292 129.45C178.172 129.33 178.112 129.183 178.112 129.01C178.112 128.837 178.172 128.69 178.292 128.57C178.412 128.45 178.559 128.39 178.732 128.39C178.899 128.39 179.039 128.45 179.152 128.57C179.272 128.69 179.332 128.837 179.332 129.01C179.332 129.183 179.272 129.33 179.152 129.45C179.039 129.57 178.899 129.63 178.732 129.63ZM179.172 130.52V136H178.262V130.52H179.172ZM182.763 135.16L184.463 130.52H185.433L183.283 136H182.223L180.073 130.52H181.053L182.763 135.16ZM191.329 133.05C191.329 133.223 191.319 133.407 191.299 133.6H186.919C186.952 134.14 187.135 134.563 187.469 134.87C187.809 135.17 188.219 135.32 188.699 135.32C189.092 135.32 189.419 135.23 189.679 135.05C189.945 134.863 190.132 134.617 190.239 134.31H191.219C191.072 134.837 190.779 135.267 190.339 135.6C189.899 135.927 189.352 136.09 188.699 136.09C188.179 136.09 187.712 135.973 187.299 135.74C186.892 135.507 186.572 135.177 186.339 134.75C186.105 134.317 185.989 133.817 185.989 133.25C185.989 132.683 186.102 132.187 186.329 131.76C186.555 131.333 186.872 131.007 187.279 130.78C187.692 130.547 188.165 130.43 188.699 130.43C189.219 130.43 189.679 130.543 190.079 130.77C190.479 130.997 190.785 131.31 190.999 131.71C191.219 132.103 191.329 132.55 191.329 133.05ZM190.389 132.86C190.389 132.513 190.312 132.217 190.159 131.97C190.005 131.717 189.795 131.527 189.529 131.4C189.269 131.267 188.979 131.2 188.659 131.2C188.199 131.2 187.805 131.347 187.479 131.64C187.159 131.933 186.975 132.34 186.929 132.86H190.389ZM91.49 145.42C91.9033 145.42 92.2767 145.51 92.61 145.69C92.9433 145.863 93.2033 146.127 93.39 146.48C93.5833 146.833 93.68 147.263 93.68 147.77V151H92.78V147.9C92.78 147.353 92.6433 146.937 92.37 146.65C92.0967 146.357 91.7233 146.21 91.25 146.21C90.77 146.21 90.3867 146.36 90.1 146.66C89.82 146.96 89.68 147.397 89.68 147.97V151H88.77V143.6H89.68V146.3C89.86 146.02 90.1067 145.803 90.42 145.65C90.74 145.497 91.0967 145.42 91.49 145.42ZM95.6365 144.63C95.4632 144.63 95.3165 144.57 95.1965 144.45C95.0765 144.33 95.0165 144.183 95.0165 144.01C95.0165 143.837 95.0765 143.69 95.1965 143.57C95.3165 143.45 95.4632 143.39 95.6365 143.39C95.8032 143.39 95.9432 143.45 96.0565 143.57C96.1765 143.69 96.2365 143.837 96.2365 144.01C96.2365 144.183 96.1765 144.33 96.0565 144.45C95.9432 144.57 95.8032 144.63 95.6365 144.63ZM96.0765 145.52V151H95.1665V145.52H96.0765ZM98.7374 146.27V149.5C98.7374 149.767 98.7941 149.957 98.9074 150.07C99.0208 150.177 99.2174 150.23 99.4974 150.23H100.167V151H99.3474C98.8408 151 98.4608 150.883 98.2074 150.65C97.9541 150.417 97.8274 150.033 97.8274 149.5V146.27H97.1174V145.52H97.8274V144.14H98.7374V145.52H100.167V146.27H98.7374ZM103.21 151.09C102.79 151.09 102.413 151.02 102.08 150.88C101.747 150.733 101.483 150.533 101.29 150.28C101.097 150.02 100.99 149.723 100.97 149.39H101.91C101.937 149.663 102.063 149.887 102.29 150.06C102.523 150.233 102.827 150.32 103.2 150.32C103.547 150.32 103.82 150.243 104.02 150.09C104.22 149.937 104.32 149.743 104.32 149.51C104.32 149.27 104.213 149.093 104 148.98C103.787 148.86 103.457 148.743 103.01 148.63C102.603 148.523 102.27 148.417 102.01 148.31C101.757 148.197 101.537 148.033 101.35 147.82C101.17 147.6 101.08 147.313 101.08 146.96C101.08 146.68 101.163 146.423 101.33 146.19C101.497 145.957 101.733 145.773 102.04 145.64C102.347 145.5 102.697 145.43 103.09 145.43C103.697 145.43 104.187 145.583 104.56 145.89C104.933 146.197 105.133 146.617 105.16 147.15H104.25C104.23 146.863 104.113 146.633 103.9 146.46C103.693 146.287 103.413 146.2 103.06 146.2C102.733 146.2 102.473 146.27 102.28 146.41C102.087 146.55 101.99 146.733 101.99 146.96C101.99 147.14 102.047 147.29 102.16 147.41C102.28 147.523 102.427 147.617 102.6 147.69C102.78 147.757 103.027 147.833 103.34 147.92C103.733 148.027 104.053 148.133 104.3 148.24C104.547 148.34 104.757 148.493 104.93 148.7C105.11 148.907 105.203 149.177 105.21 149.51C105.21 149.81 105.127 150.08 104.96 150.32C104.793 150.56 104.557 150.75 104.25 150.89C103.95 151.023 103.603 151.09 103.21 151.09ZM116.461 145.52L114.751 151H113.811L112.491 146.65L111.171 151H110.231L108.511 145.52H109.441L110.701 150.12L112.061 145.52H112.991L114.321 150.13L115.561 145.52H116.461ZM117.834 144.63C117.66 144.63 117.514 144.57 117.394 144.45C117.274 144.33 117.214 144.183 117.214 144.01C117.214 143.837 117.274 143.69 117.394 143.57C117.514 143.45 117.66 143.39 117.834 143.39C118 143.39 118.14 143.45 118.254 143.57C118.374 143.69 118.434 143.837 118.434 144.01C118.434 144.183 118.374 144.33 118.254 144.45C118.14 144.57 118 144.63 117.834 144.63ZM118.274 145.52V151H117.364V145.52H118.274ZM120.935 146.27V149.5C120.935 149.767 120.991 149.957 121.105 150.07C121.218 150.177 121.415 150.23 121.695 150.23H122.365V151H121.545C121.038 151 120.658 150.883 120.405 150.65C120.151 150.417 120.025 150.033 120.025 149.5V146.27H119.315V145.52H120.025V144.14H120.935V145.52H122.365V146.27H120.935ZM126.187 145.42C126.601 145.42 126.974 145.51 127.307 145.69C127.641 145.863 127.901 146.127 128.087 146.48C128.281 146.833 128.377 147.263 128.377 147.77V151H127.477V147.9C127.477 147.353 127.341 146.937 127.067 146.65C126.794 146.357 126.421 146.21 125.947 146.21C125.467 146.21 125.084 146.36 124.797 146.66C124.517 146.96 124.377 147.397 124.377 147.97V151H123.467V143.6H124.377V146.3C124.557 146.02 124.804 145.803 125.117 145.65C125.437 145.497 125.794 145.42 126.187 145.42ZM132.254 151.09C131.74 151.09 131.274 150.973 130.854 150.74C130.44 150.507 130.114 150.177 129.874 149.75C129.64 149.317 129.524 148.817 129.524 148.25C129.524 147.69 129.644 147.197 129.884 146.77C130.13 146.337 130.464 146.007 130.884 145.78C131.304 145.547 131.774 145.43 132.294 145.43C132.814 145.43 133.284 145.547 133.704 145.78C134.124 146.007 134.454 146.333 134.694 146.76C134.94 147.187 135.064 147.683 135.064 148.25C135.064 148.817 134.937 149.317 134.684 149.75C134.437 150.177 134.1 150.507 133.674 150.74C133.247 150.973 132.774 151.09 132.254 151.09ZM132.254 150.29C132.58 150.29 132.887 150.213 133.174 150.06C133.46 149.907 133.69 149.677 133.864 149.37C134.044 149.063 134.134 148.69 134.134 148.25C134.134 147.81 134.047 147.437 133.874 147.13C133.7 146.823 133.474 146.597 133.194 146.45C132.914 146.297 132.61 146.22 132.284 146.22C131.95 146.22 131.644 146.297 131.364 146.45C131.09 146.597 130.87 146.823 130.704 147.13C130.537 147.437 130.454 147.81 130.454 148.25C130.454 148.697 130.534 149.073 130.694 149.38C130.86 149.687 131.08 149.917 131.354 150.07C131.627 150.217 131.927 150.29 132.254 150.29ZM141.12 145.52V151H140.21V150.19C140.037 150.47 139.794 150.69 139.48 150.85C139.174 151.003 138.834 151.08 138.46 151.08C138.034 151.08 137.65 150.993 137.31 150.82C136.97 150.64 136.7 150.373 136.5 150.02C136.307 149.667 136.21 149.237 136.21 148.73V145.52H137.11V148.61C137.11 149.15 137.247 149.567 137.52 149.86C137.794 150.147 138.167 150.29 138.64 150.29C139.127 150.29 139.51 150.14 139.79 149.84C140.07 149.54 140.21 149.103 140.21 148.53V145.52H141.12ZM143.767 146.27V149.5C143.767 149.767 143.823 149.957 143.937 150.07C144.05 150.177 144.247 150.23 144.527 150.23H145.197V151H144.377C143.87 151 143.49 150.883 143.237 150.65C142.983 150.417 142.857 150.033 142.857 149.5V146.27H142.147V145.52H142.857V144.14H143.767V145.52H145.197V146.27H143.767ZM155.555 145.42C155.982 145.42 156.362 145.51 156.695 145.69C157.029 145.863 157.292 146.127 157.485 146.48C157.679 146.833 157.775 147.263 157.775 147.77V151H156.875V147.9C156.875 147.353 156.739 146.937 156.465 146.65C156.199 146.357 155.835 146.21 155.375 146.21C154.902 146.21 154.525 146.363 154.245 146.67C153.965 146.97 153.825 147.407 153.825 147.98V151H152.925V147.9C152.925 147.353 152.789 146.937 152.515 146.65C152.249 146.357 151.885 146.21 151.425 146.21C150.952 146.21 150.575 146.363 150.295 146.67C150.015 146.97 149.875 147.407 149.875 147.98V151H148.965V145.52H149.875V146.31C150.055 146.023 150.295 145.803 150.595 145.65C150.902 145.497 151.239 145.42 151.605 145.42C152.065 145.42 152.472 145.523 152.825 145.73C153.179 145.937 153.442 146.24 153.615 146.64C153.769 146.253 154.022 145.953 154.375 145.74C154.729 145.527 155.122 145.42 155.555 145.42ZM159.738 144.63C159.565 144.63 159.418 144.57 159.298 144.45C159.178 144.33 159.118 144.183 159.118 144.01C159.118 143.837 159.178 143.69 159.298 143.57C159.418 143.45 159.565 143.39 159.738 143.39C159.905 143.39 160.045 143.45 160.158 143.57C160.278 143.69 160.338 143.837 160.338 144.01C160.338 144.183 160.278 144.33 160.158 144.45C160.045 144.57 159.905 144.63 159.738 144.63ZM160.178 145.52V151H159.268V145.52H160.178ZM163.669 151.09C163.249 151.09 162.872 151.02 162.539 150.88C162.206 150.733 161.942 150.533 161.749 150.28C161.556 150.02 161.449 149.723 161.429 149.39H162.369C162.396 149.663 162.522 149.887 162.749 150.06C162.982 150.233 163.286 150.32 163.659 150.32C164.006 150.32 164.279 150.243 164.479 150.09C164.679 149.937 164.779 149.743 164.779 149.51C164.779 149.27 164.672 149.093 164.459 148.98C164.246 148.86 163.916 148.743 163.469 148.63C163.062 148.523 162.729 148.417 162.469 148.31C162.216 148.197 161.996 148.033 161.809 147.82C161.629 147.6 161.539 147.313 161.539 146.96C161.539 146.68 161.622 146.423 161.789 146.19C161.956 145.957 162.192 145.773 162.499 145.64C162.806 145.5 163.156 145.43 163.549 145.43C164.156 145.43 164.646 145.583 165.019 145.89C165.392 146.197 165.592 146.617 165.619 147.15H164.709C164.689 146.863 164.572 146.633 164.359 146.46C164.152 146.287 163.872 146.2 163.519 146.2C163.192 146.2 162.932 146.27 162.739 146.41C162.546 146.55 162.449 146.733 162.449 146.96C162.449 147.14 162.506 147.29 162.619 147.41C162.739 147.523 162.886 147.617 163.059 147.69C163.239 147.757 163.486 147.833 163.799 147.92C164.192 148.027 164.512 148.133 164.759 148.24C165.006 148.34 165.216 148.493 165.389 148.7C165.569 148.907 165.662 149.177 165.669 149.51C165.669 149.81 165.586 150.08 165.419 150.32C165.252 150.56 165.016 150.75 164.709 150.89C164.409 151.023 164.062 151.09 163.669 151.09ZM168.894 151.09C168.474 151.09 168.097 151.02 167.764 150.88C167.43 150.733 167.167 150.533 166.974 150.28C166.78 150.02 166.674 149.723 166.654 149.39H167.594C167.62 149.663 167.747 149.887 167.974 150.06C168.207 150.233 168.51 150.32 168.884 150.32C169.23 150.32 169.504 150.243 169.704 150.09C169.904 149.937 170.004 149.743 170.004 149.51C170.004 149.27 169.897 149.093 169.684 148.98C169.47 148.86 169.14 148.743 168.694 148.63C168.287 148.523 167.954 148.417 167.694 148.31C167.44 148.197 167.22 148.033 167.034 147.82C166.854 147.6 166.764 147.313 166.764 146.96C166.764 146.68 166.847 146.423 167.014 146.19C167.18 145.957 167.417 145.773 167.724 145.64C168.03 145.5 168.38 145.43 168.774 145.43C169.38 145.43 169.87 145.583 170.244 145.89C170.617 146.197 170.817 146.617 170.844 147.15H169.934C169.914 146.863 169.797 146.633 169.584 146.46C169.377 146.287 169.097 146.2 168.744 146.2C168.417 146.2 168.157 146.27 167.964 146.41C167.77 146.55 167.674 146.733 167.674 146.96C167.674 147.14 167.73 147.29 167.844 147.41C167.964 147.523 168.11 147.617 168.284 147.69C168.464 147.757 168.71 147.833 169.024 147.92C169.417 148.027 169.737 148.133 169.984 148.24C170.23 148.34 170.44 148.493 170.614 148.7C170.794 148.907 170.887 149.177 170.894 149.51C170.894 149.81 170.81 150.08 170.644 150.32C170.477 150.56 170.24 150.75 169.934 150.89C169.634 151.023 169.287 151.09 168.894 151.09ZM172.648 144.63C172.475 144.63 172.328 144.57 172.208 144.45C172.088 144.33 172.028 144.183 172.028 144.01C172.028 143.837 172.088 143.69 172.208 143.57C172.328 143.45 172.475 143.39 172.648 143.39C172.815 143.39 172.955 143.45 173.068 143.57C173.188 143.69 173.248 143.837 173.248 144.01C173.248 144.183 173.188 144.33 173.068 144.45C172.955 144.57 172.815 144.63 172.648 144.63ZM173.088 145.52V151H172.178V145.52H173.088ZM177.309 145.42C177.976 145.42 178.516 145.623 178.929 146.03C179.342 146.43 179.549 147.01 179.549 147.77V151H178.649V147.9C178.649 147.353 178.512 146.937 178.239 146.65C177.966 146.357 177.592 146.21 177.119 146.21C176.639 146.21 176.256 146.36 175.969 146.66C175.689 146.96 175.549 147.397 175.549 147.97V151H174.639V145.52H175.549V146.3C175.729 146.02 175.972 145.803 176.279 145.65C176.592 145.497 176.936 145.42 177.309 145.42ZM183.296 145.43C183.769 145.43 184.182 145.533 184.536 145.74C184.896 145.947 185.162 146.207 185.336 146.52V145.52H186.256V151.12C186.256 151.62 186.149 152.063 185.936 152.45C185.722 152.843 185.416 153.15 185.016 153.37C184.622 153.59 184.162 153.7 183.636 153.7C182.916 153.7 182.316 153.53 181.836 153.19C181.356 152.85 181.072 152.387 180.986 151.8H181.886C181.986 152.133 182.192 152.4 182.506 152.6C182.819 152.807 183.196 152.91 183.636 152.91C184.136 152.91 184.542 152.753 184.856 152.44C185.176 152.127 185.336 151.687 185.336 151.12V149.97C185.156 150.29 184.889 150.557 184.536 150.77C184.182 150.983 183.769 151.09 183.296 151.09C182.809 151.09 182.366 150.97 181.966 150.73C181.572 150.49 181.262 150.153 181.036 149.72C180.809 149.287 180.696 148.793 180.696 148.24C180.696 147.68 180.809 147.19 181.036 146.77C181.262 146.343 181.572 146.013 181.966 145.78C182.366 145.547 182.809 145.43 183.296 145.43ZM185.336 148.25C185.336 147.837 185.252 147.477 185.086 147.17C184.919 146.863 184.692 146.63 184.406 146.47C184.126 146.303 183.816 146.22 183.476 146.22C183.136 146.22 182.826 146.3 182.546 146.46C182.266 146.62 182.042 146.853 181.876 147.16C181.709 147.467 181.626 147.827 181.626 148.24C181.626 148.66 181.709 149.027 181.876 149.34C182.042 149.647 182.266 149.883 182.546 150.05C182.826 150.21 183.136 150.29 183.476 150.29C183.816 150.29 184.126 150.21 184.406 150.05C184.692 149.883 184.919 149.647 185.086 149.34C185.252 149.027 185.336 148.663 185.336 148.25Z" fill="#A17374"/>
</svg>
