<svg width="44" height="44" viewBox="0 0 44 44" fill="none" xmlns="http://www.w3.org/2000/svg">
<path d="M3 29.5992C3 24.226 3 21.5375 4.6701 19.8693C6.3383 18.1992 9.0268 18.1992 14.4 18.1992H29.6C34.9732 18.1992 37.6617 18.1992 39.3299 19.8693C41 21.5375 41 24.226 41 29.5992C41 34.9724 41 37.6609 39.3299 39.3291C37.6617 40.9992 34.9732 40.9992 29.6 40.9992H14.4C9.0268 40.9992 6.3383 40.9992 4.6701 39.3291C3 37.6609 3 34.9724 3 29.5992Z" stroke="white" stroke-width="5"/>
<path d="M22.0031 33.4008C24.1018 33.4008 25.8031 31.6995 25.8031 29.6008C25.8031 27.5021 24.1018 25.8008 22.0031 25.8008C19.9044 25.8008 18.2031 27.5021 18.2031 29.6008C18.2031 31.6995 19.9044 33.4008 22.0031 33.4008Z" stroke="white" stroke-width="4"/>
<path d="M10.6016 18.2V14.4C10.6016 11.3765 11.8026 8.4769 13.9405 6.33898C16.0785 4.20107 18.9781 3 22.0016 3C25.025 3 27.9247 4.20107 30.0626 6.33898C32.2005 8.4769 33.4016 11.3765 33.4016 14.4V18.2" stroke="white" stroke-width="5" stroke-linecap="round"/>
</svg>
