<svg width="17" height="16" viewBox="0 0 17 16" fill="none" xmlns="http://www.w3.org/2000/svg">
<g id="Iconly/Bold/Game">
<g id="Game">
<path id="Vector" d="M5.09567 0C5.42594 0 5.68544 0.262042 5.68544 0.578035C5.68544 0.809249 5.88203 0.99422 6.11795 0.99422H6.89645C8.08387 1.00193 9.0511 1.9499 9.05896 3.10597V3.25241C9.80601 3.25241 10.5531 3.26782 11.308 3.27553C14.0367 3.27553 16.0262 5.21773 16.0262 7.89981V11.3449C16.0262 14.027 14.0367 15.9692 11.308 15.9692C10.2149 15.9923 9.12187 16 8.02096 16C6.92004 16 5.81126 15.9923 4.71821 15.9692C1.98951 15.9692 0 14.027 0 11.3449V7.89981C0 5.21773 1.98951 3.27553 4.72607 3.27553C5.75622 3.26012 6.80995 3.2447 7.87941 3.2447V3.11368C7.87941 2.58189 7.43118 2.15029 6.89645 2.15029H6.11795C5.22935 2.15029 4.50589 1.44123 4.50589 0.578035C4.50589 0.262042 4.77326 0 5.09567 0ZM5.67758 7.65318C5.3473 7.65318 5.0878 7.91522 5.0878 8.23121V9.04046H4.25425C3.93184 9.04046 3.66448 9.30251 3.66448 9.6185C3.66448 9.9422 3.93184 10.1965 4.25425 10.1965H5.0878V11.0135C5.0878 11.3295 5.3473 11.5915 5.67758 11.5915C5.99999 11.5915 6.26736 11.3295 6.26736 11.0135V10.1965H7.09304C7.41545 10.1965 7.68282 9.9422 7.68282 9.6185C7.68282 9.30251 7.41545 9.04046 7.09304 9.04046H6.26736V8.23121C6.26736 7.91522 5.99999 7.65318 5.67758 7.65318ZM11.8584 10.3892H11.7798C11.4487 10.3892 11.19 10.6513 11.19 10.9672C11.19 11.2909 11.4487 11.5453 11.7798 11.5453H11.8584C12.1808 11.5453 12.4482 11.2909 12.4482 10.9672C12.4482 10.6513 12.1808 10.3892 11.8584 10.3892ZM10.5137 7.73796H10.4351C10.1048 7.73796 9.84533 8 9.84533 8.31599C9.84533 8.63969 10.1048 8.89403 10.4351 8.89403H10.5137C10.8362 8.89403 11.1035 8.63969 11.1035 8.31599C11.1035 8 10.8362 7.73796 10.5137 7.73796Z" fill="#02539D"/>
</g>
</g>
</svg>
