<svg width="197" height="231" viewBox="0 0 197 231" fill="none" xmlns="http://www.w3.org/2000/svg">
<path d="M15.8618 53.0312L81.535 11.6094C92.7552 4.53253 107.067 4.62764 118.192 11.853L181.519 52.9812C191.174 59.2518 197 69.9825 197 81.4953V152.29C197 164.099 190.873 175.062 180.815 181.249L117.498 220.2C106.708 226.838 93.1217 226.926 82.2459 220.428L16.5624 181.187C6.29009 175.05 0 163.965 0 151.999V81.7889C0 70.1156 5.98842 59.2585 15.8618 53.0312Z" fill="#E4EEFF"/>
<path d="M91.728 85.768V97H88.992V85.768H91.728ZM96.4468 89.56C96.7668 89.0693 97.1668 88.6853 97.6468 88.408C98.1268 88.12 98.6601 87.976 99.2468 87.976V90.872H98.4948C97.8121 90.872 97.3001 91.0213 96.9588 91.32C96.6174 91.608 96.4468 92.12 96.4468 92.856V97H93.7108V88.072H96.4468V89.56ZM104.619 97.128C103.744 97.128 102.955 96.9413 102.251 96.568C101.557 96.1947 101.008 95.6613 100.603 94.968C100.208 94.2747 100.011 93.464 100.011 92.536C100.011 91.6187 100.213 90.8133 100.618 90.12C101.024 89.416 101.579 88.8773 102.283 88.504C102.987 88.1307 103.776 87.944 104.651 87.944C105.525 87.944 106.315 88.1307 107.019 88.504C107.723 88.8773 108.277 89.416 108.683 90.12C109.088 90.8133 109.291 91.6187 109.291 92.536C109.291 93.4533 109.083 94.264 108.667 94.968C108.261 95.6613 107.701 96.1947 106.987 96.568C106.283 96.9413 105.493 97.128 104.619 97.128ZM104.619 94.76C105.141 94.76 105.584 94.568 105.947 94.184C106.32 93.8 106.507 93.2507 106.507 92.536C106.507 91.8213 106.325 91.272 105.963 90.888C105.611 90.504 105.173 90.312 104.651 90.312C104.117 90.312 103.675 90.504 103.323 90.888C102.971 91.2613 102.795 91.8107 102.795 92.536C102.795 93.2507 102.965 93.8 103.307 94.184C103.659 94.568 104.096 94.76 104.619 94.76ZM116.182 87.976C117.227 87.976 118.059 88.3173 118.678 89C119.307 89.672 119.622 90.6 119.622 91.784V97H116.902V92.152C116.902 91.5547 116.747 91.0907 116.438 90.76C116.129 90.4293 115.713 90.264 115.19 90.264C114.667 90.264 114.251 90.4293 113.942 90.76C113.633 91.0907 113.478 91.5547 113.478 92.152V97H110.742V88.072H113.478V89.256C113.755 88.8613 114.129 88.552 114.598 88.328C115.067 88.0933 115.595 87.976 116.182 87.976ZM137.634 85.768V97H134.898V90.264L132.386 97H130.178L127.65 90.248V97H124.914V85.768H128.146L131.298 93.544L134.418 85.768H137.634ZM139.057 92.52C139.057 91.6027 139.228 90.7973 139.569 90.104C139.921 89.4107 140.396 88.8773 140.993 88.504C141.591 88.1307 142.257 87.944 142.993 87.944C143.623 87.944 144.172 88.072 144.641 88.328C145.121 88.584 145.489 88.92 145.745 89.336V88.072H148.481V97H145.745V95.736C145.479 96.152 145.105 96.488 144.625 96.744C144.156 97 143.607 97.128 142.977 97.128C142.252 97.128 141.591 96.9413 140.993 96.568C140.396 96.184 139.921 95.6453 139.569 94.952C139.228 94.248 139.057 93.4373 139.057 92.52ZM145.745 92.536C145.745 91.8533 145.553 91.3147 145.169 90.92C144.796 90.5253 144.337 90.328 143.793 90.328C143.249 90.328 142.785 90.5253 142.401 90.92C142.028 91.304 141.841 91.8373 141.841 92.52C141.841 93.2027 142.028 93.7467 142.401 94.152C142.785 94.5467 143.249 94.744 143.793 94.744C144.337 94.744 144.796 94.5467 145.169 94.152C145.553 93.7573 145.745 93.2187 145.745 92.536ZM155.901 87.976C156.946 87.976 157.778 88.3173 158.397 89C159.026 89.672 159.341 90.6 159.341 91.784V97H156.621V92.152C156.621 91.5547 156.466 91.0907 156.157 90.76C155.847 90.4293 155.431 90.264 154.909 90.264C154.386 90.264 153.97 90.4293 153.661 90.76C153.351 91.0907 153.197 91.5547 153.197 92.152V97H150.461V88.072H153.197V89.256C153.474 88.8613 153.847 88.552 154.317 88.328C154.786 88.0933 155.314 87.976 155.901 87.976Z" fill="#143D83"/>
<path d="M93.43 112.07C93.43 112.65 93.23 113.133 92.83 113.52C92.4367 113.9 91.8333 114.09 91.02 114.09H89.68V117H88.77V110.03H91.02C91.8067 110.03 92.4033 110.22 92.81 110.6C93.2233 110.98 93.43 111.47 93.43 112.07ZM91.02 113.34C91.5267 113.34 91.9 113.23 92.14 113.01C92.38 112.79 92.5 112.477 92.5 112.07C92.5 111.21 92.0067 110.78 91.02 110.78H89.68V113.34H91.02ZM95.471 109.6V117H94.561V109.6H95.471ZM96.682 114.24C96.682 113.68 96.7953 113.19 97.022 112.77C97.2486 112.343 97.5586 112.013 97.952 111.78C98.352 111.547 98.7953 111.43 99.282 111.43C99.762 111.43 100.179 111.533 100.532 111.74C100.885 111.947 101.149 112.207 101.322 112.52V111.52H102.242V117H101.322V115.98C101.142 116.3 100.872 116.567 100.512 116.78C100.159 116.987 99.7453 117.09 99.272 117.09C98.7853 117.09 98.3453 116.97 97.952 116.73C97.5586 116.49 97.2486 116.153 97.022 115.72C96.7953 115.287 96.682 114.793 96.682 114.24ZM101.322 114.25C101.322 113.837 101.239 113.477 101.072 113.17C100.905 112.863 100.679 112.63 100.392 112.47C100.112 112.303 99.802 112.22 99.462 112.22C99.122 112.22 98.812 112.3 98.532 112.46C98.252 112.62 98.0286 112.853 97.862 113.16C97.6953 113.467 97.612 113.827 97.612 114.24C97.612 114.66 97.6953 115.027 97.862 115.34C98.0286 115.647 98.252 115.883 98.532 116.05C98.812 116.21 99.122 116.29 99.462 116.29C99.802 116.29 100.112 116.21 100.392 116.05C100.679 115.883 100.905 115.647 101.072 115.34C101.239 115.027 101.322 114.663 101.322 114.25ZM108.5 111.52L105.2 119.58H104.26L105.34 116.94L103.13 111.52H104.14L105.86 115.96L107.56 111.52H108.5ZM111.821 116.27C112.667 115.59 113.331 115.033 113.811 114.6C114.291 114.16 114.694 113.703 115.021 113.23C115.354 112.75 115.521 112.28 115.521 111.82C115.521 111.387 115.414 111.047 115.201 110.8C114.994 110.547 114.657 110.42 114.191 110.42C113.737 110.42 113.384 110.563 113.131 110.85C112.884 111.13 112.751 111.507 112.731 111.98H111.851C111.877 111.233 112.104 110.657 112.531 110.25C112.957 109.843 113.507 109.64 114.181 109.64C114.867 109.64 115.411 109.83 115.811 110.21C116.217 110.59 116.421 111.113 116.421 111.78C116.421 112.333 116.254 112.873 115.921 113.4C115.594 113.92 115.221 114.38 114.801 114.78C114.381 115.173 113.844 115.633 113.191 116.16H116.631V116.92H111.821V116.27ZM117.683 113.31C117.683 112.163 117.869 111.27 118.243 110.63C118.616 109.983 119.269 109.66 120.203 109.66C121.129 109.66 121.779 109.983 122.153 110.63C122.526 111.27 122.712 112.163 122.712 113.31C122.712 114.477 122.526 115.383 122.153 116.03C121.779 116.677 121.129 117 120.203 117C119.269 117 118.616 116.677 118.243 116.03C117.869 115.383 117.683 114.477 117.683 113.31ZM121.813 113.31C121.813 112.73 121.773 112.24 121.693 111.84C121.619 111.433 121.463 111.107 121.223 110.86C120.989 110.613 120.649 110.49 120.203 110.49C119.749 110.49 119.403 110.613 119.163 110.86C118.929 111.107 118.773 111.433 118.693 111.84C118.619 112.24 118.583 112.73 118.583 113.31C118.583 113.91 118.619 114.413 118.693 114.82C118.773 115.227 118.929 115.553 119.163 115.8C119.403 116.047 119.749 116.17 120.203 116.17C120.649 116.17 120.989 116.047 121.223 115.8C121.463 115.553 121.619 115.227 121.693 114.82C121.773 114.413 121.813 113.91 121.813 113.31ZM133.368 111.42C133.794 111.42 134.174 111.51 134.508 111.69C134.841 111.863 135.104 112.127 135.298 112.48C135.491 112.833 135.588 113.263 135.588 113.77V117H134.688V113.9C134.688 113.353 134.551 112.937 134.278 112.65C134.011 112.357 133.648 112.21 133.188 112.21C132.714 112.21 132.338 112.363 132.058 112.67C131.778 112.97 131.638 113.407 131.638 113.98V117H130.738V113.9C130.738 113.353 130.601 112.937 130.328 112.65C130.061 112.357 129.698 112.21 129.238 112.21C128.764 112.21 128.388 112.363 128.108 112.67C127.828 112.97 127.688 113.407 127.688 113.98V117H126.778V111.52H127.688V112.31C127.868 112.023 128.108 111.803 128.408 111.65C128.714 111.497 129.051 111.42 129.418 111.42C129.878 111.42 130.284 111.523 130.638 111.73C130.991 111.937 131.254 112.24 131.428 112.64C131.581 112.253 131.834 111.953 132.188 111.74C132.541 111.527 132.934 111.42 133.368 111.42ZM136.741 114.24C136.741 113.68 136.854 113.19 137.081 112.77C137.307 112.343 137.617 112.013 138.011 111.78C138.411 111.547 138.854 111.43 139.341 111.43C139.821 111.43 140.237 111.533 140.591 111.74C140.944 111.947 141.207 112.207 141.381 112.52V111.52H142.301V117H141.381V115.98C141.201 116.3 140.931 116.567 140.571 116.78C140.217 116.987 139.804 117.09 139.331 117.09C138.844 117.09 138.404 116.97 138.011 116.73C137.617 116.49 137.307 116.153 137.081 115.72C136.854 115.287 136.741 114.793 136.741 114.24ZM141.381 114.25C141.381 113.837 141.297 113.477 141.131 113.17C140.964 112.863 140.737 112.63 140.451 112.47C140.171 112.303 139.861 112.22 139.521 112.22C139.181 112.22 138.871 112.3 138.591 112.46C138.311 112.62 138.087 112.853 137.921 113.16C137.754 113.467 137.671 113.827 137.671 114.24C137.671 114.66 137.754 115.027 137.921 115.34C138.087 115.647 138.311 115.883 138.591 116.05C138.871 116.21 139.181 116.29 139.521 116.29C139.861 116.29 140.171 116.21 140.451 116.05C140.737 115.883 140.964 115.647 141.131 115.34C141.297 115.027 141.381 114.663 141.381 114.25ZM144.948 112.27V115.5C144.948 115.767 145.005 115.957 145.118 116.07C145.232 116.177 145.428 116.23 145.708 116.23H146.378V117H145.558C145.052 117 144.672 116.883 144.418 116.65C144.165 116.417 144.038 116.033 144.038 115.5V112.27H143.328V111.52H144.038V110.14H144.948V111.52H146.378V112.27H144.948ZM147.141 114.25C147.141 113.683 147.254 113.19 147.481 112.77C147.708 112.343 148.021 112.013 148.421 111.78C148.828 111.547 149.291 111.43 149.811 111.43C150.484 111.43 151.038 111.593 151.471 111.92C151.911 112.247 152.201 112.7 152.341 113.28H151.361C151.268 112.947 151.084 112.683 150.811 112.49C150.544 112.297 150.211 112.2 149.811 112.2C149.291 112.2 148.871 112.38 148.551 112.74C148.231 113.093 148.071 113.597 148.071 114.25C148.071 114.91 148.231 115.42 148.551 115.78C148.871 116.14 149.291 116.32 149.811 116.32C150.211 116.32 150.544 116.227 150.811 116.04C151.078 115.853 151.261 115.587 151.361 115.24H152.341C152.194 115.8 151.901 116.25 151.461 116.59C151.021 116.923 150.471 117.09 149.811 117.09C149.291 117.09 148.828 116.973 148.421 116.74C148.021 116.507 147.708 116.177 147.481 115.75C147.254 115.323 147.141 114.823 147.141 114.25ZM156.275 111.42C156.688 111.42 157.062 111.51 157.395 111.69C157.728 111.863 157.988 112.127 158.175 112.48C158.368 112.833 158.465 113.263 158.465 113.77V117H157.565V113.9C157.565 113.353 157.428 112.937 157.155 112.65C156.882 112.357 156.508 112.21 156.035 112.21C155.555 112.21 155.172 112.36 154.885 112.66C154.605 112.96 154.465 113.397 154.465 113.97V117H153.555V109.6H154.465V112.3C154.645 112.02 154.892 111.803 155.205 111.65C155.525 111.497 155.882 111.42 156.275 111.42ZM164.952 114.05C164.952 114.223 164.942 114.407 164.922 114.6H160.542C160.575 115.14 160.758 115.563 161.092 115.87C161.432 116.17 161.842 116.32 162.322 116.32C162.715 116.32 163.042 116.23 163.302 116.05C163.568 115.863 163.755 115.617 163.862 115.31H164.842C164.695 115.837 164.402 116.267 163.962 116.6C163.522 116.927 162.975 117.09 162.322 117.09C161.802 117.09 161.335 116.973 160.922 116.74C160.515 116.507 160.195 116.177 159.962 115.75C159.728 115.317 159.612 114.817 159.612 114.25C159.612 113.683 159.725 113.187 159.952 112.76C160.178 112.333 160.495 112.007 160.902 111.78C161.315 111.547 161.788 111.43 162.322 111.43C162.842 111.43 163.302 111.543 163.702 111.77C164.102 111.997 164.408 112.31 164.622 112.71C164.842 113.103 164.952 113.55 164.952 114.05ZM164.012 113.86C164.012 113.513 163.935 113.217 163.782 112.97C163.628 112.717 163.418 112.527 163.152 112.4C162.892 112.267 162.602 112.2 162.282 112.2C161.822 112.2 161.428 112.347 161.102 112.64C160.782 112.933 160.598 113.34 160.552 113.86H164.012ZM168.093 117.09C167.673 117.09 167.296 117.02 166.963 116.88C166.629 116.733 166.366 116.533 166.173 116.28C165.979 116.02 165.873 115.723 165.853 115.39H166.793C166.819 115.663 166.946 115.887 167.173 116.06C167.406 116.233 167.709 116.32 168.083 116.32C168.429 116.32 168.703 116.243 168.903 116.09C169.103 115.937 169.203 115.743 169.203 115.51C169.203 115.27 169.096 115.093 168.883 114.98C168.669 114.86 168.339 114.743 167.893 114.63C167.486 114.523 167.153 114.417 166.893 114.31C166.639 114.197 166.419 114.033 166.233 113.82C166.053 113.6 165.963 113.313 165.963 112.96C165.963 112.68 166.046 112.423 166.213 112.19C166.379 111.957 166.616 111.773 166.923 111.64C167.229 111.5 167.579 111.43 167.973 111.43C168.579 111.43 169.069 111.583 169.443 111.89C169.816 112.197 170.016 112.617 170.043 113.15H169.133C169.113 112.863 168.996 112.633 168.783 112.46C168.576 112.287 168.296 112.2 167.943 112.2C167.616 112.2 167.356 112.27 167.163 112.41C166.969 112.55 166.873 112.733 166.873 112.96C166.873 113.14 166.929 113.29 167.043 113.41C167.163 113.523 167.309 113.617 167.483 113.69C167.663 113.757 167.909 113.833 168.223 113.92C168.616 114.027 168.936 114.133 169.183 114.24C169.429 114.34 169.639 114.493 169.813 114.7C169.993 114.907 170.086 115.177 170.093 115.51C170.093 115.81 170.009 116.08 169.843 116.32C169.676 116.56 169.439 116.75 169.133 116.89C168.833 117.023 168.486 117.09 168.093 117.09ZM96.07 126.52L94.36 132H93.42L92.1 127.65L90.78 132H89.84L88.12 126.52H89.05L90.31 131.12L91.67 126.52H92.6L93.93 131.13L95.17 126.52H96.07ZM97.4431 125.63C97.2698 125.63 97.1231 125.57 97.0031 125.45C96.8831 125.33 96.8231 125.183 96.8231 125.01C96.8231 124.837 96.8831 124.69 97.0031 124.57C97.1231 124.45 97.2698 124.39 97.4431 124.39C97.6098 124.39 97.7498 124.45 97.8631 124.57C97.9831 124.69 98.0431 124.837 98.0431 125.01C98.0431 125.183 97.9831 125.33 97.8631 125.45C97.7498 125.57 97.6098 125.63 97.4431 125.63ZM97.8831 126.52V132H96.9731V126.52H97.8831ZM100.544 127.27V130.5C100.544 130.767 100.601 130.957 100.714 131.07C100.827 131.177 101.024 131.23 101.304 131.23H101.974V132H101.154C100.647 132 100.267 131.883 100.014 131.65C99.7607 131.417 99.6341 131.033 99.6341 130.5V127.27H98.9241V126.52H99.6341V125.14H100.544V126.52H101.974V127.27H100.544ZM105.797 126.42C106.21 126.42 106.583 126.51 106.917 126.69C107.25 126.863 107.51 127.127 107.697 127.48C107.89 127.833 107.987 128.263 107.987 128.77V132H107.087V128.9C107.087 128.353 106.95 127.937 106.677 127.65C106.403 127.357 106.03 127.21 105.557 127.21C105.077 127.21 104.693 127.36 104.407 127.66C104.127 127.96 103.987 128.397 103.987 128.97V132H103.077V124.6H103.987V127.3C104.167 127.02 104.413 126.803 104.727 126.65C105.047 126.497 105.403 126.42 105.797 126.42ZM111.863 132.09C111.35 132.09 110.883 131.973 110.463 131.74C110.05 131.507 109.723 131.177 109.483 130.75C109.25 130.317 109.133 129.817 109.133 129.25C109.133 128.69 109.253 128.197 109.493 127.77C109.74 127.337 110.073 127.007 110.493 126.78C110.913 126.547 111.383 126.43 111.903 126.43C112.423 126.43 112.893 126.547 113.313 126.78C113.733 127.007 114.063 127.333 114.303 127.76C114.55 128.187 114.673 128.683 114.673 129.25C114.673 129.817 114.546 130.317 114.293 130.75C114.046 131.177 113.71 131.507 113.283 131.74C112.856 131.973 112.383 132.09 111.863 132.09ZM111.863 131.29C112.19 131.29 112.496 131.213 112.783 131.06C113.07 130.907 113.3 130.677 113.473 130.37C113.653 130.063 113.743 129.69 113.743 129.25C113.743 128.81 113.656 128.437 113.483 128.13C113.31 127.823 113.083 127.597 112.803 127.45C112.523 127.297 112.22 127.22 111.893 127.22C111.56 127.22 111.253 127.297 110.973 127.45C110.7 127.597 110.48 127.823 110.313 128.13C110.146 128.437 110.063 128.81 110.063 129.25C110.063 129.697 110.143 130.073 110.303 130.38C110.47 130.687 110.69 130.917 110.963 131.07C111.236 131.217 111.536 131.29 111.863 131.29ZM120.73 126.52V132H119.82V131.19C119.646 131.47 119.403 131.69 119.09 131.85C118.783 132.003 118.443 132.08 118.07 132.08C117.643 132.08 117.26 131.993 116.92 131.82C116.58 131.64 116.31 131.373 116.11 131.02C115.916 130.667 115.82 130.237 115.82 129.73V126.52H116.72V129.61C116.72 130.15 116.856 130.567 117.13 130.86C117.403 131.147 117.776 131.29 118.25 131.29C118.736 131.29 119.12 131.14 119.4 130.84C119.68 130.54 119.82 130.103 119.82 129.53V126.52H120.73ZM123.376 127.27V130.5C123.376 130.767 123.433 130.957 123.546 131.07C123.659 131.177 123.856 131.23 124.136 131.23H124.806V132H123.986C123.479 132 123.099 131.883 122.846 131.65C122.593 131.417 122.466 131.033 122.466 130.5V127.27H121.756V126.52H122.466V125.14H123.376V126.52H124.806V127.27H123.376ZM129.685 127.27V130.5C129.685 130.767 129.741 130.957 129.855 131.07C129.968 131.177 130.165 131.23 130.445 131.23H131.115V132H130.295C129.788 132 129.408 131.883 129.155 131.65C128.901 131.417 128.775 131.033 128.775 130.5V127.27H128.065V126.52H128.775V125.14H129.685V126.52H131.115V127.27H129.685ZM131.877 129.24C131.877 128.68 131.991 128.19 132.217 127.77C132.444 127.343 132.754 127.013 133.147 126.78C133.547 126.547 133.991 126.43 134.477 126.43C134.957 126.43 135.374 126.533 135.727 126.74C136.081 126.947 136.344 127.207 136.517 127.52V126.52H137.437V132H136.517V130.98C136.337 131.3 136.067 131.567 135.707 131.78C135.354 131.987 134.941 132.09 134.467 132.09C133.981 132.09 133.541 131.97 133.147 131.73C132.754 131.49 132.444 131.153 132.217 130.72C131.991 130.287 131.877 129.793 131.877 129.24ZM136.517 129.25C136.517 128.837 136.434 128.477 136.267 128.17C136.101 127.863 135.874 127.63 135.587 127.47C135.307 127.303 134.997 127.22 134.657 127.22C134.317 127.22 134.007 127.3 133.727 127.46C133.447 127.62 133.224 127.853 133.057 128.16C132.891 128.467 132.807 128.827 132.807 129.24C132.807 129.66 132.891 130.027 133.057 130.34C133.224 130.647 133.447 130.883 133.727 131.05C134.007 131.21 134.317 131.29 134.657 131.29C134.997 131.29 135.307 131.21 135.587 131.05C135.874 130.883 136.101 130.647 136.267 130.34C136.434 130.027 136.517 129.663 136.517 129.25ZM142.035 132L139.885 129.58V132H138.975V124.6H139.885V128.95L141.995 126.52H143.265L140.685 129.25L143.275 132H142.035ZM144.592 125.63C144.418 125.63 144.272 125.57 144.152 125.45C144.032 125.33 143.972 125.183 143.972 125.01C143.972 124.837 144.032 124.69 144.152 124.57C144.272 124.45 144.418 124.39 144.592 124.39C144.758 124.39 144.898 124.45 145.012 124.57C145.132 124.69 145.192 124.837 145.192 125.01C145.192 125.183 145.132 125.33 145.012 125.45C144.898 125.57 144.758 125.63 144.592 125.63ZM145.032 126.52V132H144.122V126.52H145.032ZM149.253 126.42C149.919 126.42 150.459 126.623 150.873 127.03C151.286 127.43 151.493 128.01 151.493 128.77V132H150.593V128.9C150.593 128.353 150.456 127.937 150.183 127.65C149.909 127.357 149.536 127.21 149.063 127.21C148.583 127.21 148.199 127.36 147.913 127.66C147.633 127.96 147.493 128.397 147.493 128.97V132H146.583V126.52H147.493V127.3C147.673 127.02 147.916 126.803 148.223 126.65C148.536 126.497 148.879 126.42 149.253 126.42ZM155.239 126.43C155.712 126.43 156.126 126.533 156.479 126.74C156.839 126.947 157.106 127.207 157.279 127.52V126.52H158.199V132.12C158.199 132.62 158.092 133.063 157.879 133.45C157.666 133.843 157.359 134.15 156.959 134.37C156.566 134.59 156.106 134.7 155.579 134.7C154.859 134.7 154.259 134.53 153.779 134.19C153.299 133.85 153.016 133.387 152.929 132.8H153.829C153.929 133.133 154.136 133.4 154.449 133.6C154.762 133.807 155.139 133.91 155.579 133.91C156.079 133.91 156.486 133.753 156.799 133.44C157.119 133.127 157.279 132.687 157.279 132.12V130.97C157.099 131.29 156.832 131.557 156.479 131.77C156.126 131.983 155.712 132.09 155.239 132.09C154.752 132.09 154.309 131.97 153.909 131.73C153.516 131.49 153.206 131.153 152.979 130.72C152.752 130.287 152.639 129.793 152.639 129.24C152.639 128.68 152.752 128.19 152.979 127.77C153.206 127.343 153.516 127.013 153.909 126.78C154.309 126.547 154.752 126.43 155.239 126.43ZM157.279 129.25C157.279 128.837 157.196 128.477 157.029 128.17C156.862 127.863 156.636 127.63 156.349 127.47C156.069 127.303 155.759 127.22 155.419 127.22C155.079 127.22 154.769 127.3 154.489 127.46C154.209 127.62 153.986 127.853 153.819 128.16C153.652 128.467 153.569 128.827 153.569 129.24C153.569 129.66 153.652 130.027 153.819 130.34C153.986 130.647 154.209 130.883 154.489 131.05C154.769 131.21 155.079 131.29 155.419 131.29C155.759 131.29 156.069 131.21 156.349 131.05C156.636 130.883 156.862 130.647 157.029 130.34C157.196 130.027 157.279 129.663 157.279 129.25ZM162.063 129.24C162.063 128.68 162.176 128.19 162.403 127.77C162.629 127.343 162.939 127.013 163.333 126.78C163.733 126.547 164.176 126.43 164.663 126.43C165.143 126.43 165.559 126.533 165.913 126.74C166.266 126.947 166.529 127.207 166.703 127.52V126.52H167.623V132H166.703V130.98C166.523 131.3 166.253 131.567 165.893 131.78C165.539 131.987 165.126 132.09 164.653 132.09C164.166 132.09 163.726 131.97 163.333 131.73C162.939 131.49 162.629 131.153 162.403 130.72C162.176 130.287 162.063 129.793 162.063 129.24ZM166.703 129.25C166.703 128.837 166.619 128.477 166.453 128.17C166.286 127.863 166.059 127.63 165.773 127.47C165.493 127.303 165.183 127.22 164.843 127.22C164.503 127.22 164.193 127.3 163.913 127.46C163.633 127.62 163.409 127.853 163.243 128.16C163.076 128.467 162.993 128.827 162.993 129.24C162.993 129.66 163.076 130.027 163.243 130.34C163.409 130.647 163.633 130.883 163.913 131.05C164.193 131.21 164.503 131.29 164.843 131.29C165.183 131.29 165.493 131.21 165.773 131.05C166.059 130.883 166.286 130.647 166.453 130.34C166.619 130.027 166.703 129.663 166.703 129.25ZM89.68 142.54C89.8667 142.213 90.14 141.947 90.5 141.74C90.86 141.533 91.27 141.43 91.73 141.43C92.2233 141.43 92.6667 141.547 93.06 141.78C93.4533 142.013 93.7633 142.343 93.99 142.77C94.2167 143.19 94.33 143.68 94.33 144.24C94.33 144.793 94.2167 145.287 93.99 145.72C93.7633 146.153 93.45 146.49 93.05 146.73C92.6567 146.97 92.2167 147.09 91.73 147.09C91.2567 147.09 90.84 146.987 90.48 146.78C90.1267 146.573 89.86 146.31 89.68 145.99V147H88.77V139.6H89.68V142.54ZM93.4 144.24C93.4 143.827 93.3167 143.467 93.15 143.16C92.9833 142.853 92.7567 142.62 92.47 142.46C92.19 142.3 91.88 142.22 91.54 142.22C91.2067 142.22 90.8967 142.303 90.61 142.47C90.33 142.63 90.1033 142.867 89.93 143.18C89.7633 143.487 89.68 143.843 89.68 144.25C89.68 144.663 89.7633 145.027 89.93 145.34C90.1033 145.647 90.33 145.883 90.61 146.05C90.8967 146.21 91.2067 146.29 91.54 146.29C91.88 146.29 92.19 146.21 92.47 146.05C92.7567 145.883 92.9833 145.647 93.15 145.34C93.3167 145.027 93.4 144.66 93.4 144.24ZM96.4378 142.41C96.5978 142.097 96.8245 141.853 97.1178 141.68C97.4178 141.507 97.7811 141.42 98.2078 141.42V142.36H97.9678C96.9478 142.36 96.4378 142.913 96.4378 144.02V147H95.5278V141.52H96.4378V142.41ZM104.258 144.05C104.258 144.223 104.248 144.407 104.228 144.6H99.8483C99.8816 145.14 100.065 145.563 100.398 145.87C100.738 146.17 101.148 146.32 101.628 146.32C102.022 146.32 102.348 146.23 102.608 146.05C102.875 145.863 103.062 145.617 103.168 145.31H104.148C104.002 145.837 103.708 146.267 103.268 146.6C102.828 146.927 102.282 147.09 101.628 147.09C101.108 147.09 100.642 146.973 100.228 146.74C99.8216 146.507 99.5016 146.177 99.2683 145.75C99.0349 145.317 98.9183 144.817 98.9183 144.25C98.9183 143.683 99.0316 143.187 99.2583 142.76C99.4849 142.333 99.8016 142.007 100.208 141.78C100.622 141.547 101.095 141.43 101.628 141.43C102.148 141.43 102.608 141.543 103.008 141.77C103.408 141.997 103.715 142.31 103.928 142.71C104.148 143.103 104.258 143.55 104.258 144.05ZM103.318 143.86C103.318 143.513 103.242 143.217 103.088 142.97C102.935 142.717 102.725 142.527 102.458 142.4C102.198 142.267 101.908 142.2 101.588 142.2C101.128 142.2 100.735 142.347 100.408 142.64C100.088 142.933 99.9049 143.34 99.8583 143.86H103.318ZM105.119 144.24C105.119 143.68 105.233 143.19 105.459 142.77C105.686 142.343 105.996 142.013 106.389 141.78C106.789 141.547 107.233 141.43 107.719 141.43C108.199 141.43 108.616 141.533 108.969 141.74C109.323 141.947 109.586 142.207 109.759 142.52V141.52H110.679V147H109.759V145.98C109.579 146.3 109.309 146.567 108.949 146.78C108.596 146.987 108.183 147.09 107.709 147.09C107.223 147.09 106.783 146.97 106.389 146.73C105.996 146.49 105.686 146.153 105.459 145.72C105.233 145.287 105.119 144.793 105.119 144.24ZM109.759 144.25C109.759 143.837 109.676 143.477 109.509 143.17C109.343 142.863 109.116 142.63 108.829 142.47C108.549 142.303 108.239 142.22 107.899 142.22C107.559 142.22 107.249 142.3 106.969 142.46C106.689 142.62 106.466 142.853 106.299 143.16C106.133 143.467 106.049 143.827 106.049 144.24C106.049 144.66 106.133 145.027 106.299 145.34C106.466 145.647 106.689 145.883 106.969 146.05C107.249 146.21 107.559 146.29 107.899 146.29C108.239 146.29 108.549 146.21 108.829 146.05C109.116 145.883 109.343 145.647 109.509 145.34C109.676 145.027 109.759 144.663 109.759 144.25ZM115.277 147L113.127 144.58V147H112.217V139.6H113.127V143.95L115.237 141.52H116.507L113.927 144.25L116.517 147H115.277Z" fill="#7B90AB"/>
</svg>
