<svg width="197" height="231" viewBox="0 0 197 231" fill="none" xmlns="http://www.w3.org/2000/svg">
<path d="M15.8618 53.0312L81.535 11.6094C92.7552 4.53253 107.067 4.62764 118.192 11.853L181.519 52.9812C191.174 59.2518 197 69.9825 197 81.4953V152.29C197 164.099 190.873 175.062 180.815 181.249L117.498 220.2C106.708 226.838 93.1217 226.926 82.2459 220.428L16.5624 181.187C6.29009 175.05 0 163.965 0 151.999V81.7889C0 70.1156 5.98842 59.2585 15.8618 53.0312Z" fill="#DAF9FF"/>
<path d="M98.504 94L94.728 89.04V94H91.992V82.768H94.728V87.696L98.472 82.768H101.688L97.336 88.272L101.848 94H98.504ZM104.524 84.144C104.044 84.144 103.65 84.0053 103.34 83.728C103.042 83.44 102.892 83.088 102.892 82.672C102.892 82.2453 103.042 81.8933 103.34 81.616C103.65 81.328 104.044 81.184 104.524 81.184C104.994 81.184 105.378 81.328 105.676 81.616C105.986 81.8933 106.14 82.2453 106.14 82.672C106.14 83.088 105.986 83.44 105.676 83.728C105.378 84.0053 104.994 84.144 104.524 84.144ZM105.884 85.072V94H103.148V85.072H105.884ZM113.307 84.976C114.352 84.976 115.184 85.3173 115.803 86C116.432 86.672 116.747 87.6 116.747 88.784V94H114.027V89.152C114.027 88.5547 113.872 88.0907 113.563 87.76C113.254 87.4293 112.838 87.264 112.315 87.264C111.792 87.264 111.376 87.4293 111.067 87.76C110.758 88.0907 110.603 88.5547 110.603 89.152V94H107.867V85.072H110.603V86.256C110.88 85.8613 111.254 85.552 111.723 85.328C112.192 85.0933 112.72 84.976 113.307 84.976ZM122.04 84.944C122.67 84.944 123.219 85.072 123.688 85.328C124.168 85.584 124.536 85.92 124.792 86.336V85.072H127.528V93.984C127.528 94.8053 127.363 95.5467 127.032 96.208C126.712 96.88 126.216 97.4133 125.544 97.808C124.883 98.2027 124.056 98.4 123.064 98.4C121.742 98.4 120.67 98.0853 119.848 97.456C119.027 96.8373 118.558 95.9947 118.44 94.928H121.144C121.23 95.2693 121.432 95.536 121.752 95.728C122.072 95.9307 122.467 96.032 122.936 96.032C123.502 96.032 123.95 95.8667 124.28 95.536C124.622 95.216 124.792 94.6987 124.792 93.984V92.72C124.526 93.136 124.158 93.4773 123.688 93.744C123.219 94 122.67 94.128 122.04 94.128C121.304 94.128 120.638 93.9413 120.04 93.568C119.443 93.184 118.968 92.6453 118.616 91.952C118.275 91.248 118.104 90.4373 118.104 89.52C118.104 88.6027 118.275 87.7973 118.616 87.104C118.968 86.4107 119.443 85.8773 120.04 85.504C120.638 85.1307 121.304 84.944 122.04 84.944ZM124.792 89.536C124.792 88.8533 124.6 88.3147 124.216 87.92C123.843 87.5253 123.384 87.328 122.84 87.328C122.296 87.328 121.832 87.5253 121.448 87.92C121.075 88.304 120.888 88.8373 120.888 89.52C120.888 90.2027 121.075 90.7467 121.448 91.152C121.832 91.5467 122.296 91.744 122.84 91.744C123.384 91.744 123.843 91.5467 124.216 91.152C124.6 90.7573 124.792 90.2187 124.792 89.536ZM136.962 94.128C136.088 94.128 135.298 93.9413 134.594 93.568C133.901 93.1947 133.352 92.6613 132.946 91.968C132.552 91.2747 132.354 90.464 132.354 89.536C132.354 88.6187 132.557 87.8133 132.962 87.12C133.368 86.416 133.922 85.8773 134.626 85.504C135.33 85.1307 136.12 84.944 136.994 84.944C137.869 84.944 138.658 85.1307 139.362 85.504C140.066 85.8773 140.621 86.416 141.026 87.12C141.432 87.8133 141.634 88.6187 141.634 89.536C141.634 90.4533 141.426 91.264 141.01 91.968C140.605 92.6613 140.045 93.1947 139.33 93.568C138.626 93.9413 137.837 94.128 136.962 94.128ZM136.962 91.76C137.485 91.76 137.928 91.568 138.29 91.184C138.664 90.8 138.85 90.2507 138.85 89.536C138.85 88.8213 138.669 88.272 138.306 87.888C137.954 87.504 137.517 87.312 136.994 87.312C136.461 87.312 136.018 87.504 135.666 87.888C135.314 88.2613 135.138 88.8107 135.138 89.536C135.138 90.2507 135.309 90.8 135.65 91.184C136.002 91.568 136.44 91.76 136.962 91.76ZM147.566 87.344H146.094V94H143.358V87.344H142.366V85.072H143.358V84.816C143.358 83.7173 143.672 82.8853 144.302 82.32C144.931 81.744 145.854 81.456 147.07 81.456C147.272 81.456 147.422 81.4613 147.518 81.472V83.792C146.995 83.76 146.627 83.8347 146.414 84.016C146.2 84.1973 146.094 84.5227 146.094 84.992V85.072H147.566V87.344ZM96.968 115.68V118H95.576C94.584 118 93.8107 117.76 93.256 117.28C92.7013 116.789 92.424 115.995 92.424 114.896V111.344H91.336V109.072H92.424V106.896H95.16V109.072H96.952V111.344H95.16V114.928C95.16 115.195 95.224 115.387 95.352 115.504C95.48 115.621 95.6933 115.68 95.992 115.68H96.968ZM103.98 108.976C105.004 108.976 105.825 109.317 106.444 110C107.063 110.672 107.372 111.6 107.372 112.784V118H104.652V113.152C104.652 112.555 104.497 112.091 104.188 111.76C103.879 111.429 103.463 111.264 102.94 111.264C102.417 111.264 102.001 111.429 101.692 111.76C101.383 112.091 101.228 112.555 101.228 113.152V118H98.492V106.16H101.228V110.272C101.505 109.877 101.884 109.563 102.364 109.328C102.844 109.093 103.383 108.976 103.98 108.976ZM117.689 113.392C117.689 113.648 117.673 113.915 117.641 114.192H111.449C111.492 114.747 111.668 115.173 111.977 115.472C112.297 115.76 112.687 115.904 113.145 115.904C113.828 115.904 114.303 115.616 114.569 115.04H117.481C117.332 115.627 117.06 116.155 116.665 116.624C116.281 117.093 115.796 117.461 115.209 117.728C114.623 117.995 113.967 118.128 113.241 118.128C112.367 118.128 111.588 117.941 110.905 117.568C110.223 117.195 109.689 116.661 109.305 115.968C108.921 115.275 108.729 114.464 108.729 113.536C108.729 112.608 108.916 111.797 109.289 111.104C109.673 110.411 110.207 109.877 110.889 109.504C111.572 109.131 112.356 108.944 113.241 108.944C114.105 108.944 114.873 109.125 115.545 109.488C116.217 109.851 116.74 110.368 117.113 111.04C117.497 111.712 117.689 112.496 117.689 113.392ZM114.889 112.672C114.889 112.203 114.729 111.829 114.409 111.552C114.089 111.275 113.689 111.136 113.209 111.136C112.751 111.136 112.361 111.269 112.041 111.536C111.732 111.803 111.54 112.181 111.465 112.672H114.889ZM130.603 106.768V108.96H127.627V118H124.891V108.96H121.915V106.768H130.603ZM131.432 113.52C131.432 112.603 131.603 111.797 131.944 111.104C132.296 110.411 132.771 109.877 133.368 109.504C133.966 109.131 134.632 108.944 135.368 108.944C135.998 108.944 136.547 109.072 137.016 109.328C137.496 109.584 137.864 109.92 138.12 110.336V109.072H140.856V118H138.12V116.736C137.854 117.152 137.48 117.488 137 117.744C136.531 118 135.982 118.128 135.352 118.128C134.627 118.128 133.966 117.941 133.368 117.568C132.771 117.184 132.296 116.645 131.944 115.952C131.603 115.248 131.432 114.437 131.432 113.52ZM138.12 113.536C138.12 112.853 137.928 112.315 137.544 111.92C137.171 111.525 136.712 111.328 136.168 111.328C135.624 111.328 135.16 111.525 134.776 111.92C134.403 112.304 134.216 112.837 134.216 113.52C134.216 114.203 134.403 114.747 134.776 115.152C135.16 115.547 135.624 115.744 136.168 115.744C136.712 115.744 137.171 115.547 137.544 115.152C137.928 114.757 138.12 114.219 138.12 113.536ZM145.572 110.336C145.828 109.92 146.196 109.584 146.676 109.328C147.156 109.072 147.705 108.944 148.324 108.944C149.06 108.944 149.726 109.131 150.324 109.504C150.921 109.877 151.39 110.411 151.732 111.104C152.084 111.797 152.26 112.603 152.26 113.52C152.26 114.437 152.084 115.248 151.732 115.952C151.39 116.645 150.921 117.184 150.324 117.568C149.726 117.941 149.06 118.128 148.324 118.128C147.694 118.128 147.145 118.005 146.676 117.76C146.206 117.504 145.838 117.168 145.572 116.752V118H142.836V106.16H145.572V110.336ZM149.476 113.52C149.476 112.837 149.284 112.304 148.9 111.92C148.526 111.525 148.062 111.328 147.508 111.328C146.964 111.328 146.5 111.525 146.116 111.92C145.742 112.315 145.556 112.853 145.556 113.536C145.556 114.219 145.742 114.757 146.116 115.152C146.5 115.547 146.964 115.744 147.508 115.744C148.052 115.744 148.516 115.547 148.9 115.152C149.284 114.747 149.476 114.203 149.476 113.52ZM156.431 106.16V118H153.695V106.16H156.431ZM166.83 113.392C166.83 113.648 166.814 113.915 166.782 114.192H160.59C160.633 114.747 160.809 115.173 161.118 115.472C161.438 115.76 161.827 115.904 162.286 115.904C162.969 115.904 163.443 115.616 163.71 115.04H166.622C166.473 115.627 166.201 116.155 165.806 116.624C165.422 117.093 164.937 117.461 164.35 117.728C163.763 117.995 163.107 118.128 162.382 118.128C161.507 118.128 160.729 117.941 160.046 117.568C159.363 117.195 158.83 116.661 158.446 115.968C158.062 115.275 157.87 114.464 157.87 113.536C157.87 112.608 158.057 111.797 158.43 111.104C158.814 110.411 159.347 109.877 160.03 109.504C160.713 109.131 161.497 108.944 162.382 108.944C163.246 108.944 164.014 109.125 164.686 109.488C165.358 109.851 165.881 110.368 166.254 111.04C166.638 111.712 166.83 112.496 166.83 113.392ZM164.03 112.672C164.03 112.203 163.87 111.829 163.55 111.552C163.23 111.275 162.83 111.136 162.35 111.136C161.891 111.136 161.502 111.269 161.182 111.536C160.873 111.803 160.681 112.181 160.606 112.672H164.03Z" fill="#07818E"/>
<path d="M100.53 129.03L98.51 136H97.49L95.87 130.39L94.19 136L93.18 136.01L91.23 129.03H92.2L93.72 134.94L95.4 129.03H96.42L98.02 134.92L99.55 129.03H100.53ZM101.996 129.63C101.823 129.63 101.676 129.57 101.556 129.45C101.436 129.33 101.376 129.183 101.376 129.01C101.376 128.837 101.436 128.69 101.556 128.57C101.676 128.45 101.823 128.39 101.996 128.39C102.163 128.39 102.303 128.45 102.416 128.57C102.536 128.69 102.596 128.837 102.596 129.01C102.596 129.183 102.536 129.33 102.416 129.45C102.303 129.57 102.163 129.63 101.996 129.63ZM102.436 130.52V136H101.526V130.52H102.436ZM106.657 130.42C107.323 130.42 107.863 130.623 108.277 131.03C108.69 131.43 108.897 132.01 108.897 132.77V136H107.997V132.9C107.997 132.353 107.86 131.937 107.587 131.65C107.313 131.357 106.94 131.21 106.467 131.21C105.987 131.21 105.603 131.36 105.317 131.66C105.037 131.96 104.897 132.397 104.897 132.97V136H103.987V130.52H104.897V131.3C105.077 131.02 105.32 130.803 105.627 130.65C105.94 130.497 106.283 130.42 106.657 130.42ZM112.659 129.6V128.77H114.539V136H113.619V129.6H112.659ZM116.102 132.31C116.102 131.163 116.289 130.27 116.662 129.63C117.036 128.983 117.689 128.66 118.622 128.66C119.549 128.66 120.199 128.983 120.572 129.63C120.946 130.27 121.132 131.163 121.132 132.31C121.132 133.477 120.946 134.383 120.572 135.03C120.199 135.677 119.549 136 118.622 136C117.689 136 117.036 135.677 116.662 135.03C116.289 134.383 116.102 133.477 116.102 132.31ZM120.232 132.31C120.232 131.73 120.192 131.24 120.112 130.84C120.039 130.433 119.882 130.107 119.642 129.86C119.409 129.613 119.069 129.49 118.622 129.49C118.169 129.49 117.822 129.613 117.582 129.86C117.349 130.107 117.192 130.433 117.112 130.84C117.039 131.24 117.002 131.73 117.002 132.31C117.002 132.91 117.039 133.413 117.112 133.82C117.192 134.227 117.349 134.553 117.582 134.8C117.822 135.047 118.169 135.17 118.622 135.17C119.069 135.17 119.409 135.047 119.642 134.8C119.882 134.553 120.039 134.227 120.112 133.82C120.192 133.413 120.232 132.91 120.232 132.31ZM124.858 133.25C124.858 132.683 124.971 132.19 125.198 131.77C125.424 131.343 125.738 131.013 126.138 130.78C126.544 130.547 127.008 130.43 127.528 130.43C128.201 130.43 128.754 130.593 129.188 130.92C129.628 131.247 129.918 131.7 130.058 132.28H129.078C128.984 131.947 128.801 131.683 128.528 131.49C128.261 131.297 127.928 131.2 127.528 131.2C127.008 131.2 126.588 131.38 126.268 131.74C125.948 132.093 125.788 132.597 125.788 133.25C125.788 133.91 125.948 134.42 126.268 134.78C126.588 135.14 127.008 135.32 127.528 135.32C127.928 135.32 128.261 135.227 128.528 135.04C128.794 134.853 128.978 134.587 129.078 134.24H130.058C129.911 134.8 129.618 135.25 129.178 135.59C128.738 135.923 128.188 136.09 127.528 136.09C127.008 136.09 126.544 135.973 126.138 135.74C125.738 135.507 125.424 135.177 125.198 134.75C124.971 134.323 124.858 133.823 124.858 133.25ZM133.662 136.09C133.149 136.09 132.682 135.973 132.262 135.74C131.849 135.507 131.522 135.177 131.282 134.75C131.049 134.317 130.932 133.817 130.932 133.25C130.932 132.69 131.052 132.197 131.292 131.77C131.539 131.337 131.872 131.007 132.292 130.78C132.712 130.547 133.182 130.43 133.702 130.43C134.222 130.43 134.692 130.547 135.112 130.78C135.532 131.007 135.862 131.333 136.102 131.76C136.349 132.187 136.472 132.683 136.472 133.25C136.472 133.817 136.345 134.317 136.092 134.75C135.845 135.177 135.509 135.507 135.082 135.74C134.655 135.973 134.182 136.09 133.662 136.09ZM133.662 135.29C133.989 135.29 134.295 135.213 134.582 135.06C134.869 134.907 135.099 134.677 135.272 134.37C135.452 134.063 135.542 133.69 135.542 133.25C135.542 132.81 135.455 132.437 135.282 132.13C135.109 131.823 134.882 131.597 134.602 131.45C134.322 131.297 134.019 131.22 133.692 131.22C133.359 131.22 133.052 131.297 132.772 131.45C132.499 131.597 132.279 131.823 132.112 132.13C131.945 132.437 131.862 132.81 131.862 133.25C131.862 133.697 131.942 134.073 132.102 134.38C132.269 134.687 132.489 134.917 132.762 135.07C133.035 135.217 133.335 135.29 133.662 135.29ZM140.338 130.42C141.005 130.42 141.545 130.623 141.958 131.03C142.372 131.43 142.578 132.01 142.578 132.77V136H141.678V132.9C141.678 132.353 141.542 131.937 141.268 131.65C140.995 131.357 140.622 131.21 140.148 131.21C139.668 131.21 139.285 131.36 138.998 131.66C138.718 131.96 138.578 132.397 138.578 132.97V136H137.668V130.52H138.578V131.3C138.758 131.02 139.002 130.803 139.308 130.65C139.622 130.497 139.965 130.42 140.338 130.42ZM146.005 136.09C145.585 136.09 145.208 136.02 144.875 135.88C144.542 135.733 144.278 135.533 144.085 135.28C143.892 135.02 143.785 134.723 143.765 134.39H144.705C144.732 134.663 144.858 134.887 145.085 135.06C145.318 135.233 145.622 135.32 145.995 135.32C146.342 135.32 146.615 135.243 146.815 135.09C147.015 134.937 147.115 134.743 147.115 134.51C147.115 134.27 147.008 134.093 146.795 133.98C146.582 133.86 146.252 133.743 145.805 133.63C145.398 133.523 145.065 133.417 144.805 133.31C144.552 133.197 144.332 133.033 144.145 132.82C143.965 132.6 143.875 132.313 143.875 131.96C143.875 131.68 143.958 131.423 144.125 131.19C144.292 130.957 144.528 130.773 144.835 130.64C145.142 130.5 145.492 130.43 145.885 130.43C146.492 130.43 146.982 130.583 147.355 130.89C147.728 131.197 147.928 131.617 147.955 132.15H147.045C147.025 131.863 146.908 131.633 146.695 131.46C146.488 131.287 146.208 131.2 145.855 131.2C145.528 131.2 145.268 131.27 145.075 131.41C144.882 131.55 144.785 131.733 144.785 131.96C144.785 132.14 144.842 132.29 144.955 132.41C145.075 132.523 145.222 132.617 145.395 132.69C145.575 132.757 145.822 132.833 146.135 132.92C146.528 133.027 146.848 133.133 147.095 133.24C147.342 133.34 147.552 133.493 147.725 133.7C147.905 133.907 147.998 134.177 148.005 134.51C148.005 134.81 147.922 135.08 147.755 135.32C147.588 135.56 147.352 135.75 147.045 135.89C146.745 136.023 146.398 136.09 146.005 136.09ZM154.29 133.05C154.29 133.223 154.28 133.407 154.26 133.6H149.88C149.913 134.14 150.096 134.563 150.43 134.87C150.77 135.17 151.18 135.32 151.66 135.32C152.053 135.32 152.38 135.23 152.64 135.05C152.906 134.863 153.093 134.617 153.2 134.31H154.18C154.033 134.837 153.74 135.267 153.3 135.6C152.86 135.927 152.313 136.09 151.66 136.09C151.14 136.09 150.673 135.973 150.26 135.74C149.853 135.507 149.533 135.177 149.3 134.75C149.066 134.317 148.95 133.817 148.95 133.25C148.95 132.683 149.063 132.187 149.29 131.76C149.516 131.333 149.833 131.007 150.24 130.78C150.653 130.547 151.126 130.43 151.66 130.43C152.18 130.43 152.64 130.543 153.04 130.77C153.44 130.997 153.746 131.31 153.96 131.71C154.18 132.103 154.29 132.55 154.29 133.05ZM153.35 132.86C153.35 132.513 153.273 132.217 153.12 131.97C152.966 131.717 152.756 131.527 152.49 131.4C152.23 131.267 151.94 131.2 151.62 131.2C151.16 131.2 150.766 131.347 150.44 131.64C150.12 131.933 149.936 132.34 149.89 132.86H153.35ZM155.151 133.25C155.151 132.683 155.264 132.19 155.491 131.77C155.717 131.343 156.031 131.013 156.431 130.78C156.837 130.547 157.301 130.43 157.821 130.43C158.494 130.43 159.047 130.593 159.481 130.92C159.921 131.247 160.211 131.7 160.351 132.28H159.371C159.277 131.947 159.094 131.683 158.821 131.49C158.554 131.297 158.221 131.2 157.821 131.2C157.301 131.2 156.881 131.38 156.561 131.74C156.241 132.093 156.081 132.597 156.081 133.25C156.081 133.91 156.241 134.42 156.561 134.78C156.881 135.14 157.301 135.32 157.821 135.32C158.221 135.32 158.554 135.227 158.821 135.04C159.087 134.853 159.271 134.587 159.371 134.24H160.351C160.204 134.8 159.911 135.25 159.471 135.59C159.031 135.923 158.481 136.09 157.821 136.09C157.301 136.09 156.837 135.973 156.431 135.74C156.031 135.507 155.717 135.177 155.491 134.75C155.264 134.323 155.151 133.823 155.151 133.25ZM166.425 130.52V136H165.515V135.19C165.342 135.47 165.098 135.69 164.785 135.85C164.478 136.003 164.138 136.08 163.765 136.08C163.338 136.08 162.955 135.993 162.615 135.82C162.275 135.64 162.005 135.373 161.805 135.02C161.612 134.667 161.515 134.237 161.515 133.73V130.52H162.415V133.61C162.415 134.15 162.552 134.567 162.825 134.86C163.098 135.147 163.472 135.29 163.945 135.29C164.432 135.29 164.815 135.14 165.095 134.84C165.375 134.54 165.515 134.103 165.515 133.53V130.52H166.425ZM169.071 131.27V134.5C169.071 134.767 169.128 134.957 169.241 135.07C169.355 135.177 169.551 135.23 169.831 135.23H170.501V136H169.681C169.175 136 168.795 135.883 168.541 135.65C168.288 135.417 168.161 135.033 168.161 134.5V131.27H167.451V130.52H168.161V129.14H169.071V130.52H170.501V131.27H169.071ZM172.074 129.63C171.901 129.63 171.754 129.57 171.634 129.45C171.514 129.33 171.454 129.183 171.454 129.01C171.454 128.837 171.514 128.69 171.634 128.57C171.754 128.45 171.901 128.39 172.074 128.39C172.241 128.39 172.381 128.45 172.494 128.57C172.614 128.69 172.674 128.837 172.674 129.01C172.674 129.183 172.614 129.33 172.494 129.45C172.381 129.57 172.241 129.63 172.074 129.63ZM172.514 130.52V136H171.604V130.52H172.514ZM176.105 135.16L177.805 130.52H178.775L176.625 136H175.565L173.415 130.52H174.395L176.105 135.16ZM184.67 133.05C184.67 133.223 184.66 133.407 184.64 133.6H180.26C180.294 134.14 180.477 134.563 180.81 134.87C181.15 135.17 181.56 135.32 182.04 135.32C182.434 135.32 182.76 135.23 183.02 135.05C183.287 134.863 183.474 134.617 183.58 134.31H184.56C184.414 134.837 184.12 135.267 183.68 135.6C183.24 135.927 182.694 136.09 182.04 136.09C181.52 136.09 181.054 135.973 180.64 135.74C180.234 135.507 179.914 135.177 179.68 134.75C179.447 134.317 179.33 133.817 179.33 133.25C179.33 132.683 179.444 132.187 179.67 131.76C179.897 131.333 180.214 131.007 180.62 130.78C181.034 130.547 181.507 130.43 182.04 130.43C182.56 130.43 183.02 130.543 183.42 130.77C183.82 130.997 184.127 131.31 184.34 131.71C184.56 132.103 184.67 132.55 184.67 133.05ZM183.73 132.86C183.73 132.513 183.654 132.217 183.5 131.97C183.347 131.717 183.137 131.527 182.87 131.4C182.61 131.267 182.32 131.2 182 131.2C181.54 131.2 181.147 131.347 180.82 131.64C180.5 131.933 180.317 132.34 180.27 132.86H183.73ZM98.36 145.42C98.7867 145.42 99.1667 145.51 99.5 145.69C99.8333 145.863 100.097 146.127 100.29 146.48C100.483 146.833 100.58 147.263 100.58 147.77V151H99.68V147.9C99.68 147.353 99.5433 146.937 99.27 146.65C99.0033 146.357 98.64 146.21 98.18 146.21C97.7067 146.21 97.33 146.363 97.05 146.67C96.77 146.97 96.63 147.407 96.63 147.98V151H95.73V147.9C95.73 147.353 95.5933 146.937 95.32 146.65C95.0533 146.357 94.69 146.21 94.23 146.21C93.7567 146.21 93.38 146.363 93.1 146.67C92.82 146.97 92.68 147.407 92.68 147.98V151H91.77V145.52H92.68V146.31C92.86 146.023 93.1 145.803 93.4 145.65C93.7067 145.497 94.0433 145.42 94.41 145.42C94.87 145.42 95.2767 145.523 95.63 145.73C95.9833 145.937 96.2467 146.24 96.42 146.64C96.5733 146.253 96.8267 145.953 97.18 145.74C97.5333 145.527 97.9267 145.42 98.36 145.42ZM101.733 148.24C101.733 147.68 101.846 147.19 102.073 146.77C102.299 146.343 102.609 146.013 103.003 145.78C103.403 145.547 103.846 145.43 104.333 145.43C104.813 145.43 105.229 145.533 105.583 145.74C105.936 145.947 106.199 146.207 106.373 146.52V145.52H107.293V151H106.373V149.98C106.193 150.3 105.923 150.567 105.563 150.78C105.209 150.987 104.796 151.09 104.323 151.09C103.836 151.09 103.396 150.97 103.003 150.73C102.609 150.49 102.299 150.153 102.073 149.72C101.846 149.287 101.733 148.793 101.733 148.24ZM106.373 148.25C106.373 147.837 106.289 147.477 106.123 147.17C105.956 146.863 105.729 146.63 105.443 146.47C105.163 146.303 104.853 146.22 104.513 146.22C104.173 146.22 103.863 146.3 103.583 146.46C103.303 146.62 103.079 146.853 102.913 147.16C102.746 147.467 102.663 147.827 102.663 148.24C102.663 148.66 102.746 149.027 102.913 149.34C103.079 149.647 103.303 149.883 103.583 150.05C103.863 150.21 104.173 150.29 104.513 150.29C104.853 150.29 105.163 150.21 105.443 150.05C105.729 149.883 105.956 149.647 106.123 149.34C106.289 149.027 106.373 148.663 106.373 148.25ZM109.941 146.27V149.5C109.941 149.767 109.997 149.957 110.111 150.07C110.224 150.177 110.421 150.23 110.701 150.23H111.371V151H110.551C110.044 151 109.664 150.883 109.411 150.65C109.157 150.417 109.031 150.033 109.031 149.5V146.27H108.321V145.52H109.031V144.14H109.941V145.52H111.371V146.27H109.941ZM112.133 148.25C112.133 147.683 112.246 147.19 112.473 146.77C112.7 146.343 113.013 146.013 113.413 145.78C113.82 145.547 114.283 145.43 114.803 145.43C115.476 145.43 116.03 145.593 116.463 145.92C116.903 146.247 117.193 146.7 117.333 147.28H116.353C116.26 146.947 116.076 146.683 115.803 146.49C115.536 146.297 115.203 146.2 114.803 146.2C114.283 146.2 113.863 146.38 113.543 146.74C113.223 147.093 113.063 147.597 113.063 148.25C113.063 148.91 113.223 149.42 113.543 149.78C113.863 150.14 114.283 150.32 114.803 150.32C115.203 150.32 115.536 150.227 115.803 150.04C116.07 149.853 116.253 149.587 116.353 149.24H117.333C117.186 149.8 116.893 150.25 116.453 150.59C116.013 150.923 115.463 151.09 114.803 151.09C114.283 151.09 113.82 150.973 113.413 150.74C113.013 150.507 112.7 150.177 112.473 149.75C112.246 149.323 112.133 148.823 112.133 148.25ZM121.267 145.42C121.681 145.42 122.054 145.51 122.387 145.69C122.721 145.863 122.981 146.127 123.167 146.48C123.361 146.833 123.457 147.263 123.457 147.77V151H122.557V147.9C122.557 147.353 122.421 146.937 122.147 146.65C121.874 146.357 121.501 146.21 121.027 146.21C120.547 146.21 120.164 146.36 119.877 146.66C119.597 146.96 119.457 147.397 119.457 147.97V151H118.547V143.6H119.457V146.3C119.637 146.02 119.884 145.803 120.197 145.65C120.517 145.497 120.874 145.42 121.267 145.42ZM129.944 148.05C129.944 148.223 129.934 148.407 129.914 148.6H125.534C125.567 149.14 125.75 149.563 126.084 149.87C126.424 150.17 126.834 150.32 127.314 150.32C127.707 150.32 128.034 150.23 128.294 150.05C128.56 149.863 128.747 149.617 128.854 149.31H129.834C129.687 149.837 129.394 150.267 128.954 150.6C128.514 150.927 127.967 151.09 127.314 151.09C126.794 151.09 126.327 150.973 125.914 150.74C125.507 150.507 125.187 150.177 124.954 149.75C124.72 149.317 124.604 148.817 124.604 148.25C124.604 147.683 124.717 147.187 124.944 146.76C125.17 146.333 125.487 146.007 125.894 145.78C126.307 145.547 126.78 145.43 127.314 145.43C127.834 145.43 128.294 145.543 128.694 145.77C129.094 145.997 129.4 146.31 129.614 146.71C129.834 147.103 129.944 147.55 129.944 148.05ZM129.004 147.86C129.004 147.513 128.927 147.217 128.774 146.97C128.62 146.717 128.41 146.527 128.144 146.4C127.884 146.267 127.594 146.2 127.274 146.2C126.814 146.2 126.42 146.347 126.094 146.64C125.774 146.933 125.59 147.34 125.544 147.86H129.004ZM133.085 151.09C132.665 151.09 132.288 151.02 131.955 150.88C131.622 150.733 131.358 150.533 131.165 150.28C130.972 150.02 130.865 149.723 130.845 149.39H131.785C131.812 149.663 131.938 149.887 132.165 150.06C132.398 150.233 132.702 150.32 133.075 150.32C133.422 150.32 133.695 150.243 133.895 150.09C134.095 149.937 134.195 149.743 134.195 149.51C134.195 149.27 134.088 149.093 133.875 148.98C133.662 148.86 133.332 148.743 132.885 148.63C132.478 148.523 132.145 148.417 131.885 148.31C131.632 148.197 131.412 148.033 131.225 147.82C131.045 147.6 130.955 147.313 130.955 146.96C130.955 146.68 131.038 146.423 131.205 146.19C131.372 145.957 131.608 145.773 131.915 145.64C132.222 145.5 132.572 145.43 132.965 145.43C133.572 145.43 134.062 145.583 134.435 145.89C134.808 146.197 135.008 146.617 135.035 147.15H134.125C134.105 146.863 133.988 146.633 133.775 146.46C133.568 146.287 133.288 146.2 132.935 146.2C132.608 146.2 132.348 146.27 132.155 146.41C131.962 146.55 131.865 146.733 131.865 146.96C131.865 147.14 131.922 147.29 132.035 147.41C132.155 147.523 132.302 147.617 132.475 147.69C132.655 147.757 132.902 147.833 133.215 147.92C133.608 148.027 133.928 148.133 134.175 148.24C134.422 148.34 134.632 148.493 134.805 148.7C134.985 148.907 135.078 149.177 135.085 149.51C135.085 149.81 135.002 150.08 134.835 150.32C134.668 150.56 134.432 150.75 134.125 150.89C133.825 151.023 133.478 151.09 133.085 151.09ZM139.506 144.63C139.332 144.63 139.186 144.57 139.066 144.45C138.946 144.33 138.886 144.183 138.886 144.01C138.886 143.837 138.946 143.69 139.066 143.57C139.186 143.45 139.332 143.39 139.506 143.39C139.672 143.39 139.812 143.45 139.926 143.57C140.046 143.69 140.106 143.837 140.106 144.01C140.106 144.183 140.046 144.33 139.926 144.45C139.812 144.57 139.672 144.63 139.506 144.63ZM139.946 145.52V151H139.036V145.52H139.946ZM144.167 145.42C144.833 145.42 145.373 145.623 145.787 146.03C146.2 146.43 146.407 147.01 146.407 147.77V151H145.507V147.9C145.507 147.353 145.37 146.937 145.097 146.65C144.823 146.357 144.45 146.21 143.977 146.21C143.497 146.21 143.113 146.36 142.827 146.66C142.547 146.96 142.407 147.397 142.407 147.97V151H141.497V145.52H142.407V146.3C142.587 146.02 142.83 145.803 143.137 145.65C143.45 145.497 143.793 145.42 144.167 145.42ZM150.219 148.24C150.219 147.68 150.332 147.19 150.559 146.77C150.786 146.343 151.096 146.013 151.489 145.78C151.889 145.547 152.332 145.43 152.819 145.43C153.299 145.43 153.716 145.533 154.069 145.74C154.422 145.947 154.686 146.207 154.859 146.52V145.52H155.779V151H154.859V149.98C154.679 150.3 154.409 150.567 154.049 150.78C153.696 150.987 153.282 151.09 152.809 151.09C152.322 151.09 151.882 150.97 151.489 150.73C151.096 150.49 150.786 150.153 150.559 149.72C150.332 149.287 150.219 148.793 150.219 148.24ZM154.859 148.25C154.859 147.837 154.776 147.477 154.609 147.17C154.442 146.863 154.216 146.63 153.929 146.47C153.649 146.303 153.339 146.22 152.999 146.22C152.659 146.22 152.349 146.3 152.069 146.46C151.789 146.62 151.566 146.853 151.399 147.16C151.232 147.467 151.149 147.827 151.149 148.24C151.149 148.66 151.232 149.027 151.399 149.34C151.566 149.647 151.789 149.883 152.069 150.05C152.349 150.21 152.659 150.29 152.999 150.29C153.339 150.29 153.649 150.21 153.929 150.05C154.216 149.883 154.442 149.647 154.609 149.34C154.776 149.027 154.859 148.663 154.859 148.25ZM160.893 146.41C161.053 146.097 161.28 145.853 161.573 145.68C161.873 145.507 162.236 145.42 162.663 145.42V146.36H162.423C161.403 146.36 160.893 146.913 160.893 148.02V151H159.983V145.52H160.893V146.41ZM166.103 151.09C165.59 151.09 165.123 150.973 164.703 150.74C164.29 150.507 163.963 150.177 163.723 149.75C163.49 149.317 163.373 148.817 163.373 148.25C163.373 147.69 163.493 147.197 163.733 146.77C163.98 146.337 164.313 146.007 164.733 145.78C165.153 145.547 165.623 145.43 166.143 145.43C166.663 145.43 167.133 145.547 167.553 145.78C167.973 146.007 168.303 146.333 168.543 146.76C168.79 147.187 168.913 147.683 168.913 148.25C168.913 148.817 168.787 149.317 168.533 149.75C168.287 150.177 167.95 150.507 167.523 150.74C167.097 150.973 166.623 151.09 166.103 151.09ZM166.103 150.29C166.43 150.29 166.737 150.213 167.023 150.06C167.31 149.907 167.54 149.677 167.713 149.37C167.893 149.063 167.983 148.69 167.983 148.25C167.983 147.81 167.897 147.437 167.723 147.13C167.55 146.823 167.323 146.597 167.043 146.45C166.763 146.297 166.46 146.22 166.133 146.22C165.8 146.22 165.493 146.297 165.213 146.45C164.94 146.597 164.72 146.823 164.553 147.13C164.387 147.437 164.303 147.81 164.303 148.25C164.303 148.697 164.383 149.073 164.543 149.38C164.71 149.687 164.93 149.917 165.203 150.07C165.477 150.217 165.777 150.29 166.103 150.29ZM177.41 145.52L175.7 151H174.76L173.44 146.65L172.12 151H171.18L169.46 145.52H170.39L171.65 150.12L173.01 145.52H173.94L175.27 150.13L176.51 145.52H177.41Z" fill="#78B1B7"/>
</svg>
