<svg width="10" height="9" viewBox="0 0 10 9" fill="none" xmlns="http://www.w3.org/2000/svg">
<g id="pong icon">
<path id="Vector" d="M4.3837 0.222656C5.49867 0.222656 6.56798 0.632594 7.35638 1.36229C8.14478 2.09198 8.58771 3.08166 8.58771 4.11361C8.58771 4.74025 8.42795 5.33168 8.14385 5.85593L9.2338 6.86512C9.31676 6.94193 9.36336 7.04609 9.36336 7.15469C9.36336 7.26329 9.31676 7.36745 9.2338 7.44426L7.98233 8.60253C7.94123 8.64061 7.89242 8.67082 7.8387 8.69144C7.78498 8.71205 7.7274 8.72266 7.66924 8.72266C7.61109 8.72266 7.5535 8.71205 7.49978 8.69144C7.44606 8.67082 7.39725 8.64061 7.35615 8.60253L6.26621 7.59375C5.68194 7.86478 5.03724 8.00547 4.3837 8.00456C3.26872 8.00456 2.19942 7.59462 1.41101 6.86492C0.622608 6.13523 0.179687 5.14555 0.179688 4.11361C0.179687 3.08166 0.622608 2.09198 1.41101 1.36229C2.19942 0.632594 3.26872 0.222656 4.3837 0.222656ZM6.73042 5.70603L6.10469 6.28517L7.66946 7.73301L8.2952 7.15387L6.73042 5.70603ZM7.55529 3.20558L3.40261 7.04902C3.72043 7.13966 4.05114 7.18563 4.3837 7.18541C4.79861 7.18592 5.20993 7.11423 5.59622 6.97407L5.16608 6.57514C5.08312 6.49834 5.03652 6.39418 5.03652 6.28557C5.03652 6.17697 5.08312 6.07281 5.16608 5.99601L6.41755 4.83773C6.50054 4.76095 6.61308 4.71781 6.73042 4.71781C6.84776 4.71781 6.9603 4.76095 7.04329 4.83773L7.47431 5.23584C7.62574 4.87831 7.7032 4.49762 7.70265 4.11361C7.70265 3.79742 7.65088 3.49269 7.55529 3.20558Z" fill="white"/>
<path id="Ellipse 185" d="M7.47423 1.07266C7.47423 1.51091 7.08917 1.87266 6.60587 1.87266C6.12257 1.87266 5.7375 1.51091 5.7375 1.07266C5.7375 0.6344 6.12257 0.272656 6.60587 0.272656C7.08917 0.272656 7.47423 0.6344 7.47423 1.07266Z" fill="#7DBDF0" stroke="white" stroke-width="0.1"/>
</g>
</svg>
