<svg width="10" height="9" viewBox="0 0 10 9" fill="none" xmlns="http://www.w3.org/2000/svg">
<path d="M9.10409 0.247343C8.87441 0.0291542 8.53447 -0.0521317 8.21751 0.0334324L0.826216 2.0228C0.491794 2.10879 0.254758 2.35564 0.190905 2.66923C0.125675 2.98839 0.353523 3.39353 0.651196 3.56295L2.9623 4.87764C3.19933 5.01241 3.50527 4.97861 3.70142 4.7955L6.34786 2.33083C6.48108 2.20248 6.70158 2.20248 6.8348 2.33083C6.96802 2.4549 6.96802 2.65597 6.8348 2.78432L4.18376 5.24942C3.98715 5.4321 3.9504 5.7166 4.09511 5.93736L5.50721 8.09785C5.67259 8.35454 5.9574 8.5 6.26977 8.5C6.30652 8.5 6.34786 8.5 6.38461 8.49572C6.74292 8.45294 7.02773 8.2262 7.13339 7.90533L9.32459 1.07304C9.42106 0.782118 9.33378 0.465531 9.10409 0.247343Z" fill="white"/>
</svg>
