<svg width="197" height="231" viewBox="0 0 197 231" fill="none" xmlns="http://www.w3.org/2000/svg">
<path d="M15.8618 53.0312L81.535 11.6094C92.7552 4.53253 107.067 4.62764 118.192 11.853L181.519 52.9812C191.174 59.2518 197 69.9825 197 81.4953V152.29C197 164.099 190.873 175.062 180.815 181.249L117.498 220.2C106.708 226.838 93.1217 226.926 82.2459 220.428L16.5624 181.187C6.29009 175.05 0 163.965 0 151.999V81.7889C0 70.1156 5.98842 59.2585 15.8618 53.0312Z" fill="#CFDAFF"/>
<path d="M46.6401 68.4C46.3867 67.9333 46.0201 67.58 45.5401 67.34C45.0734 67.0867 44.5201 66.96 43.8801 66.96C42.7734 66.96 41.8867 67.3267 41.2201 68.06C40.5534 68.78 40.2201 69.7467 40.2201 70.96C40.2201 72.2533 40.5667 73.2667 41.2601 74C41.9667 74.72 42.9334 75.08 44.1601 75.08C45.0001 75.08 45.7067 74.8667 46.2801 74.44C46.8667 74.0133 47.2934 73.4 47.5601 72.6H43.2201V70.08H50.6601V73.26C50.4067 74.1133 49.9734 74.9067 49.3601 75.64C48.7601 76.3733 47.9934 76.9667 47.0601 77.42C46.1267 77.8733 45.0734 78.1 43.9001 78.1C42.5134 78.1 41.2734 77.8 40.1801 77.2C39.1001 76.5867 38.2534 75.74 37.6401 74.66C37.0401 73.58 36.7401 72.3467 36.7401 70.96C36.7401 69.5733 37.0401 68.34 37.6401 67.26C38.2534 66.1667 39.1001 65.32 40.1801 64.72C41.2601 64.1067 42.4934 63.8 43.8801 63.8C45.5601 63.8 46.9734 64.2067 48.1201 65.02C49.2801 65.8333 50.0467 66.96 50.4201 68.4H46.6401ZM55.9745 68.7C56.3745 68.0867 56.8745 67.6067 57.4745 67.26C58.0745 66.9 58.7411 66.72 59.4745 66.72V70.34H58.5345C57.6811 70.34 57.0411 70.5267 56.6145 70.9C56.1878 71.26 55.9745 71.9 55.9745 72.82V78H52.5545V66.84H55.9745V68.7ZM60.4291 72.4C60.4291 71.2533 60.6425 70.2467 61.0691 69.38C61.5091 68.5133 62.1025 67.8467 62.8491 67.38C63.5958 66.9133 64.4291 66.68 65.3491 66.68C66.1358 66.68 66.8225 66.84 67.4091 67.16C68.0091 67.48 68.4691 67.9 68.7891 68.42V66.84H72.2091V78H68.7891V76.42C68.4558 76.94 67.9891 77.36 67.3891 77.68C66.8025 78 66.1158 78.16 65.3291 78.16C64.4225 78.16 63.5958 77.9267 62.8491 77.46C62.1025 76.98 61.5091 76.3067 61.0691 75.44C60.6425 74.56 60.4291 73.5467 60.4291 72.4ZM68.7891 72.42C68.7891 71.5667 68.5491 70.8933 68.0691 70.4C67.6025 69.9067 67.0291 69.66 66.3491 69.66C65.6691 69.66 65.0891 69.9067 64.6091 70.4C64.1425 70.88 63.9091 71.5467 63.9091 72.4C63.9091 73.2533 64.1425 73.9333 64.6091 74.44C65.0891 74.9333 65.6691 75.18 66.3491 75.18C67.0291 75.18 67.6025 74.9333 68.0691 74.44C68.5491 73.9467 68.7891 73.2733 68.7891 72.42ZM81.4834 66.72C82.79 66.72 83.83 67.1467 84.6034 68C85.39 68.84 85.7834 70 85.7834 71.48V78H82.3834V71.94C82.3834 71.1933 82.19 70.6133 81.8034 70.2C81.4167 69.7867 80.8967 69.58 80.2434 69.58C79.59 69.58 79.07 69.7867 78.6834 70.2C78.2967 70.6133 78.1034 71.1933 78.1034 71.94V78H74.6834V66.84H78.1034V68.32C78.45 67.8267 78.9167 67.44 79.5034 67.16C80.09 66.8667 80.75 66.72 81.4834 66.72ZM87.4799 72.4C87.4799 71.2533 87.6933 70.2467 88.1199 69.38C88.5599 68.5133 89.1533 67.8467 89.8999 67.38C90.6466 66.9133 91.4799 66.68 92.3999 66.68C93.1333 66.68 93.7999 66.8333 94.3999 67.14C95.0133 67.4467 95.4933 67.86 95.8399 68.38V63.2H99.2599V78H95.8399V76.4C95.5199 76.9333 95.0599 77.36 94.4599 77.68C93.8733 78 93.1866 78.16 92.3999 78.16C91.4799 78.16 90.6466 77.9267 89.8999 77.46C89.1533 76.98 88.5599 76.3067 88.1199 75.44C87.6933 74.56 87.4799 73.5467 87.4799 72.4ZM95.8399 72.42C95.8399 71.5667 95.5999 70.8933 95.1199 70.4C94.6533 69.9067 94.0799 69.66 93.3999 69.66C92.7199 69.66 92.1399 69.9067 91.6599 70.4C91.1933 70.88 90.9599 71.5467 90.9599 72.4C90.9599 73.2533 91.1933 73.9333 91.6599 74.44C92.1399 74.9333 92.7199 75.18 93.3999 75.18C94.0799 75.18 94.6533 74.9333 95.1199 74.44C95.5999 73.9467 95.8399 73.2733 95.8399 72.42ZM111.052 78.14C110.026 78.14 109.106 77.9733 108.292 77.64C107.479 77.3067 106.826 76.8133 106.332 76.16C105.852 75.5067 105.599 74.72 105.572 73.8H109.212C109.266 74.32 109.446 74.72 109.752 75C110.059 75.2667 110.459 75.4 110.952 75.4C111.459 75.4 111.859 75.2867 112.152 75.06C112.446 74.82 112.592 74.4933 112.592 74.08C112.592 73.7333 112.472 73.4467 112.232 73.22C112.006 72.9933 111.719 72.8067 111.372 72.66C111.039 72.5133 110.559 72.3467 109.932 72.16C109.026 71.88 108.286 71.6 107.712 71.32C107.139 71.04 106.646 70.6267 106.232 70.08C105.819 69.5333 105.612 68.82 105.612 67.94C105.612 66.6333 106.086 65.6133 107.032 64.88C107.979 64.1333 109.212 63.76 110.732 63.76C112.279 63.76 113.526 64.1333 114.472 64.88C115.419 65.6133 115.926 66.64 115.992 67.96H112.292C112.266 67.5067 112.099 67.1533 111.792 66.9C111.486 66.6333 111.092 66.5 110.612 66.5C110.199 66.5 109.866 66.6133 109.612 66.84C109.359 67.0533 109.232 67.3667 109.232 67.78C109.232 68.2333 109.446 68.5867 109.872 68.84C110.299 69.0933 110.966 69.3667 111.872 69.66C112.779 69.9667 113.512 70.26 114.072 70.54C114.646 70.82 115.139 71.2267 115.552 71.76C115.966 72.2933 116.172 72.98 116.172 73.82C116.172 74.62 115.966 75.3467 115.552 76C115.152 76.6533 114.566 77.1733 113.792 77.56C113.019 77.9467 112.106 78.14 111.052 78.14ZM121.697 63.2V78H118.277V63.2H121.697ZM123.496 72.4C123.496 71.2533 123.709 70.2467 124.136 69.38C124.576 68.5133 125.169 67.8467 125.916 67.38C126.662 66.9133 127.496 66.68 128.416 66.68C129.202 66.68 129.889 66.84 130.476 67.16C131.076 67.48 131.536 67.9 131.856 68.42V66.84H135.276V78H131.856V76.42C131.522 76.94 131.056 77.36 130.456 77.68C129.869 78 129.182 78.16 128.396 78.16C127.489 78.16 126.662 77.9267 125.916 77.46C125.169 76.98 124.576 76.3067 124.136 75.44C123.709 74.56 123.496 73.5467 123.496 72.4ZM131.856 72.42C131.856 71.5667 131.616 70.8933 131.136 70.4C130.669 69.9067 130.096 69.66 129.416 69.66C128.736 69.66 128.156 69.9067 127.676 70.4C127.209 70.88 126.976 71.5467 126.976 72.4C126.976 73.2533 127.209 73.9333 127.676 74.44C128.156 74.9333 128.736 75.18 129.416 75.18C130.096 75.18 130.669 74.9333 131.136 74.44C131.616 73.9467 131.856 73.2733 131.856 72.42ZM151.99 66.72C153.376 66.72 154.476 67.14 155.29 67.98C156.116 68.82 156.53 69.9867 156.53 71.48V78H153.13V71.94C153.13 71.22 152.936 70.6667 152.55 70.28C152.176 69.88 151.656 69.68 150.99 69.68C150.323 69.68 149.796 69.88 149.41 70.28C149.036 70.6667 148.85 71.22 148.85 71.94V78H145.45V71.94C145.45 71.22 145.256 70.6667 144.87 70.28C144.496 69.88 143.976 69.68 143.31 69.68C142.643 69.68 142.116 69.88 141.73 70.28C141.356 70.6667 141.17 71.22 141.17 71.94V78H137.75V66.84H141.17V68.24C141.516 67.7733 141.97 67.4067 142.53 67.14C143.09 66.86 143.723 66.72 144.43 66.72C145.27 66.72 146.016 66.9 146.67 67.26C147.336 67.62 147.856 68.1333 148.23 68.8C148.616 68.1867 149.143 67.6867 149.81 67.3C150.476 66.9133 151.203 66.72 151.99 66.72ZM45.0897 100.96C45.0897 99.5733 45.3897 98.34 45.9897 97.26C46.5897 96.1667 47.423 95.32 48.4897 94.72C49.5697 94.1067 50.7897 93.8 52.1497 93.8C53.8164 93.8 55.243 94.24 56.4297 95.12C57.6164 96 58.4097 97.2 58.8097 98.72H55.0497C54.7697 98.1333 54.3697 97.6867 53.8497 97.38C53.343 97.0733 52.763 96.92 52.1097 96.92C51.0564 96.92 50.203 97.2867 49.5497 98.02C48.8964 98.7533 48.5697 99.7333 48.5697 100.96C48.5697 102.187 48.8964 103.167 49.5497 103.9C50.203 104.633 51.0564 105 52.1097 105C52.763 105 53.343 104.847 53.8497 104.54C54.3697 104.233 54.7697 103.787 55.0497 103.2H58.8097C58.4097 104.72 57.6164 105.92 56.4297 106.8C55.243 107.667 53.8164 108.1 52.1497 108.1C50.7897 108.1 49.5697 107.8 48.4897 107.2C47.423 106.587 46.5897 105.74 45.9897 104.66C45.3897 103.58 45.0897 102.347 45.0897 100.96ZM67.7641 96.72C69.0441 96.72 70.0707 97.1467 70.8441 98C71.6174 98.84 72.0041 100 72.0041 101.48V108H68.6041V101.94C68.6041 101.193 68.4107 100.613 68.0241 100.2C67.6374 99.7867 67.1174 99.58 66.4641 99.58C65.8107 99.58 65.2907 99.7867 64.9041 100.2C64.5174 100.613 64.3241 101.193 64.3241 101.94V108H60.9041V93.2H64.3241V98.34C64.6707 97.8467 65.1441 97.4533 65.7441 97.16C66.3441 96.8667 67.0174 96.72 67.7641 96.72ZM73.7006 102.4C73.7006 101.253 73.914 100.247 74.3406 99.38C74.7806 98.5133 75.374 97.8467 76.1206 97.38C76.8673 96.9133 77.7006 96.68 78.6206 96.68C79.4073 96.68 80.094 96.84 80.6806 97.16C81.2806 97.48 81.7406 97.9 82.0606 98.42V96.84H85.4806V108H82.0606V106.42C81.7273 106.94 81.2606 107.36 80.6606 107.68C80.074 108 79.3873 108.16 78.6006 108.16C77.694 108.16 76.8673 107.927 76.1206 107.46C75.374 106.98 74.7806 106.307 74.3406 105.44C73.914 104.56 73.7006 103.547 73.7006 102.4ZM82.0606 102.42C82.0606 101.567 81.8206 100.893 81.3406 100.4C80.874 99.9067 80.3006 99.66 79.6206 99.66C78.9406 99.66 78.3606 99.9067 77.8806 100.4C77.414 100.88 77.1806 101.547 77.1806 102.4C77.1806 103.253 77.414 103.933 77.8806 104.44C78.3606 104.933 78.9406 105.18 79.6206 105.18C80.3006 105.18 80.874 104.933 81.3406 104.44C81.8206 103.947 82.0606 103.273 82.0606 102.42ZM102.195 96.72C103.582 96.72 104.682 97.14 105.495 97.98C106.322 98.82 106.735 99.9867 106.735 101.48V108H103.335V101.94C103.335 101.22 103.142 100.667 102.755 100.28C102.382 99.88 101.862 99.68 101.195 99.68C100.528 99.68 100.002 99.88 99.6148 100.28C99.2415 100.667 99.0548 101.22 99.0548 101.94V108H95.6548V101.94C95.6548 101.22 95.4615 100.667 95.0748 100.28C94.7015 99.88 94.1815 99.68 93.5148 99.68C92.8482 99.68 92.3215 99.88 91.9348 100.28C91.5615 100.667 91.3748 101.22 91.3748 101.94V108H87.9548V96.84H91.3748V98.24C91.7215 97.7733 92.1748 97.4067 92.7348 97.14C93.2948 96.86 93.9282 96.72 94.6348 96.72C95.4748 96.72 96.2215 96.9 96.8748 97.26C97.5415 97.62 98.0615 98.1333 98.4348 98.8C98.8215 98.1867 99.3482 97.6867 100.015 97.3C100.682 96.9133 101.408 96.72 102.195 96.72ZM112.547 98.42C112.88 97.9 113.34 97.48 113.927 97.16C114.513 96.84 115.2 96.68 115.987 96.68C116.907 96.68 117.74 96.9133 118.487 97.38C119.233 97.8467 119.82 98.5133 120.247 99.38C120.687 100.247 120.907 101.253 120.907 102.4C120.907 103.547 120.687 104.56 120.247 105.44C119.82 106.307 119.233 106.98 118.487 107.46C117.74 107.927 116.907 108.16 115.987 108.16C115.213 108.16 114.527 108 113.927 107.68C113.34 107.36 112.88 106.947 112.547 106.44V113.32H109.127V96.84H112.547V98.42ZM117.427 102.4C117.427 101.547 117.187 100.88 116.707 100.4C116.24 99.9067 115.66 99.66 114.967 99.66C114.287 99.66 113.707 99.9067 113.227 100.4C112.76 100.893 112.527 101.567 112.527 102.42C112.527 103.273 112.76 103.947 113.227 104.44C113.707 104.933 114.287 105.18 114.967 105.18C115.647 105.18 116.227 104.933 116.707 104.44C117.187 103.933 117.427 103.253 117.427 102.4ZM124.421 95.68C123.821 95.68 123.328 95.5067 122.941 95.16C122.568 94.8 122.381 94.36 122.381 93.84C122.381 93.3067 122.568 92.8667 122.941 92.52C123.328 92.16 123.821 91.98 124.421 91.98C125.008 91.98 125.488 92.16 125.861 92.52C126.248 92.8667 126.441 93.3067 126.441 93.84C126.441 94.36 126.248 94.8 125.861 95.16C125.488 95.5067 125.008 95.68 124.421 95.68ZM126.121 96.84V108H122.701V96.84H126.121ZM133.679 108.16C132.586 108.16 131.599 107.927 130.719 107.46C129.853 106.993 129.166 106.327 128.659 105.46C128.166 104.593 127.919 103.58 127.919 102.42C127.919 101.273 128.173 100.267 128.679 99.4C129.186 98.52 129.879 97.8467 130.759 97.38C131.639 96.9133 132.626 96.68 133.719 96.68C134.813 96.68 135.799 96.9133 136.679 97.38C137.559 97.8467 138.253 98.52 138.759 99.4C139.266 100.267 139.519 101.273 139.519 102.42C139.519 103.567 139.259 104.58 138.739 105.46C138.233 106.327 137.533 106.993 136.639 107.46C135.759 107.927 134.773 108.16 133.679 108.16ZM133.679 105.2C134.333 105.2 134.886 104.96 135.339 104.48C135.806 104 136.039 103.313 136.039 102.42C136.039 101.527 135.813 100.84 135.359 100.36C134.919 99.88 134.373 99.64 133.719 99.64C133.053 99.64 132.499 99.88 132.059 100.36C131.619 100.827 131.399 101.513 131.399 102.42C131.399 103.313 131.613 104 132.039 104.48C132.479 104.96 133.026 105.2 133.679 105.2ZM148.134 96.72C149.44 96.72 150.48 97.1467 151.254 98C152.04 98.84 152.434 100 152.434 101.48V108H149.034V101.94C149.034 101.193 148.84 100.613 148.454 100.2C148.067 99.7867 147.547 99.58 146.894 99.58C146.24 99.58 145.72 99.7867 145.334 100.2C144.947 100.613 144.754 101.193 144.754 101.94V108H141.334V96.84H144.754V98.32C145.1 97.8267 145.567 97.44 146.154 97.16C146.74 96.8667 147.4 96.72 148.134 96.72Z" fill="#2243B4"/>
<path d="M49.4848 125.636L47.0608 134H45.8368L43.8928 127.268L41.8768 134L40.6648 134.012L38.3248 125.636H39.4888L41.3128 132.728L43.3288 125.636H44.5528L46.4728 132.704L48.3088 125.636H49.4848ZM51.2439 126.356C51.0359 126.356 50.8599 126.284 50.7159 126.14C50.5719 125.996 50.4999 125.82 50.4999 125.612C50.4999 125.404 50.5719 125.228 50.7159 125.084C50.8599 124.94 51.0359 124.868 51.2439 124.868C51.4439 124.868 51.6119 124.94 51.7479 125.084C51.8919 125.228 51.9639 125.404 51.9639 125.612C51.9639 125.82 51.8919 125.996 51.7479 126.14C51.6119 126.284 51.4439 126.356 51.2439 126.356ZM51.7719 127.424V134H50.6799V127.424H51.7719ZM56.837 127.304C57.637 127.304 58.285 127.548 58.781 128.036C59.277 128.516 59.525 129.212 59.525 130.124V134H58.445V130.28C58.445 129.624 58.281 129.124 57.953 128.78C57.625 128.428 57.177 128.252 56.609 128.252C56.033 128.252 55.573 128.432 55.229 128.792C54.893 129.152 54.725 129.676 54.725 130.364V134H53.633V127.424H54.725V128.36C54.941 128.024 55.233 127.764 55.601 127.58C55.977 127.396 56.389 127.304 56.837 127.304ZM64.1 130.688C64.1 130.016 64.236 129.428 64.508 128.924C64.78 128.412 65.152 128.016 65.624 127.736C66.104 127.456 66.636 127.316 67.22 127.316C67.796 127.316 68.296 127.44 68.72 127.688C69.144 127.936 69.46 128.248 69.668 128.624V127.424H70.772V134H69.668V132.776C69.452 133.16 69.128 133.48 68.696 133.736C68.272 133.984 67.776 134.108 67.208 134.108C66.624 134.108 66.096 133.964 65.624 133.676C65.152 133.388 64.78 132.984 64.508 132.464C64.236 131.944 64.1 131.352 64.1 130.688ZM69.668 130.7C69.668 130.204 69.568 129.772 69.368 129.404C69.168 129.036 68.896 128.756 68.552 128.564C68.216 128.364 67.844 128.264 67.436 128.264C67.028 128.264 66.656 128.36 66.32 128.552C65.984 128.744 65.716 129.024 65.516 129.392C65.316 129.76 65.216 130.192 65.216 130.688C65.216 131.192 65.316 131.632 65.516 132.008C65.716 132.376 65.984 132.66 66.32 132.86C66.656 133.052 67.028 133.148 67.436 133.148C67.844 133.148 68.216 133.052 68.552 132.86C68.896 132.66 69.168 132.376 69.368 132.008C69.568 131.632 69.668 131.196 69.668 130.7ZM73.7094 125.12V134H72.6174V125.12H73.7094ZM76.6625 125.12V134H75.5705V125.12H76.6625ZM83.0548 128.324V132.2C83.0548 132.52 83.1228 132.748 83.2588 132.884C83.3948 133.012 83.6308 133.076 83.9668 133.076H84.7708V134H83.7868C83.1788 134 82.7228 133.86 82.4188 133.58C82.1148 133.3 81.9628 132.84 81.9628 132.2V128.324H81.1108V127.424H81.9628V125.768H83.0548V127.424H84.7708V128.324H83.0548ZM89.3579 127.304C89.8539 127.304 90.3019 127.412 90.7019 127.628C91.1019 127.836 91.4139 128.152 91.6379 128.576C91.8699 129 91.9859 129.516 91.9859 130.124V134H90.9059V130.28C90.9059 129.624 90.7419 129.124 90.4139 128.78C90.0859 128.428 89.6379 128.252 89.0699 128.252C88.4939 128.252 88.0339 128.432 87.6899 128.792C87.3539 129.152 87.1859 129.676 87.1859 130.364V134H86.0939V125.12H87.1859V128.36C87.4019 128.024 87.6979 127.764 88.0739 127.58C88.4579 127.396 88.8859 127.304 89.3579 127.304ZM99.7697 130.46C99.7697 130.668 99.7577 130.888 99.7337 131.12H94.4777C94.5177 131.768 94.7377 132.276 95.1377 132.644C95.5457 133.004 96.0377 133.184 96.6137 133.184C97.0857 133.184 97.4777 133.076 97.7897 132.86C98.1097 132.636 98.3337 132.34 98.4617 131.972H99.6377C99.4617 132.604 99.1097 133.12 98.5817 133.52C98.0537 133.912 97.3977 134.108 96.6137 134.108C95.9897 134.108 95.4297 133.968 94.9337 133.688C94.4457 133.408 94.0617 133.012 93.7817 132.5C93.5017 131.98 93.3617 131.38 93.3617 130.7C93.3617 130.02 93.4977 129.424 93.7697 128.912C94.0417 128.4 94.4217 128.008 94.9097 127.736C95.4057 127.456 95.9737 127.316 96.6137 127.316C97.2377 127.316 97.7897 127.452 98.2697 127.724C98.7497 127.996 99.1177 128.372 99.3737 128.852C99.6377 129.324 99.7697 129.86 99.7697 130.46ZM98.6417 130.232C98.6417 129.816 98.5497 129.46 98.3657 129.164C98.1817 128.86 97.9297 128.632 97.6097 128.48C97.2977 128.32 96.9497 128.24 96.5657 128.24C96.0137 128.24 95.5417 128.416 95.1497 128.768C94.7657 129.12 94.5457 129.608 94.4897 130.232H98.6417ZM104.002 130.688C104.002 130.016 104.138 129.428 104.41 128.924C104.682 128.412 105.054 128.016 105.526 127.736C106.006 127.456 106.538 127.316 107.122 127.316C107.698 127.316 108.198 127.44 108.622 127.688C109.046 127.936 109.362 128.248 109.57 128.624V127.424H110.674V134H109.57V132.776C109.354 133.16 109.03 133.48 108.598 133.736C108.174 133.984 107.678 134.108 107.11 134.108C106.526 134.108 105.998 133.964 105.526 133.676C105.054 133.388 104.682 132.984 104.41 132.464C104.138 131.944 104.002 131.352 104.002 130.688ZM109.57 130.7C109.57 130.204 109.47 129.772 109.27 129.404C109.07 129.036 108.798 128.756 108.454 128.564C108.118 128.364 107.746 128.264 107.338 128.264C106.93 128.264 106.558 128.36 106.222 128.552C105.886 128.744 105.618 129.024 105.418 129.392C105.218 129.76 105.118 130.192 105.118 130.688C105.118 131.192 105.218 131.632 105.418 132.008C105.618 132.376 105.886 132.66 106.222 132.86C106.558 133.052 106.93 133.148 107.338 133.148C107.746 133.148 108.118 133.052 108.454 132.86C108.798 132.66 109.07 132.376 109.27 132.008C109.47 131.632 109.57 131.196 109.57 130.7ZM114.968 132.992L117.008 127.424H118.172L115.592 134H114.32L111.74 127.424H112.916L114.968 132.992ZM118.838 130.688C118.838 130.016 118.974 129.428 119.246 128.924C119.518 128.412 119.89 128.016 120.362 127.736C120.842 127.456 121.374 127.316 121.958 127.316C122.534 127.316 123.034 127.44 123.458 127.688C123.882 127.936 124.198 128.248 124.406 128.624V127.424H125.51V134H124.406V132.776C124.19 133.16 123.866 133.48 123.434 133.736C123.01 133.984 122.514 134.108 121.946 134.108C121.362 134.108 120.834 133.964 120.362 133.676C119.89 133.388 119.518 132.984 119.246 132.464C118.974 131.944 118.838 131.352 118.838 130.688ZM124.406 130.7C124.406 130.204 124.306 129.772 124.106 129.404C123.906 129.036 123.634 128.756 123.29 128.564C122.954 128.364 122.582 128.264 122.174 128.264C121.766 128.264 121.394 128.36 121.058 128.552C120.722 128.744 120.454 129.024 120.254 129.392C120.054 129.76 119.954 130.192 119.954 130.688C119.954 131.192 120.054 131.632 120.254 132.008C120.454 132.376 120.722 132.66 121.058 132.86C121.394 133.052 121.766 133.148 122.174 133.148C122.582 133.148 122.954 133.052 123.29 132.86C123.634 132.66 123.906 132.376 124.106 132.008C124.306 131.632 124.406 131.196 124.406 130.7ZM127.92 126.356C127.712 126.356 127.536 126.284 127.392 126.14C127.248 125.996 127.176 125.82 127.176 125.612C127.176 125.404 127.248 125.228 127.392 125.084C127.536 124.94 127.712 124.868 127.92 124.868C128.12 124.868 128.288 124.94 128.424 125.084C128.568 125.228 128.64 125.404 128.64 125.612C128.64 125.82 128.568 125.996 128.424 126.14C128.288 126.284 128.12 126.356 127.92 126.356ZM128.448 127.424V134H127.356V127.424H128.448ZM131.401 125.12V134H130.309V125.12H131.401ZM132.854 130.688C132.854 130.016 132.99 129.428 133.262 128.924C133.534 128.412 133.906 128.016 134.378 127.736C134.858 127.456 135.39 127.316 135.974 127.316C136.55 127.316 137.05 127.44 137.474 127.688C137.898 127.936 138.214 128.248 138.422 128.624V127.424H139.526V134H138.422V132.776C138.206 133.16 137.882 133.48 137.45 133.736C137.026 133.984 136.53 134.108 135.962 134.108C135.378 134.108 134.85 133.964 134.378 133.676C133.906 133.388 133.534 132.984 133.262 132.464C132.99 131.944 132.854 131.352 132.854 130.688ZM138.422 130.7C138.422 130.204 138.322 129.772 138.122 129.404C137.922 129.036 137.65 128.756 137.306 128.564C136.97 128.364 136.598 128.264 136.19 128.264C135.782 128.264 135.41 128.36 135.074 128.552C134.738 128.744 134.47 129.024 134.27 129.392C134.07 129.76 133.97 130.192 133.97 130.688C133.97 131.192 134.07 131.632 134.27 132.008C134.47 132.376 134.738 132.66 135.074 132.86C135.41 133.052 135.782 133.148 136.19 133.148C136.598 133.148 136.97 133.052 137.306 132.86C137.65 132.66 137.922 132.376 138.122 132.008C138.322 131.632 138.422 131.196 138.422 130.7ZM142.463 128.648C142.687 128.256 143.015 127.936 143.447 127.688C143.879 127.44 144.371 127.316 144.923 127.316C145.515 127.316 146.047 127.456 146.519 127.736C146.991 128.016 147.363 128.412 147.635 128.924C147.907 129.428 148.043 130.016 148.043 130.688C148.043 131.352 147.907 131.944 147.635 132.464C147.363 132.984 146.987 133.388 146.507 133.676C146.035 133.964 145.507 134.108 144.923 134.108C144.355 134.108 143.855 133.984 143.423 133.736C142.999 133.488 142.679 133.172 142.463 132.788V134H141.371V125.12H142.463V128.648ZM146.927 130.688C146.927 130.192 146.827 129.76 146.627 129.392C146.427 129.024 146.155 128.744 145.811 128.552C145.475 128.36 145.103 128.264 144.695 128.264C144.295 128.264 143.923 128.364 143.579 128.564C143.243 128.756 142.971 129.04 142.763 129.416C142.563 129.784 142.463 130.212 142.463 130.7C142.463 131.196 142.563 131.632 142.763 132.008C142.971 132.376 143.243 132.66 143.579 132.86C143.923 133.052 144.295 133.148 144.695 133.148C145.103 133.148 145.475 133.052 145.811 132.86C146.155 132.66 146.427 132.376 146.627 132.008C146.827 131.632 146.927 131.192 146.927 130.688ZM150.573 125.12V134H149.481V125.12H150.573ZM158.434 130.46C158.434 130.668 158.422 130.888 158.398 131.12H153.142C153.182 131.768 153.402 132.276 153.802 132.644C154.21 133.004 154.702 133.184 155.278 133.184C155.75 133.184 156.142 133.076 156.454 132.86C156.774 132.636 156.998 132.34 157.126 131.972H158.302C158.126 132.604 157.774 133.12 157.246 133.52C156.718 133.912 156.062 134.108 155.278 134.108C154.654 134.108 154.094 133.968 153.598 133.688C153.11 133.408 152.726 133.012 152.446 132.5C152.166 131.98 152.026 131.38 152.026 130.7C152.026 130.02 152.162 129.424 152.434 128.912C152.706 128.4 153.086 128.008 153.574 127.736C154.07 127.456 154.638 127.316 155.278 127.316C155.902 127.316 156.454 127.452 156.934 127.724C157.414 127.996 157.782 128.372 158.038 128.852C158.302 129.324 158.434 129.86 158.434 130.46ZM157.306 130.232C157.306 129.816 157.214 129.46 157.03 129.164C156.846 128.86 156.594 128.632 156.274 128.48C155.962 128.32 155.614 128.24 155.23 128.24C154.678 128.24 154.206 128.416 153.814 128.768C153.43 129.12 153.21 129.608 153.154 130.232H157.306ZM41.014 148.688C41.014 148.016 41.15 147.428 41.422 146.924C41.694 146.412 42.066 146.016 42.538 145.736C43.018 145.456 43.55 145.316 44.134 145.316C44.71 145.316 45.21 145.44 45.634 145.688C46.058 145.936 46.374 146.248 46.582 146.624V145.424H47.686V152H46.582V150.776C46.366 151.16 46.042 151.48 45.61 151.736C45.186 151.984 44.69 152.108 44.122 152.108C43.538 152.108 43.01 151.964 42.538 151.676C42.066 151.388 41.694 150.984 41.422 150.464C41.15 149.944 41.014 149.352 41.014 148.688ZM46.582 148.7C46.582 148.204 46.482 147.772 46.282 147.404C46.082 147.036 45.81 146.756 45.466 146.564C45.13 146.364 44.758 146.264 44.35 146.264C43.942 146.264 43.57 146.36 43.234 146.552C42.898 146.744 42.63 147.024 42.43 147.392C42.23 147.76 42.13 148.192 42.13 148.688C42.13 149.192 42.23 149.632 42.43 150.008C42.63 150.376 42.898 150.66 43.234 150.86C43.57 151.052 43.942 151.148 44.35 151.148C44.758 151.148 45.13 151.052 45.466 150.86C45.81 150.66 46.082 150.376 46.282 150.008C46.482 149.632 46.582 149.196 46.582 148.7ZM49.1234 148.7C49.1234 148.02 49.2594 147.428 49.5314 146.924C49.8034 146.412 50.1794 146.016 50.6594 145.736C51.1474 145.456 51.7034 145.316 52.3274 145.316C53.1354 145.316 53.7994 145.512 54.3194 145.904C54.8474 146.296 55.1954 146.84 55.3634 147.536H54.1874C54.0754 147.136 53.8554 146.82 53.5274 146.588C53.2074 146.356 52.8074 146.24 52.3274 146.24C51.7034 146.24 51.1994 146.456 50.8154 146.888C50.4314 147.312 50.2394 147.916 50.2394 148.7C50.2394 149.492 50.4314 150.104 50.8154 150.536C51.1994 150.968 51.7034 151.184 52.3274 151.184C52.8074 151.184 53.2074 151.072 53.5274 150.848C53.8474 150.624 54.0674 150.304 54.1874 149.888H55.3634C55.1874 150.56 54.8354 151.1 54.3074 151.508C53.7794 151.908 53.1194 152.108 52.3274 152.108C51.7034 152.108 51.1474 151.968 50.6594 151.688C50.1794 151.408 49.8034 151.012 49.5314 150.5C49.2594 149.988 49.1234 149.388 49.1234 148.7ZM60.0845 145.304C60.5805 145.304 61.0285 145.412 61.4285 145.628C61.8285 145.836 62.1405 146.152 62.3645 146.576C62.5965 147 62.7125 147.516 62.7125 148.124V152H61.6325V148.28C61.6325 147.624 61.4685 147.124 61.1405 146.78C60.8125 146.428 60.3645 146.252 59.7965 146.252C59.2205 146.252 58.7605 146.432 58.4165 146.792C58.0805 147.152 57.9125 147.676 57.9125 148.364V152H56.8205V143.12H57.9125V146.36C58.1285 146.024 58.4245 145.764 58.8005 145.58C59.1845 145.396 59.6125 145.304 60.0845 145.304ZM65.0603 144.356C64.8523 144.356 64.6763 144.284 64.5323 144.14C64.3883 143.996 64.3163 143.82 64.3163 143.612C64.3163 143.404 64.3883 143.228 64.5323 143.084C64.6763 142.94 64.8523 142.868 65.0603 142.868C65.2603 142.868 65.4283 142.94 65.5643 143.084C65.7083 143.228 65.7803 143.404 65.7803 143.612C65.7803 143.82 65.7083 143.996 65.5643 144.14C65.4283 144.284 65.2603 144.356 65.0603 144.356ZM65.5883 145.424V152H64.4963V145.424H65.5883ZM73.4494 148.46C73.4494 148.668 73.4374 148.888 73.4134 149.12H68.1574C68.1974 149.768 68.4174 150.276 68.8174 150.644C69.2254 151.004 69.7174 151.184 70.2934 151.184C70.7654 151.184 71.1574 151.076 71.4694 150.86C71.7894 150.636 72.0134 150.34 72.1414 149.972H73.3174C73.1414 150.604 72.7894 151.12 72.2614 151.52C71.7334 151.912 71.0774 152.108 70.2934 152.108C69.6694 152.108 69.1094 151.968 68.6134 151.688C68.1254 151.408 67.7414 151.012 67.4614 150.5C67.1814 149.98 67.0414 149.38 67.0414 148.7C67.0414 148.02 67.1774 147.424 67.4494 146.912C67.7214 146.4 68.1014 146.008 68.5894 145.736C69.0854 145.456 69.6534 145.316 70.2934 145.316C70.9174 145.316 71.4694 145.452 71.9494 145.724C72.4294 145.996 72.7974 146.372 73.0534 146.852C73.3174 147.324 73.4494 147.86 73.4494 148.46ZM72.3214 148.232C72.3214 147.816 72.2294 147.46 72.0454 147.164C71.8614 146.86 71.6094 146.632 71.2894 146.48C70.9774 146.32 70.6294 146.24 70.2454 146.24C69.6934 146.24 69.2214 146.416 68.8294 146.768C68.4454 147.12 68.2254 147.608 68.1694 148.232H72.3214ZM77.3388 150.992L79.3788 145.424H80.5428L77.9628 152H76.6908L74.1108 145.424H75.2868L77.3388 150.992ZM87.6174 148.46C87.6174 148.668 87.6054 148.888 87.5814 149.12H82.3254C82.3654 149.768 82.5854 150.276 82.9854 150.644C83.3934 151.004 83.8854 151.184 84.4614 151.184C84.9334 151.184 85.3254 151.076 85.6374 150.86C85.9574 150.636 86.1814 150.34 86.3094 149.972H87.4854C87.3094 150.604 86.9574 151.12 86.4294 151.52C85.9014 151.912 85.2454 152.108 84.4614 152.108C83.8374 152.108 83.2774 151.968 82.7814 151.688C82.2934 151.408 81.9094 151.012 81.6294 150.5C81.3494 149.98 81.2094 149.38 81.2094 148.7C81.2094 148.02 81.3454 147.424 81.6174 146.912C81.8894 146.4 82.2694 146.008 82.7574 145.736C83.2534 145.456 83.8214 145.316 84.4614 145.316C85.0854 145.316 85.6374 145.452 86.1174 145.724C86.5974 145.996 86.9654 146.372 87.2214 146.852C87.4854 147.324 87.6174 147.86 87.6174 148.46ZM86.4894 148.232C86.4894 147.816 86.3974 147.46 86.2134 147.164C86.0294 146.86 85.7774 146.632 85.4574 146.48C85.1454 146.32 84.7974 146.24 84.4134 146.24C83.8614 146.24 83.3894 146.416 82.9974 146.768C82.6134 147.12 82.3934 147.608 82.3374 148.232H86.4894ZM96.9668 145.304C97.4788 145.304 97.9348 145.412 98.3348 145.628C98.7348 145.836 99.0508 146.152 99.2828 146.576C99.5148 147 99.6308 147.516 99.6308 148.124V152H98.5508V148.28C98.5508 147.624 98.3868 147.124 98.0588 146.78C97.7388 146.428 97.3028 146.252 96.7508 146.252C96.1828 146.252 95.7308 146.436 95.3948 146.804C95.0588 147.164 94.8908 147.688 94.8908 148.376V152H93.8108V148.28C93.8108 147.624 93.6468 147.124 93.3188 146.78C92.9988 146.428 92.5628 146.252 92.0108 146.252C91.4428 146.252 90.9908 146.436 90.6548 146.804C90.3188 147.164 90.1508 147.688 90.1508 148.376V152H89.0588V145.424H90.1508V146.372C90.3668 146.028 90.6548 145.764 91.0148 145.58C91.3828 145.396 91.7868 145.304 92.2268 145.304C92.7788 145.304 93.2668 145.428 93.6908 145.676C94.1148 145.924 94.4308 146.288 94.6388 146.768C94.8228 146.304 95.1268 145.944 95.5508 145.688C95.9748 145.432 96.4468 145.304 96.9668 145.304ZM107.422 148.46C107.422 148.668 107.41 148.888 107.386 149.12H102.13C102.17 149.768 102.39 150.276 102.79 150.644C103.198 151.004 103.69 151.184 104.266 151.184C104.738 151.184 105.13 151.076 105.442 150.86C105.762 150.636 105.986 150.34 106.114 149.972H107.29C107.114 150.604 106.762 151.12 106.234 151.52C105.706 151.912 105.05 152.108 104.266 152.108C103.642 152.108 103.082 151.968 102.586 151.688C102.098 151.408 101.714 151.012 101.434 150.5C101.154 149.98 101.014 149.38 101.014 148.7C101.014 148.02 101.15 147.424 101.422 146.912C101.694 146.4 102.074 146.008 102.562 145.736C103.058 145.456 103.626 145.316 104.266 145.316C104.89 145.316 105.442 145.452 105.922 145.724C106.402 145.996 106.77 146.372 107.026 146.852C107.29 147.324 107.422 147.86 107.422 148.46ZM106.294 148.232C106.294 147.816 106.202 147.46 106.018 147.164C105.834 146.86 105.582 146.632 105.262 146.48C104.95 146.32 104.602 146.24 104.218 146.24C103.666 146.24 103.194 146.416 102.802 146.768C102.418 147.12 102.198 147.608 102.142 148.232H106.294ZM112.067 145.304C112.867 145.304 113.515 145.548 114.011 146.036C114.507 146.516 114.755 147.212 114.755 148.124V152H113.675V148.28C113.675 147.624 113.511 147.124 113.183 146.78C112.855 146.428 112.407 146.252 111.839 146.252C111.263 146.252 110.803 146.432 110.459 146.792C110.123 147.152 109.955 147.676 109.955 148.364V152H108.863V145.424H109.955V146.36C110.171 146.024 110.463 145.764 110.831 145.58C111.207 145.396 111.619 145.304 112.067 145.304ZM117.871 146.324V150.2C117.871 150.52 117.939 150.748 118.075 150.884C118.211 151.012 118.447 151.076 118.783 151.076H119.587V152H118.603C117.995 152 117.539 151.86 117.235 151.58C116.931 151.3 116.779 150.84 116.779 150.2V146.324H115.927V145.424H116.779V143.768H117.871V145.424H119.587V146.324H117.871ZM124.674 144.356C124.466 144.356 124.29 144.284 124.146 144.14C124.002 143.996 123.93 143.82 123.93 143.612C123.93 143.404 124.002 143.228 124.146 143.084C124.29 142.94 124.466 142.868 124.674 142.868C124.874 142.868 125.042 142.94 125.178 143.084C125.322 143.228 125.394 143.404 125.394 143.612C125.394 143.82 125.322 143.996 125.178 144.14C125.042 144.284 124.874 144.356 124.674 144.356ZM125.202 145.424V152H124.11V145.424H125.202ZM130.267 145.304C131.067 145.304 131.715 145.548 132.211 146.036C132.707 146.516 132.955 147.212 132.955 148.124V152H131.875V148.28C131.875 147.624 131.711 147.124 131.383 146.78C131.055 146.428 130.607 146.252 130.039 146.252C129.463 146.252 129.003 146.432 128.659 146.792C128.323 147.152 128.155 147.676 128.155 148.364V152H127.063V145.424H128.155V146.36C128.371 146.024 128.663 145.764 129.031 145.58C129.407 145.396 129.819 145.304 130.267 145.304ZM139.27 146.324V150.2C139.27 150.52 139.338 150.748 139.474 150.884C139.61 151.012 139.846 151.076 140.182 151.076H140.986V152H140.002C139.394 152 138.938 151.86 138.634 151.58C138.33 151.3 138.178 150.84 138.178 150.2V146.324H137.326V145.424H138.178V143.768H139.27V145.424H140.986V146.324H139.27ZM145.573 145.304C146.069 145.304 146.517 145.412 146.917 145.628C147.317 145.836 147.629 146.152 147.853 146.576C148.085 147 148.201 147.516 148.201 148.124V152H147.121V148.28C147.121 147.624 146.957 147.124 146.629 146.78C146.301 146.428 145.853 146.252 145.285 146.252C144.709 146.252 144.249 146.432 143.905 146.792C143.569 147.152 143.401 147.676 143.401 148.364V152H142.309V143.12H143.401V146.36C143.617 146.024 143.913 145.764 144.289 145.58C144.673 145.396 145.101 145.304 145.573 145.304ZM155.985 148.46C155.985 148.668 155.973 148.888 155.949 149.12H150.693C150.733 149.768 150.953 150.276 151.353 150.644C151.761 151.004 152.253 151.184 152.829 151.184C153.301 151.184 153.693 151.076 154.005 150.86C154.325 150.636 154.549 150.34 154.677 149.972H155.853C155.677 150.604 155.325 151.12 154.797 151.52C154.269 151.912 153.613 152.108 152.829 152.108C152.205 152.108 151.645 151.968 151.149 151.688C150.661 151.408 150.277 151.012 149.997 150.5C149.717 149.98 149.577 149.38 149.577 148.7C149.577 148.02 149.713 147.424 149.985 146.912C150.257 146.4 150.637 146.008 151.125 145.736C151.621 145.456 152.189 145.316 152.829 145.316C153.453 145.316 154.005 145.452 154.485 145.724C154.965 145.996 155.333 146.372 155.589 146.852C155.853 147.324 155.985 147.86 155.985 148.46ZM154.857 148.232C154.857 147.816 154.765 147.46 154.581 147.164C154.397 146.86 154.145 146.632 153.825 146.48C153.513 146.32 153.165 146.24 152.781 146.24C152.229 146.24 151.757 146.416 151.365 146.768C150.981 147.12 150.761 147.608 150.705 148.232H154.857ZM84.1243 163.316C84.6923 163.316 85.1883 163.44 85.6123 163.688C86.0443 163.936 86.3643 164.248 86.5723 164.624V163.424H87.6763V170.144C87.6763 170.744 87.5483 171.276 87.2923 171.74C87.0363 172.212 86.6683 172.58 86.1883 172.844C85.7163 173.108 85.1643 173.24 84.5323 173.24C83.6683 173.24 82.9483 173.036 82.3723 172.628C81.7963 172.22 81.4563 171.664 81.3523 170.96H82.4323C82.5523 171.36 82.8003 171.68 83.1763 171.92C83.5523 172.168 84.0043 172.292 84.5323 172.292C85.1323 172.292 85.6203 172.104 85.9963 171.728C86.3803 171.352 86.5723 170.824 86.5723 170.144V168.764C86.3563 169.148 86.0363 169.468 85.6123 169.724C85.1883 169.98 84.6923 170.108 84.1243 170.108C83.5403 170.108 83.0083 169.964 82.5283 169.676C82.0563 169.388 81.6843 168.984 81.4123 168.464C81.1403 167.944 81.0043 167.352 81.0043 166.688C81.0043 166.016 81.1403 165.428 81.4123 164.924C81.6843 164.412 82.0563 164.016 82.5283 163.736C83.0083 163.456 83.5403 163.316 84.1243 163.316ZM86.5723 166.7C86.5723 166.204 86.4723 165.772 86.2723 165.404C86.0723 165.036 85.8003 164.756 85.4563 164.564C85.1203 164.364 84.7483 164.264 84.3403 164.264C83.9323 164.264 83.5603 164.36 83.2243 164.552C82.8883 164.744 82.6203 165.024 82.4203 165.392C82.2203 165.76 82.1203 166.192 82.1203 166.688C82.1203 167.192 82.2203 167.632 82.4203 168.008C82.6203 168.376 82.8883 168.66 83.2243 168.86C83.5603 169.052 83.9323 169.148 84.3403 169.148C84.7483 169.148 85.1203 169.052 85.4563 168.86C85.8003 168.66 86.0723 168.376 86.2723 168.008C86.4723 167.632 86.5723 167.196 86.5723 166.7ZM89.1137 166.688C89.1137 166.016 89.2497 165.428 89.5217 164.924C89.7937 164.412 90.1657 164.016 90.6377 163.736C91.1177 163.456 91.6497 163.316 92.2337 163.316C92.8097 163.316 93.3097 163.44 93.7337 163.688C94.1577 163.936 94.4737 164.248 94.6817 164.624V163.424H95.7857V170H94.6817V168.776C94.4657 169.16 94.1417 169.48 93.7097 169.736C93.2857 169.984 92.7897 170.108 92.2217 170.108C91.6377 170.108 91.1097 169.964 90.6377 169.676C90.1657 169.388 89.7937 168.984 89.5217 168.464C89.2497 167.944 89.1137 167.352 89.1137 166.688ZM94.6817 166.7C94.6817 166.204 94.5817 165.772 94.3817 165.404C94.1817 165.036 93.9097 164.756 93.5657 164.564C93.2297 164.364 92.8577 164.264 92.4497 164.264C92.0417 164.264 91.6697 164.36 91.3337 164.552C90.9977 164.744 90.7297 165.024 90.5297 165.392C90.3297 165.76 90.2297 166.192 90.2297 166.688C90.2297 167.192 90.3297 167.632 90.5297 168.008C90.7297 168.376 90.9977 168.66 91.3337 168.86C91.6697 169.052 92.0417 169.148 92.4497 169.148C92.8577 169.148 93.2297 169.052 93.5657 168.86C93.9097 168.66 94.1817 168.376 94.3817 168.008C94.5817 167.632 94.6817 167.196 94.6817 166.7ZM105.539 163.304C106.051 163.304 106.507 163.412 106.907 163.628C107.307 163.836 107.623 164.152 107.855 164.576C108.087 165 108.203 165.516 108.203 166.124V170H107.123V166.28C107.123 165.624 106.959 165.124 106.631 164.78C106.311 164.428 105.875 164.252 105.323 164.252C104.755 164.252 104.303 164.436 103.967 164.804C103.631 165.164 103.463 165.688 103.463 166.376V170H102.383V166.28C102.383 165.624 102.219 165.124 101.891 164.78C101.571 164.428 101.135 164.252 100.583 164.252C100.015 164.252 99.563 164.436 99.227 164.804C98.891 165.164 98.723 165.688 98.723 166.376V170H97.631V163.424H98.723V164.372C98.939 164.028 99.227 163.764 99.587 163.58C99.955 163.396 100.359 163.304 100.799 163.304C101.351 163.304 101.839 163.428 102.263 163.676C102.687 163.924 103.003 164.288 103.211 164.768C103.395 164.304 103.699 163.944 104.123 163.688C104.547 163.432 105.019 163.304 105.539 163.304ZM115.994 166.46C115.994 166.668 115.982 166.888 115.958 167.12H110.702C110.742 167.768 110.962 168.276 111.362 168.644C111.77 169.004 112.262 169.184 112.838 169.184C113.31 169.184 113.702 169.076 114.014 168.86C114.334 168.636 114.558 168.34 114.686 167.972H115.862C115.686 168.604 115.334 169.12 114.806 169.52C114.278 169.912 113.622 170.108 112.838 170.108C112.214 170.108 111.654 169.968 111.158 169.688C110.67 169.408 110.286 169.012 110.006 168.5C109.726 167.98 109.586 167.38 109.586 166.7C109.586 166.02 109.722 165.424 109.994 164.912C110.266 164.4 110.646 164.008 111.134 163.736C111.63 163.456 112.198 163.316 112.838 163.316C113.462 163.316 114.014 163.452 114.494 163.724C114.974 163.996 115.342 164.372 115.598 164.852C115.862 165.324 115.994 165.86 115.994 166.46ZM114.866 166.232C114.866 165.816 114.774 165.46 114.59 165.164C114.406 164.86 114.154 164.632 113.834 164.48C113.522 164.32 113.174 164.24 112.79 164.24C112.238 164.24 111.766 164.416 111.374 164.768C110.99 165.12 110.77 165.608 110.714 166.232H114.866Z" fill="#6171A5"/>
</svg>
