<svg width="197" height="231" viewBox="0 0 197 231" fill="none" xmlns="http://www.w3.org/2000/svg">
<path d="M15.8618 53.0312L81.535 11.6094C92.7552 4.53253 107.067 4.62764 118.192 11.853L181.519 52.9812C191.174 59.2518 197 69.9825 197 81.4953V152.29C197 164.099 190.873 175.062 180.815 181.249L117.498 220.2C106.708 226.838 93.1217 226.926 82.2459 220.428L16.5624 181.187C6.29009 175.05 0 163.965 0 151.999V81.7889C0 70.1156 5.98842 59.2585 15.8618 53.0312Z" fill="#E4E4E4"/>
<path d="M100.072 60.768V62.96H97.096V72H94.36V62.96H91.384V60.768H100.072ZM106.933 62.976C107.957 62.976 108.778 63.3173 109.397 64C110.016 64.672 110.325 65.6 110.325 66.784V72H107.605V67.152C107.605 66.5547 107.45 66.0907 107.141 65.76C106.832 65.4293 106.416 65.264 105.893 65.264C105.37 65.264 104.954 65.4293 104.645 65.76C104.336 66.0907 104.181 66.5547 104.181 67.152V72H101.445V60.16H104.181V64.272C104.458 63.8773 104.837 63.5627 105.317 63.328C105.797 63.0933 106.336 62.976 106.933 62.976ZM120.642 67.392C120.642 67.648 120.626 67.9147 120.594 68.192H114.402C114.445 68.7467 114.621 69.1733 114.93 69.472C115.25 69.76 115.64 69.904 116.098 69.904C116.781 69.904 117.256 69.616 117.522 69.04H120.434C120.285 69.6267 120.013 70.1547 119.618 70.624C119.234 71.0933 118.749 71.4613 118.162 71.728C117.576 71.9947 116.92 72.128 116.194 72.128C115.32 72.128 114.541 71.9413 113.858 71.568C113.176 71.1947 112.642 70.6613 112.258 69.968C111.874 69.2747 111.682 68.464 111.682 67.536C111.682 66.608 111.869 65.7973 112.242 65.104C112.626 64.4107 113.16 63.8773 113.842 63.504C114.525 63.1307 115.309 62.944 116.194 62.944C117.058 62.944 117.826 63.1253 118.498 63.488C119.17 63.8507 119.693 64.368 120.066 65.04C120.45 65.712 120.642 66.496 120.642 67.392ZM117.842 66.672C117.842 66.2027 117.682 65.8293 117.362 65.552C117.042 65.2747 116.642 65.136 116.162 65.136C115.704 65.136 115.314 65.2693 114.994 65.536C114.685 65.8027 114.493 66.1813 114.418 66.672H117.842ZM94.68 84.768V91.488C94.68 92.16 94.8453 92.6773 95.176 93.04C95.5067 93.4027 95.992 93.584 96.632 93.584C97.272 93.584 97.7627 93.4027 98.104 93.04C98.4453 92.6773 98.616 92.16 98.616 91.488V84.768H101.352V91.472C101.352 92.4747 101.139 93.3227 100.712 94.016C100.285 94.7093 99.7093 95.232 98.984 95.584C98.2693 95.936 97.4693 96.112 96.584 96.112C95.6987 96.112 94.904 95.9413 94.2 95.6C93.5067 95.248 92.9573 94.7253 92.552 94.032C92.1467 93.328 91.944 92.4747 91.944 91.472V84.768H94.68ZM108.713 86.976C109.759 86.976 110.591 87.3173 111.209 88C111.839 88.672 112.153 89.6 112.153 90.784V96H109.433V91.152C109.433 90.5547 109.279 90.0907 108.969 89.76C108.66 89.4293 108.244 89.264 107.721 89.264C107.199 89.264 106.783 89.4293 106.473 89.76C106.164 90.0907 106.009 90.5547 106.009 91.152V96H103.273V87.072H106.009V88.256C106.287 87.8613 106.66 87.552 107.129 87.328C107.599 87.0933 108.127 86.976 108.713 86.976ZM116.791 88.336C117.047 87.92 117.415 87.584 117.895 87.328C118.375 87.072 118.924 86.944 119.543 86.944C120.279 86.944 120.945 87.1307 121.543 87.504C122.14 87.8773 122.609 88.4107 122.951 89.104C123.303 89.7973 123.479 90.6027 123.479 91.52C123.479 92.4373 123.303 93.248 122.951 93.952C122.609 94.6453 122.14 95.184 121.543 95.568C120.945 95.9413 120.279 96.128 119.543 96.128C118.913 96.128 118.364 96.0053 117.895 95.76C117.425 95.504 117.057 95.168 116.791 94.752V96H114.055V84.16H116.791V88.336ZM120.695 91.52C120.695 90.8373 120.503 90.304 120.119 89.92C119.745 89.5253 119.281 89.328 118.727 89.328C118.183 89.328 117.719 89.5253 117.335 89.92C116.961 90.3147 116.775 90.8533 116.775 91.536C116.775 92.2187 116.961 92.7573 117.335 93.152C117.719 93.5467 118.183 93.744 118.727 93.744C119.271 93.744 119.735 93.5467 120.119 93.152C120.503 92.7467 120.695 92.2027 120.695 91.52ZM133.33 91.392C133.33 91.648 133.314 91.9147 133.282 92.192H127.09C127.133 92.7467 127.309 93.1733 127.618 93.472C127.938 93.76 128.327 93.904 128.786 93.904C129.469 93.904 129.943 93.616 130.21 93.04H133.122C132.973 93.6267 132.701 94.1547 132.306 94.624C131.922 95.0933 131.437 95.4613 130.85 95.728C130.263 95.9947 129.607 96.128 128.882 96.128C128.007 96.128 127.229 95.9413 126.546 95.568C125.863 95.1947 125.33 94.6613 124.946 93.968C124.562 93.2747 124.37 92.464 124.37 91.536C124.37 90.608 124.557 89.7973 124.93 89.104C125.314 88.4107 125.847 87.8773 126.53 87.504C127.213 87.1307 127.997 86.944 128.882 86.944C129.746 86.944 130.514 87.1253 131.186 87.488C131.858 87.8507 132.381 88.368 132.754 89.04C133.138 89.712 133.33 90.496 133.33 91.392ZM130.53 90.672C130.53 90.2027 130.37 89.8293 130.05 89.552C129.73 89.2747 129.33 89.136 128.85 89.136C128.391 89.136 128.002 89.2693 127.682 89.536C127.373 89.8027 127.181 90.1813 127.106 90.672H130.53ZM134.229 91.52C134.229 90.6027 134.4 89.7973 134.741 89.104C135.093 88.4107 135.568 87.8773 136.165 87.504C136.763 87.1307 137.429 86.944 138.165 86.944C138.795 86.944 139.344 87.072 139.813 87.328C140.293 87.584 140.661 87.92 140.917 88.336V87.072H143.653V96H140.917V94.736C140.651 95.152 140.277 95.488 139.797 95.744C139.328 96 138.779 96.128 138.149 96.128C137.424 96.128 136.763 95.9413 136.165 95.568C135.568 95.184 135.093 94.6453 134.741 93.952C134.4 93.248 134.229 92.4373 134.229 91.52ZM140.917 91.536C140.917 90.8533 140.725 90.3147 140.341 89.92C139.968 89.5253 139.509 89.328 138.965 89.328C138.421 89.328 137.957 89.5253 137.573 89.92C137.2 90.304 137.013 90.8373 137.013 91.52C137.013 92.2027 137.2 92.7467 137.573 93.152C137.957 93.5467 138.421 93.744 138.965 93.744C139.509 93.744 139.968 93.5467 140.341 93.152C140.725 92.7573 140.917 92.2187 140.917 91.536ZM150.609 93.68V96H149.217C148.225 96 147.451 95.76 146.897 95.28C146.342 94.7893 146.065 93.9947 146.065 92.896V89.344H144.977V87.072H146.065V84.896H148.801V87.072H150.593V89.344H148.801V92.928C148.801 93.1947 148.865 93.3867 148.993 93.504C149.121 93.6213 149.334 93.68 149.633 93.68H150.609ZM151.589 91.52C151.589 90.6027 151.759 89.7973 152.101 89.104C152.453 88.4107 152.927 87.8773 153.525 87.504C154.122 87.1307 154.789 86.944 155.525 86.944C156.154 86.944 156.703 87.072 157.173 87.328C157.653 87.584 158.021 87.92 158.277 88.336V87.072H161.013V96H158.277V94.736C158.01 95.152 157.637 95.488 157.157 95.744C156.687 96 156.138 96.128 155.509 96.128C154.783 96.128 154.122 95.9413 153.525 95.568C152.927 95.184 152.453 94.6453 152.101 93.952C151.759 93.248 151.589 92.4373 151.589 91.52ZM158.277 91.536C158.277 90.8533 158.085 90.3147 157.701 89.92C157.327 89.5253 156.869 89.328 156.325 89.328C155.781 89.328 155.317 89.5253 154.933 89.92C154.559 90.304 154.373 90.8373 154.373 91.52C154.373 92.2027 154.559 92.7467 154.933 93.152C155.317 93.5467 155.781 93.744 156.325 93.744C156.869 93.744 157.327 93.5467 157.701 93.152C158.085 92.7573 158.277 92.2187 158.277 91.536ZM165.728 88.336C165.984 87.92 166.352 87.584 166.832 87.328C167.312 87.072 167.861 86.944 168.48 86.944C169.216 86.944 169.883 87.1307 170.48 87.504C171.077 87.8773 171.547 88.4107 171.888 89.104C172.24 89.7973 172.416 90.6027 172.416 91.52C172.416 92.4373 172.24 93.248 171.888 93.952C171.547 94.6453 171.077 95.184 170.48 95.568C169.883 95.9413 169.216 96.128 168.48 96.128C167.851 96.128 167.301 96.0053 166.832 95.76C166.363 95.504 165.995 95.168 165.728 94.752V96H162.992V84.16H165.728V88.336ZM169.632 91.52C169.632 90.8373 169.44 90.304 169.056 89.92C168.683 89.5253 168.219 89.328 167.664 89.328C167.12 89.328 166.656 89.5253 166.272 89.92C165.899 90.3147 165.712 90.8533 165.712 91.536C165.712 92.2187 165.899 92.7573 166.272 93.152C166.656 93.5467 167.12 93.744 167.664 93.744C168.208 93.744 168.672 93.5467 169.056 93.152C169.44 92.7467 169.632 92.2027 169.632 91.52ZM176.587 84.16V96H173.851V84.16H176.587ZM186.986 91.392C186.986 91.648 186.97 91.9147 186.938 92.192H180.746C180.789 92.7467 180.965 93.1733 181.274 93.472C181.594 93.76 181.983 93.904 182.442 93.904C183.125 93.904 183.599 93.616 183.866 93.04H186.778C186.629 93.6267 186.357 94.1547 185.962 94.624C185.578 95.0933 185.093 95.4613 184.506 95.728C183.919 95.9947 183.263 96.128 182.538 96.128C181.663 96.128 180.885 95.9413 180.202 95.568C179.519 95.1947 178.986 94.6613 178.602 93.968C178.218 93.2747 178.026 92.464 178.026 91.536C178.026 90.608 178.213 89.7973 178.586 89.104C178.97 88.4107 179.503 87.8773 180.186 87.504C180.869 87.1307 181.653 86.944 182.538 86.944C183.402 86.944 184.17 87.1253 184.842 87.488C185.514 87.8507 186.037 88.368 186.41 89.04C186.794 89.712 186.986 90.496 186.986 91.392ZM184.186 90.672C184.186 90.2027 184.026 89.8293 183.706 89.552C183.386 89.2747 182.986 89.136 182.506 89.136C182.047 89.136 181.658 89.2693 181.338 89.536C181.029 89.8027 180.837 90.1813 180.762 90.672H184.186Z" fill="#4B4B4B"/>
<path d="M100.53 106.03L98.51 113H97.49L95.87 107.39L94.19 113L93.18 113.01L91.23 106.03H92.2L93.72 111.94L95.4 106.03H96.42L98.02 111.92L99.55 106.03H100.53ZM101.996 106.63C101.823 106.63 101.676 106.57 101.556 106.45C101.436 106.33 101.376 106.183 101.376 106.01C101.376 105.837 101.436 105.69 101.556 105.57C101.676 105.45 101.823 105.39 101.996 105.39C102.163 105.39 102.303 105.45 102.416 105.57C102.536 105.69 102.596 105.837 102.596 106.01C102.596 106.183 102.536 106.33 102.416 106.45C102.303 106.57 102.163 106.63 101.996 106.63ZM102.436 107.52V113H101.526V107.52H102.436ZM106.657 107.42C107.323 107.42 107.863 107.623 108.277 108.03C108.69 108.43 108.897 109.01 108.897 109.77V113H107.997V109.9C107.997 109.353 107.86 108.937 107.587 108.65C107.313 108.357 106.94 108.21 106.467 108.21C105.987 108.21 105.603 108.36 105.317 108.66C105.037 108.96 104.897 109.397 104.897 109.97V113H103.987V107.52H104.897V108.3C105.077 108.02 105.32 107.803 105.627 107.65C105.94 107.497 106.283 107.42 106.657 107.42ZM112.709 110.24C112.709 109.68 112.823 109.19 113.049 108.77C113.276 108.343 113.586 108.013 113.979 107.78C114.379 107.547 114.823 107.43 115.309 107.43C115.789 107.43 116.206 107.533 116.559 107.74C116.913 107.947 117.176 108.207 117.349 108.52V107.52H118.269V113H117.349V111.98C117.169 112.3 116.899 112.567 116.539 112.78C116.186 112.987 115.773 113.09 115.299 113.09C114.813 113.09 114.373 112.97 113.979 112.73C113.586 112.49 113.276 112.153 113.049 111.72C112.823 111.287 112.709 110.793 112.709 110.24ZM117.349 110.25C117.349 109.837 117.266 109.477 117.099 109.17C116.933 108.863 116.706 108.63 116.419 108.47C116.139 108.303 115.829 108.22 115.489 108.22C115.149 108.22 114.839 108.3 114.559 108.46C114.279 108.62 114.056 108.853 113.889 109.16C113.723 109.467 113.639 109.827 113.639 110.24C113.639 110.66 113.723 111.027 113.889 111.34C114.056 111.647 114.279 111.883 114.559 112.05C114.839 112.21 115.149 112.29 115.489 112.29C115.829 112.29 116.139 112.21 116.419 112.05C116.706 111.883 116.933 111.647 117.099 111.34C117.266 111.027 117.349 110.663 117.349 110.25ZM129.063 107.42C129.49 107.42 129.87 107.51 130.203 107.69C130.536 107.863 130.8 108.127 130.993 108.48C131.186 108.833 131.283 109.263 131.283 109.77V113H130.383V109.9C130.383 109.353 130.246 108.937 129.973 108.65C129.706 108.357 129.343 108.21 128.883 108.21C128.41 108.21 128.033 108.363 127.753 108.67C127.473 108.97 127.333 109.407 127.333 109.98V113H126.433V109.9C126.433 109.353 126.296 108.937 126.023 108.65C125.756 108.357 125.393 108.21 124.933 108.21C124.46 108.21 124.083 108.363 123.803 108.67C123.523 108.97 123.383 109.407 123.383 109.98V113H122.473V107.52H123.383V108.31C123.563 108.023 123.803 107.803 124.103 107.65C124.41 107.497 124.746 107.42 125.113 107.42C125.573 107.42 125.98 107.523 126.333 107.73C126.686 107.937 126.95 108.24 127.123 108.64C127.276 108.253 127.53 107.953 127.883 107.74C128.236 107.527 128.63 107.42 129.063 107.42ZM132.436 110.24C132.436 109.68 132.549 109.19 132.776 108.77C133.003 108.343 133.313 108.013 133.706 107.78C134.106 107.547 134.549 107.43 135.036 107.43C135.516 107.43 135.933 107.533 136.286 107.74C136.639 107.947 136.903 108.207 137.076 108.52V107.52H137.996V113H137.076V111.98C136.896 112.3 136.626 112.567 136.266 112.78C135.913 112.987 135.499 113.09 135.026 113.09C134.539 113.09 134.099 112.97 133.706 112.73C133.313 112.49 133.003 112.153 132.776 111.72C132.549 111.287 132.436 110.793 132.436 110.24ZM137.076 110.25C137.076 109.837 136.993 109.477 136.826 109.17C136.659 108.863 136.433 108.63 136.146 108.47C135.866 108.303 135.556 108.22 135.216 108.22C134.876 108.22 134.566 108.3 134.286 108.46C134.006 108.62 133.783 108.853 133.616 109.16C133.449 109.467 133.366 109.827 133.366 110.24C133.366 110.66 133.449 111.027 133.616 111.34C133.783 111.647 134.006 111.883 134.286 112.05C134.566 112.21 134.876 112.29 135.216 112.29C135.556 112.29 135.866 112.21 136.146 112.05C136.433 111.883 136.659 111.647 136.826 111.34C136.993 111.027 137.076 110.663 137.076 110.25ZM140.644 108.27V111.5C140.644 111.767 140.7 111.957 140.814 112.07C140.927 112.177 141.124 112.23 141.404 112.23H142.074V113H141.254C140.747 113 140.367 112.883 140.114 112.65C139.86 112.417 139.734 112.033 139.734 111.5V108.27H139.024V107.52H139.734V106.14H140.644V107.52H142.074V108.27H140.644ZM142.836 110.25C142.836 109.683 142.95 109.19 143.176 108.77C143.403 108.343 143.716 108.013 144.116 107.78C144.523 107.547 144.986 107.43 145.506 107.43C146.18 107.43 146.733 107.593 147.166 107.92C147.606 108.247 147.896 108.7 148.036 109.28H147.056C146.963 108.947 146.78 108.683 146.506 108.49C146.24 108.297 145.906 108.2 145.506 108.2C144.986 108.2 144.566 108.38 144.246 108.74C143.926 109.093 143.766 109.597 143.766 110.25C143.766 110.91 143.926 111.42 144.246 111.78C144.566 112.14 144.986 112.32 145.506 112.32C145.906 112.32 146.24 112.227 146.506 112.04C146.773 111.853 146.956 111.587 147.056 111.24H148.036C147.89 111.8 147.596 112.25 147.156 112.59C146.716 112.923 146.166 113.09 145.506 113.09C144.986 113.09 144.523 112.973 144.116 112.74C143.716 112.507 143.403 112.177 143.176 111.75C142.95 111.323 142.836 110.823 142.836 110.25ZM151.97 107.42C152.384 107.42 152.757 107.51 153.09 107.69C153.424 107.863 153.684 108.127 153.87 108.48C154.064 108.833 154.16 109.263 154.16 109.77V113H153.26V109.9C153.26 109.353 153.124 108.937 152.85 108.65C152.577 108.357 152.204 108.21 151.73 108.21C151.25 108.21 150.867 108.36 150.58 108.66C150.3 108.96 150.16 109.397 150.16 109.97V113H149.25V105.6H150.16V108.3C150.34 108.02 150.587 107.803 150.9 107.65C151.22 107.497 151.577 107.42 151.97 107.42ZM165.613 107.52L163.903 113H162.963L161.643 108.65L160.323 113H159.383L157.663 107.52H158.593L159.853 112.12L161.213 107.52H162.143L163.473 112.13L164.713 107.52H165.613ZM166.986 106.63C166.813 106.63 166.666 106.57 166.546 106.45C166.426 106.33 166.366 106.183 166.366 106.01C166.366 105.837 166.426 105.69 166.546 105.57C166.666 105.45 166.813 105.39 166.986 105.39C167.153 105.39 167.293 105.45 167.406 105.57C167.526 105.69 167.586 105.837 167.586 106.01C167.586 106.183 167.526 106.33 167.406 106.45C167.293 106.57 167.153 106.63 166.986 106.63ZM167.426 107.52V113H166.516V107.52H167.426ZM170.087 108.27V111.5C170.087 111.767 170.144 111.957 170.257 112.07C170.37 112.177 170.567 112.23 170.847 112.23H171.517V113H170.697C170.19 113 169.81 112.883 169.557 112.65C169.304 112.417 169.177 112.033 169.177 111.5V108.27H168.467V107.52H169.177V106.14H170.087V107.52H171.517V108.27H170.087ZM175.34 107.42C175.753 107.42 176.126 107.51 176.46 107.69C176.793 107.863 177.053 108.127 177.24 108.48C177.433 108.833 177.53 109.263 177.53 109.77V113H176.63V109.9C176.63 109.353 176.493 108.937 176.22 108.65C175.946 108.357 175.573 108.21 175.1 108.21C174.62 108.21 174.236 108.36 173.95 108.66C173.67 108.96 173.53 109.397 173.53 109.97V113H172.62V105.6H173.53V108.3C173.71 108.02 173.956 107.803 174.27 107.65C174.59 107.497 174.946 107.42 175.34 107.42ZM181.406 113.09C180.893 113.09 180.426 112.973 180.006 112.74C179.593 112.507 179.266 112.177 179.026 111.75C178.793 111.317 178.676 110.817 178.676 110.25C178.676 109.69 178.796 109.197 179.036 108.77C179.283 108.337 179.616 108.007 180.036 107.78C180.456 107.547 180.926 107.43 181.446 107.43C181.966 107.43 182.436 107.547 182.856 107.78C183.276 108.007 183.606 108.333 183.846 108.76C184.093 109.187 184.216 109.683 184.216 110.25C184.216 110.817 184.089 111.317 183.836 111.75C183.589 112.177 183.253 112.507 182.826 112.74C182.399 112.973 181.926 113.09 181.406 113.09ZM181.406 112.29C181.733 112.29 182.039 112.213 182.326 112.06C182.613 111.907 182.843 111.677 183.016 111.37C183.196 111.063 183.286 110.69 183.286 110.25C183.286 109.81 183.199 109.437 183.026 109.13C182.853 108.823 182.626 108.597 182.346 108.45C182.066 108.297 181.763 108.22 181.436 108.22C181.103 108.22 180.796 108.297 180.516 108.45C180.243 108.597 180.023 108.823 179.856 109.13C179.689 109.437 179.606 109.81 179.606 110.25C179.606 110.697 179.686 111.073 179.846 111.38C180.013 111.687 180.233 111.917 180.506 112.07C180.779 112.217 181.079 112.29 181.406 112.29ZM190.273 107.52V113H189.363V112.19C189.189 112.47 188.946 112.69 188.633 112.85C188.326 113.003 187.986 113.08 187.613 113.08C187.186 113.08 186.803 112.993 186.463 112.82C186.123 112.64 185.853 112.373 185.653 112.02C185.459 111.667 185.363 111.237 185.363 110.73V107.52H186.263V110.61C186.263 111.15 186.399 111.567 186.673 111.86C186.946 112.147 187.319 112.29 187.793 112.29C188.279 112.29 188.663 112.14 188.943 111.84C189.223 111.54 189.363 111.103 189.363 110.53V107.52H190.273ZM192.919 108.27V111.5C192.919 111.767 192.976 111.957 193.089 112.07C193.202 112.177 193.399 112.23 193.679 112.23H194.349V113H193.529C193.022 113 192.642 112.883 192.389 112.65C192.136 112.417 192.009 112.033 192.009 111.5V108.27H191.299V107.52H192.009V106.14H192.919V107.52H194.349V108.27H192.919ZM92.68 120.6V128H91.77V120.6H92.68ZM99.2309 125.05C99.2309 125.223 99.2209 125.407 99.2009 125.6H94.8209C94.8543 126.14 95.0376 126.563 95.3709 126.87C95.7109 127.17 96.1209 127.32 96.6009 127.32C96.9943 127.32 97.3209 127.23 97.5809 127.05C97.8476 126.863 98.0343 126.617 98.1409 126.31H99.1209C98.9743 126.837 98.6809 127.267 98.2409 127.6C97.8009 127.927 97.2543 128.09 96.6009 128.09C96.0809 128.09 95.6143 127.973 95.2009 127.74C94.7943 127.507 94.4743 127.177 94.2409 126.75C94.0076 126.317 93.8909 125.817 93.8909 125.25C93.8909 124.683 94.0043 124.187 94.2309 123.76C94.4576 123.333 94.7743 123.007 95.1809 122.78C95.5943 122.547 96.0676 122.43 96.6009 122.43C97.1209 122.43 97.5809 122.543 97.9809 122.77C98.3809 122.997 98.6876 123.31 98.9009 123.71C99.1209 124.103 99.2309 124.55 99.2309 125.05ZM98.2909 124.86C98.2909 124.513 98.2143 124.217 98.0609 123.97C97.9076 123.717 97.6976 123.527 97.4309 123.4C97.1709 123.267 96.8809 123.2 96.5609 123.2C96.1009 123.2 95.7076 123.347 95.3809 123.64C95.0609 123.933 94.8776 124.34 94.8309 124.86H98.2909ZM101.542 123.27V126.5C101.542 126.767 101.599 126.957 101.712 127.07C101.825 127.177 102.022 127.23 102.302 127.23H102.972V128H102.152C101.645 128 101.265 127.883 101.012 127.65C100.759 127.417 100.632 127.033 100.632 126.5V123.27H99.9221V122.52H100.632V121.14H101.542V122.52H102.972V123.27H101.542ZM105.185 123.27V126.5C105.185 126.767 105.241 126.957 105.355 127.07C105.468 127.177 105.665 127.23 105.945 127.23H106.615V128H105.795C105.288 128 104.908 127.883 104.655 127.65C104.401 127.417 104.275 127.033 104.275 126.5V123.27H103.565V122.52H104.275V121.14H105.185V122.52H106.615V123.27H105.185ZM108.187 121.63C108.014 121.63 107.867 121.57 107.747 121.45C107.627 121.33 107.567 121.183 107.567 121.01C107.567 120.837 107.627 120.69 107.747 120.57C107.867 120.45 108.014 120.39 108.187 120.39C108.354 120.39 108.494 120.45 108.607 120.57C108.727 120.69 108.787 120.837 108.787 121.01C108.787 121.183 108.727 121.33 108.607 121.45C108.494 121.57 108.354 121.63 108.187 121.63ZM108.627 122.52V128H107.717V122.52H108.627ZM112.848 122.42C113.515 122.42 114.055 122.623 114.468 123.03C114.882 123.43 115.088 124.01 115.088 124.77V128H114.188V124.9C114.188 124.353 114.052 123.937 113.778 123.65C113.505 123.357 113.132 123.21 112.658 123.21C112.178 123.21 111.795 123.36 111.508 123.66C111.228 123.96 111.088 124.397 111.088 124.97V128H110.178V122.52H111.088V123.3C111.268 123.02 111.512 122.803 111.818 122.65C112.132 122.497 112.475 122.42 112.848 122.42ZM118.835 122.43C119.308 122.43 119.721 122.533 120.075 122.74C120.435 122.947 120.701 123.207 120.875 123.52V122.52H121.795V128.12C121.795 128.62 121.688 129.063 121.475 129.45C121.261 129.843 120.955 130.15 120.555 130.37C120.161 130.59 119.701 130.7 119.175 130.7C118.455 130.7 117.855 130.53 117.375 130.19C116.895 129.85 116.611 129.387 116.525 128.8H117.425C117.525 129.133 117.731 129.4 118.045 129.6C118.358 129.807 118.735 129.91 119.175 129.91C119.675 129.91 120.081 129.753 120.395 129.44C120.715 129.127 120.875 128.687 120.875 128.12V126.97C120.695 127.29 120.428 127.557 120.075 127.77C119.721 127.983 119.308 128.09 118.835 128.09C118.348 128.09 117.905 127.97 117.505 127.73C117.111 127.49 116.801 127.153 116.575 126.72C116.348 126.287 116.235 125.793 116.235 125.24C116.235 124.68 116.348 124.19 116.575 123.77C116.801 123.343 117.111 123.013 117.505 122.78C117.905 122.547 118.348 122.43 118.835 122.43ZM120.875 125.25C120.875 124.837 120.791 124.477 120.625 124.17C120.458 123.863 120.231 123.63 119.945 123.47C119.665 123.303 119.355 123.22 119.015 123.22C118.675 123.22 118.365 123.3 118.085 123.46C117.805 123.62 117.581 123.853 117.415 124.16C117.248 124.467 117.165 124.827 117.165 125.24C117.165 125.66 117.248 126.027 117.415 126.34C117.581 126.647 117.805 126.883 118.085 127.05C118.365 127.21 118.675 127.29 119.015 127.29C119.355 127.29 119.665 127.21 119.945 127.05C120.231 126.883 120.458 126.647 120.625 126.34C120.791 126.027 120.875 125.663 120.875 125.25ZM130.719 122.52L127.419 130.58H126.479L127.559 127.94L125.349 122.52H126.359L128.079 126.96L129.779 122.52H130.719ZM134.023 128.09C133.51 128.09 133.043 127.973 132.623 127.74C132.21 127.507 131.883 127.177 131.643 126.75C131.41 126.317 131.293 125.817 131.293 125.25C131.293 124.69 131.413 124.197 131.653 123.77C131.9 123.337 132.233 123.007 132.653 122.78C133.073 122.547 133.543 122.43 134.063 122.43C134.583 122.43 135.053 122.547 135.473 122.78C135.893 123.007 136.223 123.333 136.463 123.76C136.71 124.187 136.833 124.683 136.833 125.25C136.833 125.817 136.707 126.317 136.453 126.75C136.207 127.177 135.87 127.507 135.443 127.74C135.017 127.973 134.543 128.09 134.023 128.09ZM134.023 127.29C134.35 127.29 134.657 127.213 134.943 127.06C135.23 126.907 135.46 126.677 135.633 126.37C135.813 126.063 135.903 125.69 135.903 125.25C135.903 124.81 135.817 124.437 135.643 124.13C135.47 123.823 135.243 123.597 134.963 123.45C134.683 123.297 134.38 123.22 134.053 123.22C133.72 123.22 133.413 123.297 133.133 123.45C132.86 123.597 132.64 123.823 132.473 124.13C132.307 124.437 132.223 124.81 132.223 125.25C132.223 125.697 132.303 126.073 132.463 126.38C132.63 126.687 132.85 126.917 133.123 127.07C133.397 127.217 133.697 127.29 134.023 127.29ZM142.89 122.52V128H141.98V127.19C141.806 127.47 141.563 127.69 141.25 127.85C140.943 128.003 140.603 128.08 140.23 128.08C139.803 128.08 139.42 127.993 139.08 127.82C138.74 127.64 138.47 127.373 138.27 127.02C138.076 126.667 137.98 126.237 137.98 125.73V122.52H138.88V125.61C138.88 126.15 139.016 126.567 139.29 126.86C139.563 127.147 139.936 127.29 140.41 127.29C140.896 127.29 141.28 127.14 141.56 126.84C141.84 126.54 141.98 126.103 141.98 125.53V122.52H142.89ZM145.336 123.41C145.496 123.097 145.723 122.853 146.016 122.68C146.316 122.507 146.68 122.42 147.106 122.42V123.36H146.866C145.846 123.36 145.336 123.913 145.336 125.02V128H144.426V122.52H145.336V123.41ZM94.16 143.09C93.6467 143.09 93.18 142.973 92.76 142.74C92.3467 142.507 92.02 142.177 91.78 141.75C91.5467 141.317 91.43 140.817 91.43 140.25C91.43 139.69 91.55 139.197 91.79 138.77C92.0367 138.337 92.37 138.007 92.79 137.78C93.21 137.547 93.68 137.43 94.2 137.43C94.72 137.43 95.19 137.547 95.61 137.78C96.03 138.007 96.36 138.333 96.6 138.76C96.8467 139.187 96.97 139.683 96.97 140.25C96.97 140.817 96.8433 141.317 96.59 141.75C96.3433 142.177 96.0067 142.507 95.58 142.74C95.1533 142.973 94.68 143.09 94.16 143.09ZM94.16 142.29C94.4867 142.29 94.7933 142.213 95.08 142.06C95.3667 141.907 95.5967 141.677 95.77 141.37C95.95 141.063 96.04 140.69 96.04 140.25C96.04 139.81 95.9533 139.437 95.78 139.13C95.6067 138.823 95.38 138.597 95.1 138.45C94.82 138.297 94.5167 138.22 94.19 138.22C93.8567 138.22 93.55 138.297 93.27 138.45C92.9967 138.597 92.7767 138.823 92.61 139.13C92.4433 139.437 92.36 139.81 92.36 140.25C92.36 140.697 92.44 141.073 92.6 141.38C92.7667 141.687 92.9867 141.917 93.26 142.07C93.5333 142.217 93.8333 142.29 94.16 142.29ZM99.0765 138.53C99.2565 138.217 99.5232 137.957 99.8765 137.75C100.236 137.537 100.653 137.43 101.126 137.43C101.613 137.43 102.053 137.547 102.446 137.78C102.846 138.013 103.16 138.343 103.386 138.77C103.613 139.19 103.726 139.68 103.726 140.24C103.726 140.793 103.613 141.287 103.386 141.72C103.16 142.153 102.846 142.49 102.446 142.73C102.053 142.97 101.613 143.09 101.126 143.09C100.66 143.09 100.246 142.987 99.8865 142.78C99.5332 142.567 99.2632 142.303 99.0765 141.99V145.6H98.1665V137.52H99.0765V138.53ZM102.796 140.24C102.796 139.827 102.713 139.467 102.546 139.16C102.38 138.853 102.153 138.62 101.866 138.46C101.586 138.3 101.276 138.22 100.936 138.22C100.603 138.22 100.293 138.303 100.006 138.47C99.7265 138.63 99.4998 138.867 99.3265 139.18C99.1598 139.487 99.0765 139.843 99.0765 140.25C99.0765 140.663 99.1598 141.027 99.3265 141.34C99.4998 141.647 99.7265 141.883 100.006 142.05C100.293 142.21 100.603 142.29 100.936 142.29C101.276 142.29 101.586 142.21 101.866 142.05C102.153 141.883 102.38 141.647 102.546 141.34C102.713 141.027 102.796 140.66 102.796 140.24ZM105.834 138.53C106.014 138.217 106.281 137.957 106.634 137.75C106.994 137.537 107.411 137.43 107.884 137.43C108.371 137.43 108.811 137.547 109.204 137.78C109.604 138.013 109.918 138.343 110.144 138.77C110.371 139.19 110.484 139.68 110.484 140.24C110.484 140.793 110.371 141.287 110.144 141.72C109.918 142.153 109.604 142.49 109.204 142.73C108.811 142.97 108.371 143.09 107.884 143.09C107.418 143.09 107.004 142.987 106.644 142.78C106.291 142.567 106.021 142.303 105.834 141.99V145.6H104.924V137.52H105.834V138.53ZM109.554 140.24C109.554 139.827 109.471 139.467 109.304 139.16C109.138 138.853 108.911 138.62 108.624 138.46C108.344 138.3 108.034 138.22 107.694 138.22C107.361 138.22 107.051 138.303 106.764 138.47C106.484 138.63 106.258 138.867 106.084 139.18C105.918 139.487 105.834 139.843 105.834 140.25C105.834 140.663 105.918 141.027 106.084 141.34C106.258 141.647 106.484 141.883 106.764 142.05C107.051 142.21 107.361 142.29 107.694 142.29C108.034 142.29 108.344 142.21 108.624 142.05C108.911 141.883 109.138 141.647 109.304 141.34C109.471 141.027 109.554 140.66 109.554 140.24ZM114.072 143.09C113.559 143.09 113.092 142.973 112.672 142.74C112.259 142.507 111.932 142.177 111.692 141.75C111.459 141.317 111.342 140.817 111.342 140.25C111.342 139.69 111.462 139.197 111.702 138.77C111.949 138.337 112.282 138.007 112.702 137.78C113.122 137.547 113.592 137.43 114.112 137.43C114.632 137.43 115.102 137.547 115.522 137.78C115.942 138.007 116.272 138.333 116.512 138.76C116.759 139.187 116.882 139.683 116.882 140.25C116.882 140.817 116.755 141.317 116.502 141.75C116.255 142.177 115.919 142.507 115.492 142.74C115.065 142.973 114.592 143.09 114.072 143.09ZM114.072 142.29C114.399 142.29 114.705 142.213 114.992 142.06C115.279 141.907 115.509 141.677 115.682 141.37C115.862 141.063 115.952 140.69 115.952 140.25C115.952 139.81 115.865 139.437 115.692 139.13C115.519 138.823 115.292 138.597 115.012 138.45C114.732 138.297 114.429 138.22 114.102 138.22C113.769 138.22 113.462 138.297 113.182 138.45C112.909 138.597 112.689 138.823 112.522 139.13C112.355 139.437 112.272 139.81 112.272 140.25C112.272 140.697 112.352 141.073 112.512 141.38C112.679 141.687 112.899 141.917 113.172 142.07C113.445 142.217 113.745 142.29 114.072 142.29ZM120.749 137.42C121.415 137.42 121.955 137.623 122.369 138.03C122.782 138.43 122.989 139.01 122.989 139.77V143H122.089V139.9C122.089 139.353 121.952 138.937 121.679 138.65C121.405 138.357 121.032 138.21 120.559 138.21C120.079 138.21 119.695 138.36 119.409 138.66C119.129 138.96 118.989 139.397 118.989 139.97V143H118.079V137.52H118.989V138.3C119.169 138.02 119.412 137.803 119.719 137.65C120.032 137.497 120.375 137.42 120.749 137.42ZM129.475 140.05C129.475 140.223 129.465 140.407 129.445 140.6H125.065C125.098 141.14 125.282 141.563 125.615 141.87C125.955 142.17 126.365 142.32 126.845 142.32C127.238 142.32 127.565 142.23 127.825 142.05C128.092 141.863 128.278 141.617 128.385 141.31H129.365C129.218 141.837 128.925 142.267 128.485 142.6C128.045 142.927 127.498 143.09 126.845 143.09C126.325 143.09 125.858 142.973 125.445 142.74C125.038 142.507 124.718 142.177 124.485 141.75C124.252 141.317 124.135 140.817 124.135 140.25C124.135 139.683 124.248 139.187 124.475 138.76C124.702 138.333 125.018 138.007 125.425 137.78C125.838 137.547 126.312 137.43 126.845 137.43C127.365 137.43 127.825 137.543 128.225 137.77C128.625 137.997 128.932 138.31 129.145 138.71C129.365 139.103 129.475 139.55 129.475 140.05ZM128.535 139.86C128.535 139.513 128.458 139.217 128.305 138.97C128.152 138.717 127.942 138.527 127.675 138.4C127.415 138.267 127.125 138.2 126.805 138.2C126.345 138.2 125.952 138.347 125.625 138.64C125.305 138.933 125.122 139.34 125.075 139.86H128.535ZM133.346 137.42C134.013 137.42 134.553 137.623 134.966 138.03C135.38 138.43 135.586 139.01 135.586 139.77V143H134.686V139.9C134.686 139.353 134.55 138.937 134.276 138.65C134.003 138.357 133.63 138.21 133.156 138.21C132.676 138.21 132.293 138.36 132.006 138.66C131.726 138.96 131.586 139.397 131.586 139.97V143H130.676V137.52H131.586V138.3C131.766 138.02 132.01 137.803 132.316 137.65C132.63 137.497 132.973 137.42 133.346 137.42ZM138.183 138.27V141.5C138.183 141.767 138.239 141.957 138.353 142.07C138.466 142.177 138.663 142.23 138.943 142.23H139.613V143H138.793C138.286 143 137.906 142.883 137.653 142.65C137.399 142.417 137.273 142.033 137.273 141.5V138.27H136.563V137.52H137.273V136.14H138.183V137.52H139.613V138.27H138.183ZM145.321 143.09C144.901 143.09 144.525 143.02 144.191 142.88C143.858 142.733 143.595 142.533 143.401 142.28C143.208 142.02 143.101 141.723 143.081 141.39H144.021C144.048 141.663 144.175 141.887 144.401 142.06C144.635 142.233 144.938 142.32 145.311 142.32C145.658 142.32 145.931 142.243 146.131 142.09C146.331 141.937 146.431 141.743 146.431 141.51C146.431 141.27 146.325 141.093 146.111 140.98C145.898 140.86 145.568 140.743 145.121 140.63C144.715 140.523 144.381 140.417 144.121 140.31C143.868 140.197 143.648 140.033 143.461 139.82C143.281 139.6 143.191 139.313 143.191 138.96C143.191 138.68 143.275 138.423 143.441 138.19C143.608 137.957 143.845 137.773 144.151 137.64C144.458 137.5 144.808 137.43 145.201 137.43C145.808 137.43 146.298 137.583 146.671 137.89C147.045 138.197 147.245 138.617 147.271 139.15H146.361C146.341 138.863 146.225 138.633 146.011 138.46C145.805 138.287 145.525 138.2 145.171 138.2C144.845 138.2 144.585 138.27 144.391 138.41C144.198 138.55 144.101 138.733 144.101 138.96C144.101 139.14 144.158 139.29 144.271 139.41C144.391 139.523 144.538 139.617 144.711 139.69C144.891 139.757 145.138 139.833 145.451 139.92C145.845 140.027 146.165 140.133 146.411 140.24C146.658 140.34 146.868 140.493 147.041 140.7C147.221 140.907 147.315 141.177 147.321 141.51C147.321 141.81 147.238 142.08 147.071 142.32C146.905 142.56 146.668 142.75 146.361 142.89C146.061 143.023 145.715 143.09 145.321 143.09ZM148.266 140.25C148.266 139.683 148.379 139.19 148.606 138.77C148.833 138.343 149.146 138.013 149.546 137.78C149.953 137.547 150.416 137.43 150.936 137.43C151.609 137.43 152.163 137.593 152.596 137.92C153.036 138.247 153.326 138.7 153.466 139.28H152.486C152.393 138.947 152.209 138.683 151.936 138.49C151.669 138.297 151.336 138.2 150.936 138.2C150.416 138.2 149.996 138.38 149.676 138.74C149.356 139.093 149.196 139.597 149.196 140.25C149.196 140.91 149.356 141.42 149.676 141.78C149.996 142.14 150.416 142.32 150.936 142.32C151.336 142.32 151.669 142.227 151.936 142.04C152.203 141.853 152.386 141.587 152.486 141.24H153.466C153.319 141.8 153.026 142.25 152.586 142.59C152.146 142.923 151.596 143.09 150.936 143.09C150.416 143.09 149.953 142.973 149.546 142.74C149.146 142.507 148.833 142.177 148.606 141.75C148.379 141.323 148.266 140.823 148.266 140.25ZM157.07 143.09C156.557 143.09 156.09 142.973 155.67 142.74C155.257 142.507 154.93 142.177 154.69 141.75C154.457 141.317 154.34 140.817 154.34 140.25C154.34 139.69 154.46 139.197 154.7 138.77C154.947 138.337 155.28 138.007 155.7 137.78C156.12 137.547 156.59 137.43 157.11 137.43C157.63 137.43 158.1 137.547 158.52 137.78C158.94 138.007 159.27 138.333 159.51 138.76C159.757 139.187 159.88 139.683 159.88 140.25C159.88 140.817 159.753 141.317 159.5 141.75C159.253 142.177 158.917 142.507 158.49 142.74C158.063 142.973 157.59 143.09 157.07 143.09ZM157.07 142.29C157.397 142.29 157.703 142.213 157.99 142.06C158.277 141.907 158.507 141.677 158.68 141.37C158.86 141.063 158.95 140.69 158.95 140.25C158.95 139.81 158.863 139.437 158.69 139.13C158.517 138.823 158.29 138.597 158.01 138.45C157.73 138.297 157.427 138.22 157.1 138.22C156.767 138.22 156.46 138.297 156.18 138.45C155.907 138.597 155.687 138.823 155.52 139.13C155.353 139.437 155.27 139.81 155.27 140.25C155.27 140.697 155.35 141.073 155.51 141.38C155.677 141.687 155.897 141.917 156.17 142.07C156.443 142.217 156.743 142.29 157.07 142.29ZM161.987 138.41C162.147 138.097 162.373 137.853 162.667 137.68C162.967 137.507 163.33 137.42 163.757 137.42V138.36H163.517C162.497 138.36 161.987 138.913 161.987 140.02V143H161.077V137.52H161.987V138.41ZM169.807 140.05C169.807 140.223 169.797 140.407 169.777 140.6H165.397C165.43 141.14 165.614 141.563 165.947 141.87C166.287 142.17 166.697 142.32 167.177 142.32C167.57 142.32 167.897 142.23 168.157 142.05C168.424 141.863 168.61 141.617 168.717 141.31H169.697C169.55 141.837 169.257 142.267 168.817 142.6C168.377 142.927 167.83 143.09 167.177 143.09C166.657 143.09 166.19 142.973 165.777 142.74C165.37 142.507 165.05 142.177 164.817 141.75C164.584 141.317 164.467 140.817 164.467 140.25C164.467 139.683 164.58 139.187 164.807 138.76C165.034 138.333 165.35 138.007 165.757 137.78C166.17 137.547 166.644 137.43 167.177 137.43C167.697 137.43 168.157 137.543 168.557 137.77C168.957 137.997 169.264 138.31 169.477 138.71C169.697 139.103 169.807 139.55 169.807 140.05ZM168.867 139.86C168.867 139.513 168.79 139.217 168.637 138.97C168.484 138.717 168.274 138.527 168.007 138.4C167.747 138.267 167.457 138.2 167.137 138.2C166.677 138.2 166.284 138.347 165.957 138.64C165.637 138.933 165.454 139.34 165.407 139.86H168.867ZM98.36 152.42C98.7867 152.42 99.1667 152.51 99.5 152.69C99.8333 152.863 100.097 153.127 100.29 153.48C100.483 153.833 100.58 154.263 100.58 154.77V158H99.68V154.9C99.68 154.353 99.5433 153.937 99.27 153.65C99.0033 153.357 98.64 153.21 98.18 153.21C97.7067 153.21 97.33 153.363 97.05 153.67C96.77 153.97 96.63 154.407 96.63 154.98V158H95.73V154.9C95.73 154.353 95.5933 153.937 95.32 153.65C95.0533 153.357 94.69 153.21 94.23 153.21C93.7567 153.21 93.38 153.363 93.1 153.67C92.82 153.97 92.68 154.407 92.68 154.98V158H91.77V152.52H92.68V153.31C92.86 153.023 93.1 152.803 93.4 152.65C93.7067 152.497 94.0433 152.42 94.41 152.42C94.87 152.42 95.2767 152.523 95.63 152.73C95.9833 152.937 96.2467 153.24 96.42 153.64C96.5733 153.253 96.8267 152.953 97.18 152.74C97.5333 152.527 97.9267 152.42 98.36 152.42ZM104.463 158.09C103.949 158.09 103.483 157.973 103.063 157.74C102.649 157.507 102.323 157.177 102.083 156.75C101.849 156.317 101.733 155.817 101.733 155.25C101.733 154.69 101.853 154.197 102.093 153.77C102.339 153.337 102.673 153.007 103.093 152.78C103.513 152.547 103.983 152.43 104.503 152.43C105.023 152.43 105.493 152.547 105.913 152.78C106.333 153.007 106.663 153.333 106.903 153.76C107.149 154.187 107.273 154.683 107.273 155.25C107.273 155.817 107.146 156.317 106.893 156.75C106.646 157.177 106.309 157.507 105.883 157.74C105.456 157.973 104.983 158.09 104.463 158.09ZM104.463 157.29C104.789 157.29 105.096 157.213 105.383 157.06C105.669 156.907 105.899 156.677 106.073 156.37C106.253 156.063 106.343 155.69 106.343 155.25C106.343 154.81 106.256 154.437 106.083 154.13C105.909 153.823 105.683 153.597 105.403 153.45C105.123 153.297 104.819 153.22 104.493 153.22C104.159 153.22 103.853 153.297 103.573 153.45C103.299 153.597 103.079 153.823 102.913 154.13C102.746 154.437 102.663 154.81 102.663 155.25C102.663 155.697 102.743 156.073 102.903 156.38C103.069 156.687 103.289 156.917 103.563 157.07C103.836 157.217 104.136 157.29 104.463 157.29ZM109.379 153.41C109.539 153.097 109.766 152.853 110.059 152.68C110.359 152.507 110.723 152.42 111.149 152.42V153.36H110.909C109.889 153.36 109.379 153.913 109.379 155.02V158H108.469V152.52H109.379V153.41ZM117.2 155.05C117.2 155.223 117.19 155.407 117.17 155.6H112.79C112.823 156.14 113.006 156.563 113.34 156.87C113.68 157.17 114.09 157.32 114.57 157.32C114.963 157.32 115.29 157.23 115.55 157.05C115.816 156.863 116.003 156.617 116.11 156.31H117.09C116.943 156.837 116.65 157.267 116.21 157.6C115.77 157.927 115.223 158.09 114.57 158.09C114.05 158.09 113.583 157.973 113.17 157.74C112.763 157.507 112.443 157.177 112.21 156.75C111.976 156.317 111.86 155.817 111.86 155.25C111.86 154.683 111.973 154.187 112.2 153.76C112.426 153.333 112.743 153.007 113.15 152.78C113.563 152.547 114.036 152.43 114.57 152.43C115.09 152.43 115.55 152.543 115.95 152.77C116.35 152.997 116.656 153.31 116.87 153.71C117.09 154.103 117.2 154.55 117.2 155.05ZM116.26 154.86C116.26 154.513 116.183 154.217 116.03 153.97C115.876 153.717 115.666 153.527 115.4 153.4C115.14 153.267 114.85 153.2 114.53 153.2C114.07 153.2 113.676 153.347 113.35 153.64C113.03 153.933 112.846 154.34 112.8 154.86H116.26ZM122.177 153.27V156.5C122.177 156.767 122.234 156.957 122.347 157.07C122.46 157.177 122.657 157.23 122.937 157.23H123.607V158H122.787C122.28 158 121.9 157.883 121.647 157.65C121.394 157.417 121.267 157.033 121.267 156.5V153.27H120.557V152.52H121.267V151.14H122.177V152.52H123.607V153.27H122.177ZM127.429 152.42C127.843 152.42 128.216 152.51 128.549 152.69C128.883 152.863 129.143 153.127 129.329 153.48C129.523 153.833 129.619 154.263 129.619 154.77V158H128.719V154.9C128.719 154.353 128.583 153.937 128.309 153.65C128.036 153.357 127.663 153.21 127.189 153.21C126.709 153.21 126.326 153.36 126.039 153.66C125.759 153.96 125.619 154.397 125.619 154.97V158H124.709V150.6H125.619V153.3C125.799 153.02 126.046 152.803 126.359 152.65C126.679 152.497 127.036 152.42 127.429 152.42ZM130.766 155.24C130.766 154.68 130.879 154.19 131.106 153.77C131.333 153.343 131.643 153.013 132.036 152.78C132.436 152.547 132.879 152.43 133.366 152.43C133.846 152.43 134.263 152.533 134.616 152.74C134.969 152.947 135.233 153.207 135.406 153.52V152.52H136.326V158H135.406V156.98C135.226 157.3 134.956 157.567 134.596 157.78C134.243 157.987 133.829 158.09 133.356 158.09C132.869 158.09 132.429 157.97 132.036 157.73C131.643 157.49 131.333 157.153 131.106 156.72C130.879 156.287 130.766 155.793 130.766 155.24ZM135.406 155.25C135.406 154.837 135.323 154.477 135.156 154.17C134.989 153.863 134.763 153.63 134.476 153.47C134.196 153.303 133.886 153.22 133.546 153.22C133.206 153.22 132.896 153.3 132.616 153.46C132.336 153.62 132.113 153.853 131.946 154.16C131.779 154.467 131.696 154.827 131.696 155.24C131.696 155.66 131.779 156.027 131.946 156.34C132.113 156.647 132.336 156.883 132.616 157.05C132.896 157.21 133.206 157.29 133.546 157.29C133.886 157.29 134.196 157.21 134.476 157.05C134.763 156.883 134.989 156.647 135.156 156.34C135.323 156.027 135.406 155.663 135.406 155.25ZM140.534 152.42C141.2 152.42 141.74 152.623 142.154 153.03C142.567 153.43 142.774 154.01 142.774 154.77V158H141.874V154.9C141.874 154.353 141.737 153.937 141.464 153.65C141.19 153.357 140.817 153.21 140.344 153.21C139.864 153.21 139.48 153.36 139.194 153.66C138.914 153.96 138.774 154.397 138.774 154.97V158H137.864V152.52H138.774V153.3C138.954 153.02 139.197 152.803 139.504 152.65C139.817 152.497 140.16 152.42 140.534 152.42ZM148.036 153.27V156.5C148.036 156.767 148.093 156.957 148.206 157.07C148.32 157.177 148.516 157.23 148.796 157.23H149.466V158H148.646C148.14 158 147.76 157.883 147.506 157.65C147.253 157.417 147.126 157.033 147.126 156.5V153.27H146.416V152.52H147.126V151.14H148.036V152.52H149.466V153.27H148.036ZM153.289 152.42C153.702 152.42 154.075 152.51 154.409 152.69C154.742 152.863 155.002 153.127 155.189 153.48C155.382 153.833 155.479 154.263 155.479 154.77V158H154.579V154.9C154.579 154.353 154.442 153.937 154.169 153.65C153.895 153.357 153.522 153.21 153.049 153.21C152.569 153.21 152.185 153.36 151.899 153.66C151.619 153.96 151.479 154.397 151.479 154.97V158H150.569V150.6H151.479V153.3C151.659 153.02 151.905 152.803 152.219 152.65C152.539 152.497 152.895 152.42 153.289 152.42ZM157.875 153.41C158.035 153.097 158.262 152.853 158.555 152.68C158.855 152.507 159.219 152.42 159.645 152.42V153.36H159.405C158.385 153.36 157.875 153.913 157.875 155.02V158H156.965V152.52H157.875V153.41ZM165.696 155.05C165.696 155.223 165.686 155.407 165.666 155.6H161.286C161.319 156.14 161.502 156.563 161.836 156.87C162.176 157.17 162.586 157.32 163.066 157.32C163.459 157.32 163.786 157.23 164.046 157.05C164.312 156.863 164.499 156.617 164.606 156.31H165.586C165.439 156.837 165.146 157.267 164.706 157.6C164.266 157.927 163.719 158.09 163.066 158.09C162.546 158.09 162.079 157.973 161.666 157.74C161.259 157.507 160.939 157.177 160.706 156.75C160.472 156.317 160.356 155.817 160.356 155.25C160.356 154.683 160.469 154.187 160.696 153.76C160.922 153.333 161.239 153.007 161.646 152.78C162.059 152.547 162.532 152.43 163.066 152.43C163.586 152.43 164.046 152.543 164.446 152.77C164.846 152.997 165.152 153.31 165.366 153.71C165.586 154.103 165.696 154.55 165.696 155.05ZM164.756 154.86C164.756 154.513 164.679 154.217 164.526 153.97C164.372 153.717 164.162 153.527 163.896 153.4C163.636 153.267 163.346 153.2 163.026 153.2C162.566 153.2 162.172 153.347 161.846 153.64C161.526 153.933 161.342 154.34 161.296 154.86H164.756ZM171.897 155.05C171.897 155.223 171.887 155.407 171.867 155.6H167.487C167.52 156.14 167.704 156.563 168.037 156.87C168.377 157.17 168.787 157.32 169.267 157.32C169.66 157.32 169.987 157.23 170.247 157.05C170.514 156.863 170.7 156.617 170.807 156.31H171.787C171.64 156.837 171.347 157.267 170.907 157.6C170.467 157.927 169.92 158.09 169.267 158.09C168.747 158.09 168.28 157.973 167.867 157.74C167.46 157.507 167.14 157.177 166.907 156.75C166.674 156.317 166.557 155.817 166.557 155.25C166.557 154.683 166.67 154.187 166.897 153.76C167.124 153.333 167.44 153.007 167.847 152.78C168.26 152.547 168.734 152.43 169.267 152.43C169.787 152.43 170.247 152.543 170.647 152.77C171.047 152.997 171.354 153.31 171.567 153.71C171.787 154.103 171.897 154.55 171.897 155.05ZM170.957 154.86C170.957 154.513 170.88 154.217 170.727 153.97C170.574 153.717 170.364 153.527 170.097 153.4C169.837 153.267 169.547 153.2 169.227 153.2C168.767 153.2 168.374 153.347 168.047 153.64C167.727 153.933 167.544 154.34 167.497 154.86H170.957ZM92.68 168.53C92.86 168.217 93.1267 167.957 93.48 167.75C93.84 167.537 94.2567 167.43 94.73 167.43C95.2167 167.43 95.6567 167.547 96.05 167.78C96.45 168.013 96.7633 168.343 96.99 168.77C97.2167 169.19 97.33 169.68 97.33 170.24C97.33 170.793 97.2167 171.287 96.99 171.72C96.7633 172.153 96.45 172.49 96.05 172.73C95.6567 172.97 95.2167 173.09 94.73 173.09C94.2633 173.09 93.85 172.987 93.49 172.78C93.1367 172.567 92.8667 172.303 92.68 171.99V175.6H91.77V167.52H92.68V168.53ZM96.4 170.24C96.4 169.827 96.3167 169.467 96.15 169.16C95.9833 168.853 95.7567 168.62 95.47 168.46C95.19 168.3 94.88 168.22 94.54 168.22C94.2067 168.22 93.8967 168.303 93.61 168.47C93.33 168.63 93.1033 168.867 92.93 169.18C92.7633 169.487 92.68 169.843 92.68 170.25C92.68 170.663 92.7633 171.027 92.93 171.34C93.1033 171.647 93.33 171.883 93.61 172.05C93.8967 172.21 94.2067 172.29 94.54 172.29C94.88 172.29 95.19 172.21 95.47 172.05C95.7567 171.883 95.9833 171.647 96.15 171.34C96.3167 171.027 96.4 170.66 96.4 170.24ZM100.918 173.09C100.404 173.09 99.9378 172.973 99.5178 172.74C99.1045 172.507 98.7778 172.177 98.5378 171.75C98.3045 171.317 98.1878 170.817 98.1878 170.25C98.1878 169.69 98.3078 169.197 98.5478 168.77C98.7945 168.337 99.1278 168.007 99.5478 167.78C99.9678 167.547 100.438 167.43 100.958 167.43C101.478 167.43 101.948 167.547 102.368 167.78C102.788 168.007 103.118 168.333 103.358 168.76C103.604 169.187 103.728 169.683 103.728 170.25C103.728 170.817 103.601 171.317 103.348 171.75C103.101 172.177 102.764 172.507 102.338 172.74C101.911 172.973 101.438 173.09 100.918 173.09ZM100.918 172.29C101.244 172.29 101.551 172.213 101.838 172.06C102.124 171.907 102.354 171.677 102.528 171.37C102.708 171.063 102.798 170.69 102.798 170.25C102.798 169.81 102.711 169.437 102.538 169.13C102.364 168.823 102.138 168.597 101.858 168.45C101.578 168.297 101.274 168.22 100.948 168.22C100.614 168.22 100.308 168.297 100.028 168.45C99.7545 168.597 99.5345 168.823 99.3678 169.13C99.2011 169.437 99.1178 169.81 99.1178 170.25C99.1178 170.697 99.1978 171.073 99.3578 171.38C99.5245 171.687 99.7445 171.917 100.018 172.07C100.291 172.217 100.591 172.29 100.918 172.29ZM105.394 166.63C105.221 166.63 105.074 166.57 104.954 166.45C104.834 166.33 104.774 166.183 104.774 166.01C104.774 165.837 104.834 165.69 104.954 165.57C105.074 165.45 105.221 165.39 105.394 165.39C105.561 165.39 105.701 165.45 105.814 165.57C105.934 165.69 105.994 165.837 105.994 166.01C105.994 166.183 105.934 166.33 105.814 166.45C105.701 166.57 105.561 166.63 105.394 166.63ZM105.834 167.52V173H104.924V167.52H105.834ZM110.055 167.42C110.722 167.42 111.262 167.623 111.675 168.03C112.089 168.43 112.295 169.01 112.295 169.77V173H111.395V169.9C111.395 169.353 111.259 168.937 110.985 168.65C110.712 168.357 110.339 168.21 109.865 168.21C109.385 168.21 109.002 168.36 108.715 168.66C108.435 168.96 108.295 169.397 108.295 169.97V173H107.385V167.52H108.295V168.3C108.475 168.02 108.719 167.803 109.025 167.65C109.339 167.497 109.682 167.42 110.055 167.42ZM114.892 168.27V171.5C114.892 171.767 114.948 171.957 115.062 172.07C115.175 172.177 115.372 172.23 115.652 172.23H116.322V173H115.502C114.995 173 114.615 172.883 114.362 172.65C114.108 172.417 113.982 172.033 113.982 171.5V168.27H113.272V167.52H113.982V166.14H114.892V167.52H116.322V168.27H114.892ZM119.364 173.09C118.944 173.09 118.568 173.02 118.234 172.88C117.901 172.733 117.638 172.533 117.444 172.28C117.251 172.02 117.144 171.723 117.124 171.39H118.064C118.091 171.663 118.218 171.887 118.444 172.06C118.678 172.233 118.981 172.32 119.354 172.32C119.701 172.32 119.974 172.243 120.174 172.09C120.374 171.937 120.474 171.743 120.474 171.51C120.474 171.27 120.368 171.093 120.154 170.98C119.941 170.86 119.611 170.743 119.164 170.63C118.758 170.523 118.424 170.417 118.164 170.31C117.911 170.197 117.691 170.033 117.504 169.82C117.324 169.6 117.234 169.313 117.234 168.96C117.234 168.68 117.318 168.423 117.484 168.19C117.651 167.957 117.888 167.773 118.194 167.64C118.501 167.5 118.851 167.43 119.244 167.43C119.851 167.43 120.341 167.583 120.714 167.89C121.088 168.197 121.288 168.617 121.314 169.15H120.404C120.384 168.863 120.268 168.633 120.054 168.46C119.848 168.287 119.568 168.2 119.214 168.2C118.888 168.2 118.628 168.27 118.434 168.41C118.241 168.55 118.144 168.733 118.144 168.96C118.144 169.14 118.201 169.29 118.314 169.41C118.434 169.523 118.581 169.617 118.754 169.69C118.934 169.757 119.181 169.833 119.494 169.92C119.888 170.027 120.208 170.133 120.454 170.24C120.701 170.34 120.911 170.493 121.084 170.7C121.264 170.907 121.358 171.177 121.364 171.51C121.364 171.81 121.281 172.08 121.114 172.32C120.948 172.56 120.711 172.75 120.404 172.89C120.104 173.023 119.758 173.09 119.364 173.09Z" fill="#8A8A8A"/>
</svg>
