<svg width="3" height="11" viewBox="0 0 3 11" fill="none" xmlns="http://www.w3.org/2000/svg">
<path d="M0 5.5C0 5.86467 0.158036 6.21441 0.43934 6.47227C0.720645 6.73013 1.10218 6.875 1.5 6.875C1.89782 6.875 2.27936 6.73013 2.56066 6.47227C2.84196 6.21441 3 5.86467 3 5.5C3 5.13533 2.84196 4.78559 2.56066 4.52773C2.27936 4.26987 1.89782 4.125 1.5 4.125C1.10218 4.125 0.720645 4.26987 0.43934 4.52773C0.158036 4.78559 0 5.13533 0 5.5ZM0 1.375C0 1.73967 0.158036 2.08941 0.43934 2.34727C0.720645 2.60513 1.10218 2.75 1.5 2.75C1.89782 2.75 2.27936 2.60513 2.56066 2.34727C2.84196 2.08941 3 1.73967 3 1.375C3 1.01033 2.84196 0.660591 2.56066 0.402728C2.27936 0.144866 1.89782 0 1.5 0C1.10218 0 0.720645 0.144866 0.43934 0.402728C0.158036 0.660591 0 1.01033 0 1.375ZM0 9.625C0 9.98967 0.158036 10.3394 0.43934 10.5973C0.720645 10.8551 1.10218 11 1.5 11C1.89782 11 2.27936 10.8551 2.56066 10.5973C2.84196 10.3394 3 9.98967 3 9.625C3 9.26033 2.84196 8.91059 2.56066 8.65273C2.27936 8.39487 1.89782 8.25 1.5 8.25C1.10218 8.25 0.720645 8.39487 0.43934 8.65273C0.158036 8.91059 0 9.26033 0 9.625Z" fill="white"/>
</svg>
