<svg width="25" height="21" viewBox="0 0 25 21" fill="none" xmlns="http://www.w3.org/2000/svg">
<g id="Vector" filter="url(#filter0_dddd_1653_2647)">
<path fill-rule="evenodd" clip-rule="evenodd" d="M3 0.525302L7.72 5.28133L12.5 0.464844L17.281 5.28133L22 0.526309V9.47107C22 10.2728 21.6839 11.0417 21.1213 11.6086C20.5587 12.1755 19.7956 12.494 19 12.494H6C5.20435 12.494 4.44129 12.1755 3.87868 11.6086C3.31607 11.0417 3 10.2728 3 9.47107V0.525302ZM20 5.38008V9.47107C20 9.73831 19.8946 9.99461 19.7071 10.1836C19.5196 10.3725 19.2652 10.4787 19 10.4787H6C5.73478 10.4787 5.48043 10.3725 5.29289 10.1836C5.10536 9.99461 5 9.73831 5 9.47107V5.37907L7.72 8.11984L12.5 3.30335L17.281 8.11984L20 5.37907V5.38008Z" fill="url(#paint0_linear_1653_2647)"/>
</g>
<defs>
<filter id="filter0_dddd_1653_2647" x="0" y="0.464844" width="25" height="20.0273" filterUnits="userSpaceOnUse" color-interpolation-filters="sRGB">
<feFlood flood-opacity="0" result="BackgroundImageFix"/>
<feColorMatrix in="SourceAlpha" type="matrix" values="0 0 0 0 0 0 0 0 0 0 0 0 0 0 0 0 0 0 127 0" result="hardAlpha"/>
<feOffset/>
<feColorMatrix type="matrix" values="0 0 0 0 0 0 0 0 0 0 0 0 0 0 0 0 0 0 0.03 0"/>
<feBlend mode="normal" in2="BackgroundImageFix" result="effect1_dropShadow_1653_2647"/>
<feColorMatrix in="SourceAlpha" type="matrix" values="0 0 0 0 0 0 0 0 0 0 0 0 0 0 0 0 0 0 127 0" result="hardAlpha"/>
<feOffset dy="1"/>
<feGaussianBlur stdDeviation="0.5"/>
<feColorMatrix type="matrix" values="0 0 0 0 0 0 0 0 0 0 0 0 0 0 0 0 0 0 0.03 0"/>
<feBlend mode="normal" in2="effect1_dropShadow_1653_2647" result="effect2_dropShadow_1653_2647"/>
<feColorMatrix in="SourceAlpha" type="matrix" values="0 0 0 0 0 0 0 0 0 0 0 0 0 0 0 0 0 0 127 0" result="hardAlpha"/>
<feOffset dy="2"/>
<feGaussianBlur stdDeviation="1"/>
<feColorMatrix type="matrix" values="0 0 0 0 0 0 0 0 0 0 0 0 0 0 0 0 0 0 0.02 0"/>
<feBlend mode="normal" in2="effect2_dropShadow_1653_2647" result="effect3_dropShadow_1653_2647"/>
<feColorMatrix in="SourceAlpha" type="matrix" values="0 0 0 0 0 0 0 0 0 0 0 0 0 0 0 0 0 0 127 0" result="hardAlpha"/>
<feOffset dy="5"/>
<feGaussianBlur stdDeviation="1.5"/>
<feColorMatrix type="matrix" values="0 0 0 0 0 0 0 0 0 0 0 0 0 0 0 0 0 0 0.01 0"/>
<feBlend mode="normal" in2="effect3_dropShadow_1653_2647" result="effect4_dropShadow_1653_2647"/>
<feBlend mode="normal" in="SourceGraphic" in2="effect4_dropShadow_1653_2647" result="shape"/>
</filter>
<linearGradient id="paint0_linear_1653_2647" x1="3" y1="6.47941" x2="22" y2="6.47941" gradientUnits="userSpaceOnUse">
<stop stop-color="#E0C3FC"/>
<stop offset="1" stop-color="#8EC5FC"/>
</linearGradient>
</defs>
</svg>
