<?xml version="1.0" standalone="no"?>
<svg xmlns:xlink="http://www.w3.org/1999/xlink" id="wave" style="transform:rotate(180deg); transition: 0.3s" viewBox="0 0 1440 490" version="1.1" xmlns="http://www.w3.org/2000/svg"><defs><linearGradient id="sw-gradient-0" x1="0" x2="0" y1="1" y2="0"><stop stop-color="rgba(6, 74, 133, 1)" offset="0%"/><stop stop-color="rgba(6, 74, 133, 1)" offset="100%"/></linearGradient></defs><path style="transform:translate(0, 0px); opacity:1" fill="url(#sw-gradient-0)" d="M0,49L20,40.8C40,33,80,16,120,57.2C160,98,200,196,240,261.3C280,327,320,359,360,359.3C400,359,440,327,480,302.2C520,278,560,261,600,277.7C640,294,680,343,720,318.5C760,294,800,196,840,171.5C880,147,920,196,960,204.2C1000,212,1040,180,1080,212.3C1120,245,1160,343,1200,343C1240,343,1280,245,1320,171.5C1360,98,1400,49,1440,65.3C1480,82,1520,163,1560,220.5C1600,278,1640,310,1680,285.8C1720,261,1760,180,1800,155.2C1840,131,1880,163,1920,163.3C1960,163,2000,131,2040,114.3C2080,98,2120,98,2160,106.2C2200,114,2240,131,2280,122.5C2320,114,2360,82,2400,98C2440,114,2480,180,2520,236.8C2560,294,2600,343,2640,351.2C2680,359,2720,327,2760,334.8C2800,343,2840,392,2860,416.5L2880,441L2880,490L2860,490C2840,490,2800,490,2760,490C2720,490,2680,490,2640,490C2600,490,2560,490,2520,490C2480,490,2440,490,2400,490C2360,490,2320,490,2280,490C2240,490,2200,490,2160,490C2120,490,2080,490,2040,490C2000,490,1960,490,1920,490C1880,490,1840,490,1800,490C1760,490,1720,490,1680,490C1640,490,1600,490,1560,490C1520,490,1480,490,1440,490C1400,490,1360,490,1320,490C1280,490,1240,490,1200,490C1160,490,1120,490,1080,490C1040,490,1000,490,960,490C920,490,880,490,840,490C800,490,760,490,720,490C680,490,640,490,600,490C560,490,520,490,480,490C440,490,400,490,360,490C320,490,280,490,240,490C200,490,160,490,120,490C80,490,40,490,20,490L0,490Z"/></svg>