<?xml version="1.0" standalone="no"?><svg xmlns="http://www.w3.org/2000/svg" viewBox="0 0 1440 320"><path fill="#064A85" fill-opacity="1" d="M0,128L30,149.3C60,171,120,213,180,213.3C240,213,300,171,360,176C420,181,480,235,540,266.7C600,299,660,309,720,293.3C780,277,840,235,900,208C960,181,1020,171,1080,181.3C1140,192,1200,224,1260,250.7C1320,277,1380,299,1410,309.3L1440,320L1440,0L1410,0C1380,0,1320,0,1260,0C1200,0,1140,0,1080,0C1020,0,960,0,900,0C840,0,780,0,720,0C660,0,600,0,540,0C480,0,420,0,360,0C300,0,240,0,180,0C120,0,60,0,30,0L0,0Z"></path></svg>